<svg xmlns="http://www.w3.org/2000/svg" xmlns:xlink="http://www.w3.org/1999/xlink" width="379.178" height="457.299" viewBox="0 0 379.178 457.299">
  <defs>
    <linearGradient id="linear-gradient" x1="0.463" y1="6.608" x2="0.516" y2="-2.103" gradientUnits="objectBoundingBox">
      <stop offset="0" stop-color="#00aeff"/>
      <stop offset="0.589" stop-color="#00aeff"/>
      <stop offset="0.705" stop-color="#37baff"/>
      <stop offset="0.757" stop-color="#4dc0ff"/>
      <stop offset="0.844" stop-color="#5ec7ff"/>
      <stop offset="0.994" stop-color="#82d5ff"/>
      <stop offset="1" stop-color="#78caf3"/>
    </linearGradient>
    <linearGradient id="linear-gradient-3" x1="0.463" y1="6.608" x2="0.516" y2="-2.103" gradientUnits="objectBoundingBox">
      <stop offset="0" stop-color="#00aeff"/>
      <stop offset="0.837" stop-color="#00aeff"/>
      <stop offset="0.994" stop-color="#82d5ff"/>
      <stop offset="1" stop-color="#4dc0ff"/>
      <stop offset="1" stop-color="#78caf3"/>
    </linearGradient>
    <linearGradient id="linear-gradient-4" x1="0.496" y1="1.168" x2="0.503" y2="0.017" gradientUnits="objectBoundingBox">
      <stop offset="0" stop-color="#01a8fc"/>
      <stop offset="0.589" stop-color="#01a8fc"/>
      <stop offset="0.705" stop-color="#36baff"/>
      <stop offset="0.757" stop-color="#4bbfff"/>
      <stop offset="0.844" stop-color="#60c7ff"/>
      <stop offset="1" stop-color="#81d5ff"/>
    </linearGradient>
    <linearGradient id="linear-gradient-5" x1="0.463" y1="6.608" x2="0.516" y2="-2.103" gradientUnits="objectBoundingBox">
      <stop offset="0" stop-color="#00aeff"/>
      <stop offset="0.782" stop-color="#00aeff"/>
      <stop offset="1" stop-color="#34b9ff"/>
      <stop offset="1" stop-color="#78caf3"/>
    </linearGradient>
  </defs>
  <g id="Group_141" data-name="Group 141" transform="translate(-66.185 -41)">
    <g id="Group_3" data-name="Group 3" transform="translate(-1515 -69)">
      <g id="Group_70" data-name="Group 70" transform="translate(1581.185 110)">
        <path id="Path_13" data-name="Path 13" d="M1724.56,205.361h-51.086v51.086h51.086Zm-16.581,34.505h-17.924V221.942h17.924Z" transform="translate(-1562.971 -91.18)" fill="url(#linear-gradient)"/>
        <path id="Path_14" data-name="Path 14" d="M1763.189,256.447h51.088V205.361h-51.088Zm16.581-34.505H1797.7v17.924H1779.77Z" transform="translate(-1545.265 -91.18)" fill="url(#linear-gradient)"/>
        <path id="Path_15" data-name="Path 15" d="M1754.8,311.149h24.76V286.39H1754.8Zm8.037-16.723h8.687v8.688h-8.687Z" transform="translate(-1546.921 -75.188)" fill="url(#linear-gradient-3)"/>
        <path id="Path_16" data-name="Path 16" d="M1607.214,442.236c-1.568,6.722-7.843,10.979-9.187,20.894-.814,6.012.169,23.023,12.661,28.96,14.4,6.847,29.464,4.93,51.2-.224s31.425-10.7,43.525-12.268a41.083,41.083,0,0,1,4.718-.329,189.384,189.384,0,0,0,60.644,9.908c104.708,0,189.59-84.881,189.59-189.588S1875.481,110,1770.773,110s-189.588,84.882-189.588,189.588a188.688,188.688,0,0,0,26.664,96.984C1610.514,412.995,1608.493,436.755,1607.214,442.236Zm287.179-32.6V422.07h-57.137V409.634h45.766V365.268h11.371Zm-56.8-226.831h56.8V239.94h-12.436V194.174h-44.366Zm-57.977,21.884h90.075v90.075h-90.075Zm0,107.067h43.656v43.656h-43.656Zm-17.346,90.075h-90.075V311.754h90.075Zm0-107.066h-90.075V204.687h90.075Zm-117.187-99.187V183.139h57.137v12.436h-45.766V239.94h-11.371Zm0,169.693h12.436v45.765h44.365V422.4h-56.8Z" transform="translate(-1581.185 -110)" fill="url(#linear-gradient-4)"/>
        <path id="Path_17" data-name="Path 17" d="M1724.56,294.78h-51.086v51.086h51.086Zm-16.581,34.505h-17.924V311.361h17.924Z" transform="translate(-1562.971 -73.532)" fill="url(#linear-gradient-5)"/>
      </g>
    </g>
    <g id="Group_140" data-name="Group 140" transform="translate(-310.815 -4.687)">
      <path id="Path_20" data-name="Path 20" d="M1617.213,469.551a8.046,8.046,0,0,0-1.155-4.242,14.082,14.082,0,0,0-11.2-8.6c-.281-.033-.562-.063-.841-.094a3.191,3.191,0,0,0-.971-.34q-9.588-.051-19.177-.052c-.58,0-1.15.047-1.446.67a.393.393,0,0,0-.368.1,2.789,2.789,0,0,0-2.018,2.928q-.061,15.14.006,30.28a3.653,3.653,0,0,0,3.673,3.706c7.1-.041,14.211.557,21.278-.421,6.784-.938,11.345-6.378,12.215-12.862l.147-1.67a17,17,0,0,0,0-7.73Q1617.282,470.387,1617.213,469.551Zm-6.974,8.679a8.528,8.528,0,0,1-7.744,7.949c-.425.047-.862.065-1.033.571l-.831,0c-.924.689-4.863.916-7.761.679,2.9.237,6.837.009,7.761-.679a57.977,57.977,0,0,0-10.775.008h-.833c-.843.47-1.429.4-1.8-.133.369.535.956.6,1.8.132-.671-.923-1.713-1.487-1.684-2.975.117-5.822.049-11.648.047-17.473,0-1.86.953-2.707,2.778-2.7,3.268.013,6.536-.054,9.8.017,5.57.121,9.745,2.791,10.259,8.228A34.249,34.249,0,0,1,1610.239,478.23Z" transform="translate(-1200 0.058)" fill="#01a8fc"/>
      <path id="Path_21" data-name="Path 21" d="M1771.656,463.921c-5.989-.852-12.089-1.459-18.057.678-2.57.92-5.819,4.842-5.79,7.643.04,3.831-.115,7.657.132,11.5.374,5.786,3.813,9.287,9.631,9.4,1.563.029,3.127,0,4.689,0v.011c1.564,0,3.128,0,4.691,0,2.45-.01,3.131-.621,3.338-3.069a17.873,17.873,0,0,0,0-2.344c-.071-1.474-.618-2.323-2.349-2.258-3.122.117-6.253.051-9.379.013a2.871,2.871,0,0,1-3.115-2.816,69.487,69.487,0,0,1-.006-8.1c.078-1.458.727-2.8,2.547-2.817,3.694-.028,7.39,0,11.085-.008a1.66,1.66,0,0,1,1.578.845c1.039,1.661.1,3.348-2.1,3.425-3.052.1-6.11.036-9.166.037-1.016,0-2.248-.011-2.687.928a7.517,7.517,0,0,0-.134,5.2c.381,1.355,1.953,1.516,3.241,1.539,2.912.052,5.828-.041,8.74.026,5.6.128,11.4-3.734,10.814-11.006C1778.972,467.827,1775.616,464.484,1771.656,463.921Z" transform="translate(-1172.244 1.202)" fill="#01a8fc"/>
      <path id="Path_22" data-name="Path 22" d="M1697.227,464.453a53.438,53.438,0,0,0-14.226-.379c-2.294.165-5.06.162-6.512,2.747l-.112.113c-3.225,1.63-3.626,4.736-3.682,7.751-.148,7.819-.065,15.642-.045,23.464.007,2.835.859,3.549,4.03,3.528,2.751-.019,3.445-.732,3.448-3.614.009-7.466-.012-14.932.016-22.4.012-3.222,1.049-4.241,4.2-4.257q4.587-.023,9.173,0c2.536.012,3.628.974,3.761,3.536a59.48,59.48,0,0,1,.008,6.4c-.18,3.192-1.356,4.226-4.6,4.256-2.63.024-5.262,0-7.892.021-.7.006-1.594-.168-1.972.521-.9,1.648-.552,3.489-.267,5.2.207,1.232,1.615,1.317,2.638,1.343,3.2.079,6.405.154,9.6-.012,4.507-.232,8.558-2.817,9.306-7.989a46,46,0,0,0,.163-11.676C1703.8,468.845,1701.89,465.37,1697.227,464.453Z" transform="translate(-1184.682 1.309)" fill="#01a8fc"/>
      <path id="Path_23" data-name="Path 23" d="M1663.475,463.428a83.255,83.255,0,0,0-12.769.012c-3.468.266-6.731,1.831-8.3,5.083-2.835,5.889-2.268,12.133-.816,18.277a7.772,7.772,0,0,0,5.424,5.771,35.9,35.9,0,0,0,19.039.446,9.958,9.958,0,0,0,7.609-9.632c.01-1.562,0-3.124,0-4.686,0-1.634.015-3.267,0-4.9C1673.6,467.85,1668.764,463.838,1663.475,463.428Zm1.778,18.517c-.024,2.109-1.114,3.365-3.191,3.421-3.266.087-6.537.093-9.8,0-2.038-.059-3.165-1.371-3.192-3.443q-.044-3.3,0-6.606c.034-2.649.826-3.451,3.414-3.494,1.562-.026,3.126,0,4.689,0s3.126-.021,4.687.007c2.513.046,3.351.845,3.393,3.3C1665.292,477.4,1665.279,479.673,1665.254,481.945Z" transform="translate(-1190.011 1.21)" fill="#01a8fc"/>
      <path id="Path_24" data-name="Path 24" d="M1894.342,476.015c-2.912-.059-5.826-.016-8.738-.007-3.819.013-4.007.223-3.6,3.99.037.35.189.69.21,1.04.1,1.7,1.038,2.337,2.664,2.317,3.41-.043,6.822.064,10.229-.048,7.8-.259,11.758-8.023,7.9-14.9a7.375,7.375,0,0,0-4.488-3.671,36.509,36.509,0,0,0-19.088-.015,7.769,7.769,0,0,0-5.554,5.643,30.165,30.165,0,0,0-.112,15.527c.739,3.044,3.623,6.215,6.614,6.731a63.6,63.6,0,0,0,12.315.425c1.809-.04,3.035-.843,2.4-2.988q0-.813.007-1.626c.246-2.52-.1-2.952-2.516-2.973-2.77-.023-5.542,0-8.312-.016-2.627-.019-3.794-1.038-3.913-3.644-.107-2.34-.1-4.692.013-7.031.087-1.774.873-3.286,2.887-3.34,3.761-.1,7.529-.072,11.292.016,1.5.036,2.69.894,2.538,2.509C1896.952,475.4,1895.868,476.047,1894.342,476.015Z" transform="translate(-1151.568 1.256)" fill="#01a8fc"/>
      <path id="Path_25" data-name="Path 25" d="M1640.051,463.31c-3.552.038-7.1-.006-10.656.017a16.563,16.563,0,0,0-6.371,1.019c-4.111,1.653-7.118,5.78-6.982,10.017.081,2.556.015,5.115.015,7.672,0,2.629-.009,5.257,0,7.885.013,2.885,1.123,3.908,4.233,3.925,3.874.022,4.47-.462,4.491-3.834.029-4.76,0-9.519.019-14.279.008-2.48,1.1-3.577,3.606-3.6,2.628-.029,5.257.015,7.885-.016,6.633-.078,6.1,1.224,6.033-6.663C1642.312,463.946,1641.558,463.294,1640.051,463.31Z" transform="translate(-1194.039 1.231)" fill="#01a8fc"/>
      <path id="Path_26" data-name="Path 26" d="M1871.471,464.89c-2.059-.033-4.12.019-6.179-.03-1.588-.038-2.509-.733-2.374-2.516.1-1.341.023-2.7.012-4.046-.015-1.869-1.479-2.192-2.795-2.262-1.83-.1-3.893-.636-5.244,1.273-.209.294-.1.83-.1,1.254-.01,1.35-.035,2.7,0,4.049.044,1.632-.734,2.33-2.335,2.276-1.277-.043-2.561.057-3.834-.02-1.445-.087-2.069.686-2.317,1.947-1,5.088-.1,6.2,5,6.207.142,0,.284,0,.427,0,2.525.01,2.965.375,3.037,2.921s.015,5.114.015,7.671h.007c0,2.415-.013,4.829,0,7.244.019,2.767.81,3.481,3.807,3.492,3.47.012,4.32-.641,4.33-3.41.017-5.184.057-10.37-.014-15.554-.025-1.716.516-2.47,2.314-2.386,2.2.1,4.4.027,6.6.009a2.412,2.412,0,0,0,2.658-2.636q.044-1.278.007-2.557C1874.436,465.7,1873.645,464.924,1871.471,464.89Z" transform="translate(-1156.011 0.004)" fill="#01a8fc"/>
      <path id="Path_27" data-name="Path 27" d="M1742.644,457.173l-7.579,12.74-6.59,11.337c-.9,1.254-1.5,1.263-2.425.259-.373-.406-.714-.84-1.071-1.261l-12.291-21.494c-1.123-1.727-2.24-3.168-4.49-2.795-2.171.359-2.944,1.562-2.949,4.443q-.028,15.214-.009,30.429c0,1.206-.174,2.834,1.309,2.981,1.725.171,3.731,1.14,5.277-.647a.343.343,0,0,0,.093-.313c.96-.556.637-1.5.643-2.3.031-4.751.006-9.5.04-14.255.006-.732-.266-1.558.372-2.181.456.039.618.352.789.664,1.6,2.909,3.107,5.874,4.839,8.7l4.679,7.953a3.809,3.809,0,0,0,3.321,2.923,4.036,4.036,0,0,0,4.021-2.253q4.346-7.534,8.783-15.013c.323-.548.349-1.616,1.333-1.34s.738,1.262.742,2.01c.02,4.194.007,8.39.02,12.584.008,3.076.635,3.673,3.8,3.679,3.628.008,4.014-.311,4.017-3.543q.019-14.716.008-29.432a7.374,7.374,0,0,0-.4-2.721C1747.884,455.621,1744.781,455.045,1742.644,457.173Z" transform="translate(-1179.286 0.001)" fill="#01a8fc"/>
      <path id="Path_28" data-name="Path 28" d="M1844.766,465.852a16.6,16.6,0,0,0-5.107-1.507,63.833,63.833,0,0,0-12.936-.323c-2.57.125-5.874,1.066-7.352,2.3a9.165,9.165,0,0,0-1.979,3.456,28.355,28.355,0,0,0-.4,15.9,8.286,8.286,0,0,0,7.156,6.611c4.923.868,9.92.591,14.845.283,5.844-.365,8.92-4.107,8.976-10.032.029-3.049.142-6.109-.057-9.146C1847.917,473.4,1848.208,468.244,1844.766,465.852Zm-3.887,17c-.466,1.847-1.556,2.94-3.651,2.81-1.625-.1-3.261-.021-4.891-.021v-.008c-1.773,0-3.548.052-5.318-.014-2.168-.082-3.275-1.156-3.338-3.31-.075-2.551-.09-5.108,0-7.658.088-2.587,1.068-3.535,3.719-3.593,3.261-.072,6.524,0,9.786-.028a3.506,3.506,0,0,1,3.88,3.168A23.5,23.5,0,0,1,1840.88,482.85Z" transform="translate(-1160.954 1.32)" fill="#01a8fc"/>
      <path id="Path_29" data-name="Path 29" d="M1815.663,456.576a4.386,4.386,0,0,0-5.317.478l-.058.045a2.927,2.927,0,0,0-.78,2.13c-.037,6.441-.02,12.884-.031,19.325,0,.683.206,1.523-.611,1.881-.859.375-1.224-.491-1.735-.913l-5.39-5.721c-3.644-3.828-7.511-7.438-11.034-11.392-1.712-1.921-3.361-3.985-5.656-5.319l-.057-.049c-1.754-1.572-2.951-1.564-4.511.03l-.037.03c-1.691.549-1.6,2.055-1.6,3.333-.048,10.228-.027,20.454-.031,30.682a2.322,2.322,0,0,0,.762,2.109c1.656,1.2,3.524,1,5.308.547s1.37-2.074,1.41-3.379c.191-6.308-.375-12.63.339-18.929.063-.556-.088-1.234.519-1.527.8-.386,1.08.451,1.52.838l9.581,9.854,12.151,12.614c2.652,2.18,5.519,1.091,6.135-2.233a22.375,22.375,0,0,0,.421-4.212c-.039-9.008-.012-18.015-.028-27.022C1816.924,458.555,1817.146,457.481,1815.663,456.576Z" transform="translate(-1167.115 0)" fill="#01a8fc"/>
    </g>
  </g>
</svg>
