<svg xmlns="http://www.w3.org/2000/svg" width="170" height="170" viewBox="0 0 170 170">
  <g id="Group_164" data-name="Group 164" transform="translate(-455 -3755)">
    <g id="Group_163" data-name="Group 163">
      <path id="Path_145" data-name="Path 145" d="M494.1,3794.1h18.7V3789H489v23.8h5.1Z" fill="#fff"/>
      <path id="Path_146" data-name="Path 146" d="M567.2,3789v5.1h18.7v18.7H591V3789Z" fill="#fff"/>
      <path id="Path_147" data-name="Path 147" d="M494.1,3867.2H489V3891h23.8v-5.1H494.1Z" fill="#fff"/>
      <path id="Path_148" data-name="Path 148" d="M585.9,3885.9H567.2v5.1H591v-23.8h-5.1Z" fill="#fff"/>
      <rect id="Rectangle_151" data-name="Rectangle 151" width="6.8" height="6.8" transform="translate(516.2 3857)" fill="#fff"/>
      <path id="Path_149" data-name="Path 149" d="M502.6,3877.4h34v-34h-34Zm5.1-28.9h23.8v23.8H507.7Z" fill="#fff"/>
      <path id="Path_150" data-name="Path 150" d="M543.4,3843.4h0v20.4h20.4v-20.4H543.4Zm15.3,15.3H548.5v-10.2h10.2Z" fill="#fff"/>
      <rect id="Rectangle_152" data-name="Rectangle 152" width="3.4" height="3.4" transform="translate(551.9 3851.9)" fill="#fff"/>
      <rect id="Rectangle_153" data-name="Rectangle 153" width="6.8" height="6.8" transform="translate(516.2 3816.2)" fill="#fff"/>
      <path id="Path_151" data-name="Path 151" d="M502.6,3836.6h34v-34h-34Zm5.1-28.9h23.8v23.8H507.7Z" fill="#fff"/>
      <rect id="Rectangle_154" data-name="Rectangle 154" width="6.8" height="6.8" transform="translate(557 3816.2)" fill="#fff"/>
      <path id="Path_152" data-name="Path 152" d="M577.4,3802.6h-34v34h34Zm-5.1,28.9H548.5v-23.8h23.8Z" fill="#fff"/>
    </g>
  </g>
</svg>
