<svg xmlns="http://www.w3.org/2000/svg" width="85.039" height="79.37" viewBox="0 0 85.039 79.37">
  <g id="Group_961" data-name="Group 961" transform="translate(-1394.961 -1385.315)">
    <path id="Path_1850" data-name="Path 1850" d="M1402.047,1389.567h15.59v-4.252H1397.8v19.843h4.252Z" fill="#2690d1"/>
    <path id="Path_1851" data-name="Path 1851" d="M1457.323,1385.315v4.252h15.591v15.591h4.252v-19.843Z" fill="#2690d1"/>
    <path id="Path_1852" data-name="Path 1852" d="M1402.047,1444.843H1397.8v19.843h19.842v-4.252h-15.59Z" fill="#2690d1"/>
    <path id="Path_1853" data-name="Path 1853" d="M1472.913,1460.433h-15.591v4.252h19.843v-19.843h-4.252Z" fill="#2690d1"/>
    <g id="Group_960" data-name="Group 960">
      <g id="Group_956" data-name="Group 956">
        <path id="Path_1854" data-name="Path 1854" d="M1443.15,1430.669h0v17.008h17.008v-17.008H1443.15Zm12.755,12.756h-8.5v-8.5h8.5Z" fill="#2690d1"/>
        <rect id="Rectangle_704" data-name="Rectangle 704" width="2.835" height="2.835" transform="translate(1450.236 1437.756)" fill="#2690d1"/>
      </g>
      <g id="Group_957" data-name="Group 957">
        <rect id="Rectangle_705" data-name="Rectangle 705" width="5.669" height="5.669" transform="translate(1416.22 1403.74)" fill="#2690d1"/>
        <path id="Path_1855" data-name="Path 1855" d="M1406.3,1393.819v25.512h25.512v-25.512Zm21.26,21.26h-17.008v-17.008h17.008Z" fill="#2690d1"/>
      </g>
      <g id="Group_958" data-name="Group 958">
        <rect id="Rectangle_706" data-name="Rectangle 706" width="5.669" height="5.669" transform="translate(1453.071 1403.74)" fill="#2690d1"/>
        <path id="Path_1856" data-name="Path 1856" d="M1443.15,1393.819v25.512h25.511v-25.512Zm21.259,21.26H1447.4v-17.008h17.007Z" fill="#2690d1"/>
      </g>
      <g id="Group_959" data-name="Group 959">
        <rect id="Rectangle_707" data-name="Rectangle 707" width="5.669" height="5.669" transform="translate(1416.22 1440.591)" fill="#2690d1"/>
        <path id="Path_1857" data-name="Path 1857" d="M1406.3,1430.669v25.512h25.512v-25.512Zm21.26,21.26h-17.008v-17.008h17.008Z" fill="#2690d1"/>
      </g>
    </g>
    <rect id="Rectangle_708" data-name="Rectangle 708" width="85.039" height="4.252" transform="translate(1394.961 1422.874)" fill="#2690d1"/>
  </g>
</svg>
