<svg xmlns="http://www.w3.org/2000/svg" width="27.456" height="50" viewBox="0 0 27.456 50">
  <path id="Path_25" data-name="Path 25" d="M2526.013,1798.557l.8.8a2.182,2.182,0,0,0,0-3.087l-21.8-21.8-.528.528h.747a.751.751,0,0,0-.218-.528l-.529.528h0l.528.53a.75.75,0,0,0,.22-.53h-.748l.528.53,21.8-21.8a2.184,2.184,0,1,0-3.089-3.087l-23.281,23.281a1.526,1.526,0,0,0,0,2.158l23.282,23.282a2.183,2.183,0,0,0,3.087,0l-.8-.8-.8-.8.063.063v-.089l-.063.026.063.063v0l.063-.064-.063-.026v.09l.063-.064-23.282-23.281-.529.528h.748a.747.747,0,0,0-.219-.528l-.529.528h0l.528.528a.748.748,0,0,0,.219-.528h-.747l.528.528,23.282-23.281-.063-.064v.09l.063-.027-.063-.063v0l-.064.063.064.027v-.09l-.064.063.065-.063h-.091l.027.064.064-.064h0l-.064-.063-.026.063h.09l-.064-.063-21.8,21.8h0a1.523,1.523,0,0,0,0,2.158l21.8,21.8.064-.063h-.091l.027.064.064-.064h0l-.063-.063-.026.063h.089l-.063-.063Z" transform="translate(-2500 -1750)" fill="#262525"/>
</svg>
