<svg xmlns="http://www.w3.org/2000/svg" width="120" height="102.269" viewBox="0 0 120 102.269">
  <g id="Group_1175" data-name="Group 1175" transform="translate(-4990 -968.866)">
    <path id="Path_4540" data-name="Path 4540" d="M5093.057,1034.322c0,3.919-.016,7.653.007,11.387.011,1.788.07,3.577.155,5.363a2.634,2.634,0,0,1-1.24,2.715,2.747,2.747,0,0,1-3.069-.451q-4.677-3.309-9.353-6.621c-5.4-3.832-10.765-7.721-16.236-11.452a6.691,6.691,0,0,0-3.558-.9c-11.3-.066-22.6-.025-33.906-.046a13.756,13.756,0,0,1-13.776-10.995,15.129,15.129,0,0,1-.306-3.146q-.031-18.6-.01-37.2a13.869,13.869,0,0,1,14.154-14.107q34.882,0,69.764,0a13.872,13.872,0,0,1,14.311,14.317q.012,18.416,0,36.833c0,8.3-6,14.286-14.305,14.3C5094.761,1034.324,5093.833,1034.322,5093.057,1034.322Zm-32.326-22.741a10.351,10.351,0,0,0,10.509-10.379,10.491,10.491,0,1,0-10.509,10.379Zm26.736,0a10.4,10.4,0,0,0,10.528-10.5,10.49,10.49,0,1,0-20.98.024A10.483,10.483,0,0,0,5087.467,1011.582Zm-53.47,0a10.342,10.342,0,0,0,10.5-10.382,10.49,10.49,0,1,0-10.5,10.382Z" fill="#fff"/>
    <path id="Path_4541" data-name="Path 4541" d="M5004.271,1055.17a39.018,39.018,0,0,1-4.784-.358,11.575,11.575,0,0,1-9.448-11.438q-.069-15.554,0-31.105a11.7,11.7,0,0,1,11.775-11.672c1.616-.016,3.232,0,4.983,0v1.43c0,6.1-.013,12.2,0,18.3a18.829,18.829,0,0,0,19.036,19.025q16.65.013,33.3-.015a5.423,5.423,0,0,1,3.47,1.1c2.8,2.088,5.685,4.059,8.64,6.151a11.666,11.666,0,0,1-8.527,7.89,14.042,14.042,0,0,1-3.383.319q-13.539.038-27.079,0a6.447,6.447,0,0,0-3.963,1.275q-9.99,7.2-20.034,14.325c-1.637,1.167-3.154.946-3.893-.613a4.15,4.15,0,0,1-.3-1.769c.042-3.944.126-7.887.194-11.83C5004.276,1055.866,5004.271,1055.549,5004.271,1055.17Z" fill="#fff"/>
    <path id="Path_4542" data-name="Path 4542" d="M5060.783,995.133a5.986,5.986,0,0,1,5.979,5.945,6,6,0,1,1-12.007.064A5.968,5.968,0,0,1,5060.783,995.133Z" fill="#fff"/>
    <path id="Path_4543" data-name="Path 4543" d="M5093.465,1001.073a5.988,5.988,0,1,1-5.955-5.939A5.925,5.925,0,0,1,5093.465,1001.073Z" fill="#fff"/>
    <path id="Path_4544" data-name="Path 4544" d="M5028.037,1001.148a5.986,5.986,0,0,1,11.972-.074,5.986,5.986,0,1,1-11.972.074Z" fill="#fff"/>
  </g>
</svg>
