<svg xmlns="http://www.w3.org/2000/svg" width="320" height="386.299" viewBox="0 0 320 386.299">
  <g id="Group_133" data-name="Group 133" transform="translate(-380 -110)">
    <path id="Path_215" data-name="Path 215" d="M411.931,467.659a6.9,6.9,0,0,0-.991-3.64,12.084,12.084,0,0,0-9.612-7.38l-.722-.081a2.74,2.74,0,0,0-.833-.292q-8.228-.043-16.455-.045c-.5,0-.987.04-1.241.575a.337.337,0,0,0-.316.086,2.393,2.393,0,0,0-1.732,2.512q-.053,12.991.005,25.982a3.134,3.134,0,0,0,3.152,3.18c6.088-.035,12.194.478,18.258-.361,5.821-.8,9.735-5.473,10.481-11.036l.126-1.433a14.584,14.584,0,0,0,0-6.633Q411.991,468.376,411.931,467.659Zm-5.984,7.447a7.318,7.318,0,0,1-6.645,6.821c-.365.04-.74.056-.886.49l-.713,0c-.793.591-4.173.786-6.659.583,2.486.2,5.866.008,6.659-.583a49.752,49.752,0,0,0-9.246.007h-.715c-.723.4-1.226.345-1.543-.114.317.459.82.517,1.543.113-.576-.792-1.47-1.276-1.445-2.553.1-5,.042-9.995.04-14.993,0-1.6.818-2.323,2.384-2.317,2.8.011,5.608-.046,8.411.015,4.779.1,8.362,2.395,8.8,7.06A29.388,29.388,0,0,1,405.947,475.106Z" fill="#fff"/>
    <path id="Path_216" data-name="Path 216" d="M568.27,463.81c-5.139-.731-10.373-1.252-15.494.582-2.205.789-4.993,4.155-4.968,6.558.034,3.287-.1,6.57.113,9.864.321,4.965,3.272,7.969,8.264,8.064,1.341.025,2.683,0,4.024,0v.009c1.342,0,2.684,0,4.025,0,2.1-.009,2.687-.533,2.864-2.633a15.342,15.342,0,0,0,0-2.011c-.061-1.265-.53-1.993-2.016-1.938-2.679.1-5.365.044-8.048.011a2.464,2.464,0,0,1-2.673-2.416,59.627,59.627,0,0,1-.005-6.947c.067-1.251.624-2.4,2.186-2.417,3.17-.024,6.341,0,9.512-.007a1.425,1.425,0,0,1,1.354.725c.892,1.425.09,2.873-1.8,2.939-2.619.09-5.243.031-7.865.032-.872,0-1.929-.009-2.306.8a6.452,6.452,0,0,0-.115,4.46c.327,1.163,1.676,1.3,2.781,1.321,2.5.045,5-.035,7.5.022,4.8.11,9.78-3.2,9.279-9.444A7.95,7.95,0,0,0,568.27,463.81Z" fill="#fff"/>
    <path id="Path_217" data-name="Path 217" d="M493.733,464.358a45.854,45.854,0,0,0-12.207-.325c-1.968.142-4.342.139-5.588,2.357l-.1.1c-2.767,1.4-3.111,4.064-3.159,6.651-.127,6.709-.056,13.422-.039,20.134.006,2.433.737,3.045,3.458,3.027,2.361-.016,2.956-.628,2.959-3.1.008-6.406-.01-12.813.014-19.219.01-2.765.9-3.639,3.6-3.653q3.936-.02,7.871,0c2.176.01,3.113.836,3.227,3.034a51.028,51.028,0,0,1,.007,5.489c-.154,2.739-1.163,3.626-3.943,3.652-2.257.021-4.515,0-6.772.018-.6.005-1.368-.144-1.692.447-.775,1.414-.474,2.994-.229,4.458.178,1.057,1.386,1.13,2.264,1.152,2.743.068,5.5.132,8.234-.01,3.867-.2,7.343-2.417,7.985-6.855a39.473,39.473,0,0,0,.14-10.019C499.376,468.127,497.734,465.145,493.733,464.358Z" fill="#fff"/>
    <path id="Path_218" data-name="Path 218" d="M460.2,463.394a71.439,71.439,0,0,0-10.957.01c-2.976.228-5.776,1.571-7.12,4.362-2.433,5.053-1.946,10.411-.7,15.683a6.668,6.668,0,0,0,4.654,4.952,30.806,30.806,0,0,0,16.337.383,8.545,8.545,0,0,0,6.529-8.265c.009-1.34,0-2.681,0-4.021,0-1.4.013-2.8,0-4.2A9.167,9.167,0,0,0,460.2,463.394Zm1.526,15.889a2.623,2.623,0,0,1-2.738,2.935c-2.8.075-5.609.08-8.41,0a2.674,2.674,0,0,1-2.739-2.954q-.038-2.834,0-5.668c.029-2.273.709-2.961,2.93-3,1.34-.022,2.682,0,4.023,0s2.682-.018,4.022.006c2.156.039,2.875.725,2.911,2.833C461.758,475.382,461.747,477.333,461.725,479.283Z" fill="#fff"/>
    <path id="Path_219" data-name="Path 219" d="M691.284,474.233c-2.5-.051-5-.014-7.5-.006-3.277.011-3.438.191-3.089,3.424.032.3.162.592.18.892.084,1.455.891,2.005,2.286,1.988,2.926-.037,5.854.055,8.777-.041,6.694-.222,10.089-6.884,6.776-12.782a6.33,6.33,0,0,0-3.851-3.15,31.327,31.327,0,0,0-16.379-.013,6.667,6.667,0,0,0-4.766,4.842,25.881,25.881,0,0,0-.1,13.323c.634,2.612,3.109,5.333,5.675,5.776a54.574,54.574,0,0,0,10.567.365c1.552-.034,2.6-.723,2.061-2.564q0-.7.006-1.395c.211-2.162-.089-2.533-2.159-2.551-2.377-.02-4.755,0-7.132-.014-2.254-.016-3.255-.891-3.358-3.127-.092-2.008-.088-4.026.011-6.033.075-1.522.749-2.82,2.477-2.866,3.227-.086,6.46-.062,9.689.014,1.288.031,2.308.767,2.178,2.153C693.524,473.7,692.594,474.261,691.284,474.233Z" fill="#fff"/>
    <path id="Path_220" data-name="Path 220" d="M436.642,463.31c-3.048.033-6.1-.005-9.144.015a14.211,14.211,0,0,0-5.467.874,9.389,9.389,0,0,0-5.991,8.6c.07,2.193.013,4.389.013,6.583,0,2.256-.008,4.511,0,6.766.011,2.476.964,3.353,3.632,3.368,3.324.019,3.836-.4,3.854-3.29.025-4.084,0-8.168.016-12.252.007-2.128.944-3.069,3.094-3.093,2.255-.025,4.511.013,6.766-.014,5.692-.067,5.232,1.05,5.177-5.717C438.582,463.856,437.935,463.3,436.642,463.31Z" fill="#fff"/>
    <path id="Path_221" data-name="Path 221" d="M667.847,463.613c-1.767-.028-3.535.016-5.3-.026-1.363-.033-2.153-.629-2.037-2.159.087-1.151.02-2.314.01-3.472-.013-1.6-1.269-1.881-2.4-1.941-1.57-.083-3.34-.546-4.5,1.092-.179.252-.083.712-.086,1.076-.009,1.158-.03,2.317,0,3.474.038,1.4-.63,2-2,1.953-1.1-.037-2.2.049-3.29-.017-1.24-.075-1.775.589-1.988,1.671-.862,4.366-.09,5.322,4.289,5.326.122,0,.244,0,.366,0,2.167.009,2.544.322,2.606,2.506s.013,4.388.013,6.582h.006c0,2.072-.011,4.144,0,6.216.016,2.374.7,2.987,3.267,3,2.977.01,3.707-.55,3.715-2.926.015-4.448.049-8.9-.012-13.346-.021-1.472.443-2.119,1.986-2.047,1.885.09,3.778.023,5.667.008a2.07,2.07,0,0,0,2.281-2.262q.038-1.1.006-2.194C670.391,464.306,669.713,463.642,667.847,463.613Z" fill="#fff"/>
    <path id="Path_222" data-name="Path 222" d="M537.334,456.989l-6.5,10.932-5.655,9.728c-.773,1.076-1.29,1.084-2.081.222-.32-.348-.613-.721-.919-1.082L511.63,458.346c-.964-1.482-1.922-2.718-3.853-2.4-1.863.308-2.526,1.34-2.531,3.812q-.024,13.055-.008,26.11c0,1.035-.149,2.432,1.123,2.558,1.48.147,3.2.978,4.528-.555a.294.294,0,0,0,.08-.269c.824-.477.547-1.289.552-1.976.027-4.077.005-8.155.034-12.232.005-.628-.228-1.337.319-1.871.391.033.53.3.677.57,1.372,2.5,2.666,5.04,4.152,7.466l4.015,6.824a3.269,3.269,0,0,0,2.85,2.508,3.463,3.463,0,0,0,3.45-1.933q3.729-6.465,7.536-12.882c.277-.47.3-1.387,1.144-1.15s.633,1.083.637,1.725c.017,3.6.006,7.2.017,10.8.007,2.639.545,3.152,3.26,3.157,3.113.007,3.444-.267,3.447-3.04q.016-12.627.007-25.255a6.324,6.324,0,0,0-.339-2.335A3.155,3.155,0,0,0,537.334,456.989Z" fill="#fff"/>
    <path id="Path_223" data-name="Path 223" d="M640.691,465.568a14.244,14.244,0,0,0-4.382-1.293,54.771,54.771,0,0,0-11.1-.277c-2.2.107-5.04.915-6.309,1.974a7.866,7.866,0,0,0-1.7,2.965,24.332,24.332,0,0,0-.339,13.647,7.11,7.11,0,0,0,6.14,5.673,53.818,53.818,0,0,0,12.738.243c5.015-.313,7.654-3.524,7.7-8.608.025-2.616.122-5.242-.049-7.848C643.394,472.044,643.644,467.62,640.691,465.568Zm-3.335,14.585a2.782,2.782,0,0,1-3.133,2.411c-1.394-.087-2.8-.018-4.2-.018v-.007c-1.521,0-3.044.045-4.563-.012a2.615,2.615,0,0,1-2.864-2.84c-.064-2.189-.077-4.383,0-6.571.075-2.22.916-3.033,3.191-3.083,2.8-.062,5.6,0,8.4-.024a3.009,3.009,0,0,1,3.329,2.718A20.166,20.166,0,0,1,637.356,480.153Z" fill="#fff"/>
    <path id="Path_224" data-name="Path 224" d="M610.432,456.476a3.764,3.764,0,0,0-4.562.41l-.05.039a2.512,2.512,0,0,0-.669,1.828c-.032,5.527-.017,11.055-.027,16.582,0,.586.177,1.307-.524,1.614-.737.322-1.05-.421-1.489-.783l-4.625-4.909c-3.127-3.285-6.445-6.382-9.468-9.775a21,21,0,0,0-4.853-4.564l-.049-.042c-1.505-1.349-2.532-1.342-3.871.026l-.032.026c-1.451.471-1.371,1.763-1.377,2.86-.041,8.776-.023,17.551-.027,26.327a1.992,1.992,0,0,0,.654,1.81,5.182,5.182,0,0,0,4.555.469c1.53-.386,1.176-1.78,1.21-2.9.164-5.413-.322-10.837.291-16.242.054-.477-.075-1.059.445-1.31.689-.331.927.387,1.3.719l8.221,8.455,10.426,10.824c2.276,1.871,4.736.936,5.264-1.916a19.194,19.194,0,0,0,.361-3.614c-.033-7.729-.01-15.458-.024-23.187C611.514,458.174,611.7,457.252,610.432,456.476Z" fill="#fff"/>
    <path id="Path_225" data-name="Path 225" d="M516.14,205.361H473.474v42.666H516.14Zm-13.848,28.818h-14.97v-14.97h14.97Z" fill="#fff"/>
    <path id="Path_226" data-name="Path 226" d="M563.189,248.027h42.667V205.361H563.189Zm13.848-28.818h14.971v14.97H577.037Z" fill="#fff"/>
    <path id="Path_227" data-name="Path 227" d="M554.8,307.068h20.679V286.39H554.8Zm6.712-13.967h7.255v7.256h-7.255Z" fill="#fff"/>
    <path id="Path_228" data-name="Path 228" d="M402.924,387.474c-1.31,5.614-6.55,9.169-7.673,17.45-.68,5.021.141,19.228,10.574,24.187,12.029,5.718,24.608,4.117,42.76-.187s26.245-8.936,36.351-10.246a34.315,34.315,0,0,1,3.94-.275,158.376,158.376,0,1,0-85.422-69.066C405.68,363.053,403.992,382.9,402.924,387.474Zm239.844-27.228v10.386H595.049V360.246h38.222V323.193h9.5ZM595.329,170.8h47.439v47.719H632.382V180.3H595.329ZM546.908,189.08h75.228v75.228H546.908Zm0,89.419h36.46v36.46h-36.46Zm-14.487,75.228H457.193V278.5h75.228Zm0-89.419H457.193V189.08h75.228ZM434.55,181.47V171.084h47.719V181.47H444.047v37.052h-9.5Zm0,141.723h10.386v38.222h37.052v9.5H434.55Z" fill="#fff"/>
    <path id="Path_229" data-name="Path 229" d="M516.14,294.78H473.474v42.666H516.14ZM502.292,323.6h-14.97v-14.97h14.97Z" fill="#fff"/>
  </g>
</svg>
