<svg xmlns="http://www.w3.org/2000/svg" width="26.751" height="31.277" viewBox="0 0 26.751 31.277">
  <g id="Group_2" data-name="Group 2" transform="translate(-370.694 -193.576)">
    <g id="Group_29" data-name="Group 29" transform="translate(370.694 193.576)">
      <path id="Path_80" data-name="Path 80" d="M1772.172,597.3a1.732,1.732,0,0,0-1.4-.85H1747.98c-1.094,0-1.98,1.3-1.98,2.9v17.176c0,1.6.886,2.9,1.979,2.9h7.574v8.293l3.05-2.835,1.162-1.08,4.71-4.377h6.3c1.094,0,1.98-1.3,1.979-2.9V599.351A3.693,3.693,0,0,0,1772.172,597.3Zm-.579,19.229c0,.665-.367,1.2-.82,1.2h-6.633l-1.83,1.7-2.544,2.364-1.162,1.08-1.891,1.758v-6.9h-8.733c-.453,0-.82-.539-.82-1.2V599.351c0-.664.367-1.2.82-1.2h22.792c.453,0,.82.539.82,1.2Z" transform="translate(-1746 -596.448)"/>
      <path id="Path_81" data-name="Path 81" d="M1772.309,622.444H1763.3v1.7h19.395v-1.7h-10.386Z" transform="translate(-1759.622 -616.917)"/>
      <path id="Path_82" data-name="Path 82" d="M1773.24,649.089h-9.94v1.7h18.545v-1.7h-8.605Z" transform="translate(-1759.622 -637.897)"/>
      <rect id="Rectangle_10" data-name="Rectangle 10" width="1.701" height="1.701" transform="translate(21.372 11.192)"/>
      <path id="Path_83" data-name="Path 83" d="M1834.3,675.735v1.7h1.7v-1.7Z" transform="translate(-1821.775 -658.878)"/>
      <rect id="Rectangle_11" data-name="Rectangle 11" width="1.701" height="1.701" transform="translate(7.472 16.856)"/>
      <rect id="Rectangle_12" data-name="Rectangle 12" width="1.701" height="1.701" transform="translate(17.578 16.856)"/>
    </g>
  </g>
</svg>
