<svg xmlns="http://www.w3.org/2000/svg" width="75" height="90" viewBox="0 0 75 90">
  <g id="Group_94" data-name="Group 94" transform="translate(-438.72 -1048.789)">
    <path id="Path_114" data-name="Path 114" d="M494.22,1117.256v5.679h-51v-25.4h0v-32.9h51v5.481a13.767,13.767,0,0,1,4.5-.033v-10.8a10.5,10.5,0,0,0-10.5-10.5h-39c-.327,0-.649.019-.968.048-.105.01-.209.025-.313.037-.213.027-.425.058-.634.1-.119.022-.238.045-.356.07-.2.044-.392.1-.586.151-.112.032-.225.059-.335.094-.265.085-.524.18-.779.285-.154.063-.3.135-.454.2-.116.055-.232.109-.346.167-.161.082-.318.168-.474.258-.092.053-.181.109-.271.165-.164.1-.328.2-.486.313h0a10.587,10.587,0,0,0-.914.721c-.047.041-.092.083-.137.125-.249.226-.485.462-.711.71-.047.052-.094.1-.14.155a10.435,10.435,0,0,0-.672.851c-.018.025-.037.048-.055.073a10.443,10.443,0,0,0-.636,1.038c-.008.014-.014.029-.021.044a10.38,10.38,0,0,0-.459,1c-.041.1-.076.207-.114.311-.1.263-.182.529-.256.8-.035.126-.068.253-.1.381-.064.272-.114.548-.156.827-.018.12-.041.239-.055.361a10.562,10.562,0,0,0-.076,1.213h0v69a10.5,10.5,0,0,0,10.5,10.5h39c.326,0,.648-.02.967-.049.106-.01.209-.025.313-.037.214-.027.425-.058.635-.1.119-.022.237-.044.355-.07.2-.044.392-.1.586-.151.112-.032.225-.059.336-.094q.4-.127.778-.285c.154-.063.3-.135.454-.2.116-.054.232-.108.346-.167.161-.082.318-.168.474-.258.092-.053.182-.109.271-.165.165-.1.328-.2.486-.313h0a10.244,10.244,0,0,0,.913-.721c.047-.041.092-.083.138-.125q.372-.337.71-.71c.047-.052.1-.1.141-.155a10.437,10.437,0,0,0,.672-.851c.017-.025.037-.048.054-.073a10.255,10.255,0,0,0,.636-1.038c.008-.014.014-.029.022-.044a10.637,10.637,0,0,0,.459-1c.041-.1.076-.207.114-.311.1-.263.181-.529.256-.8.034-.126.067-.253.1-.381.063-.272.113-.547.155-.827.019-.12.042-.239.056-.361a10.542,10.542,0,0,0,.075-1.213h0V1117.2a6.167,6.167,0,0,1-4.5.051Zm-43.539-63.967h36.078a7.457,7.457,0,0,1,7.431,6.853H443.251A7.457,7.457,0,0,1,450.681,1053.289Zm36.078,81H450.681a7.458,7.458,0,0,1-7.43-6.854h50.938A7.457,7.457,0,0,1,486.759,1134.289Z"/>
    <g id="Group_93" data-name="Group 93">
      <path id="Path_115" data-name="Path 115" d="M512.493,1105.571a21.282,21.282,0,0,1-.977-3.2,35.441,35.441,0,0,1-.752-7.559c0-1.383-.046-2.995-.092-4.416s-.09-2.662-.09-3.171l0-.116.011-.083v-.161a14.023,14.023,0,0,0-10.065-13.375h0a14.323,14.323,0,0,0-1.808-.4,13.995,13.995,0,0,0-12.063,3.938h0a13.98,13.98,0,0,0-4.106,9.842v.148l.01.08v.222c0,.514-.022,1.534-.045,2.652s-.047,2.353-.047,3.37a41.97,41.97,0,0,1-.926,7.608,29.91,29.91,0,0,1-1.319,4.661l-1.144,3.041H513.72Zm-13.773-1.417H485.408c.212-.784.4-1.561.549-2.324a46.065,46.065,0,0,0,1.013-8.487c0-.951.023-2.164.046-3.278s.046-2.126.046-2.744c0-.123,0-.231,0-.335,0-.05,0-.094-.006-.143a9.52,9.52,0,0,1,6.558-8.951c.2-.066.4-.121.609-.174a9.1,9.1,0,0,1,4.5-.029c.18.042.365.067.541.119a9.516,9.516,0,0,1,6.83,9.028l0,.1c0,.1,0,.188-.005.289,0,.693.047,1.9.093,3.316s.089,2.986.089,4.272a39.8,39.8,0,0,0,.86,8.538v0c.06.267.143.533.211.8Z"/>
      <path id="Path_116" data-name="Path 116" d="M494.22,1110.184h-3.786a6.216,6.216,0,0,0,11.933,0H494.22Z"/>
    </g>
  </g>
</svg>
