<svg xmlns="http://www.w3.org/2000/svg" width="27.235" height="51.076" viewBox="0 0 27.235 51.076">
  <g id="Group_1055" data-name="Group 1055" transform="translate(-354.838 -331.488)">
    <path id="Path_2944" data-name="Path 2944" d="M360.5,341.108v20.271l-.656.393a1.443,1.443,0,0,0-.7,1.239v17.4a2.152,2.152,0,0,1-2.152,2.153h0a2.153,2.153,0,0,1-2.154-2.153V357.859c0-.044,0-3.058,0-3.1s0-.092,0-.139V338.784a9.677,9.677,0,0,1,.786-3.811,32.88,32.88,0,0,1,1.717-3.485C360.085,334.235,360.5,338.574,360.5,341.108Z" fill="#409FD8"/>
    <g id="Group_1054" data-name="Group 1054">
      <path id="Path_2945" data-name="Path 2945" d="M382.067,346.186l0-.02c-.037-2.411-.175-10.828-.226-11.369-.063-.625-.385-3-.869-3h-.076c-.484,0-.564,1.842-.564,2.077V344.7a.739.739,0,0,1-.693.778.656.656,0,0,1-.486-.226.821.821,0,0,1-.2-.552l-.1-9.427a15.783,15.783,0,0,0-.178-2.287c-.115-.75-.292-1.5-.533-1.5h-.078c-.221,0-.4.63-.537,1.313a14.144,14.144,0,0,0-.253,2.606l-.089,9.021a.74.74,0,0,1-.69.781.65.65,0,0,1-.49-.23.836.836,0,0,1-.2-.551l-.089-9.153a15.783,15.783,0,0,0-.178-2.287c-.116-.75-.292-1.5-.534-1.5h-.077c-.221,0-.4.63-.537,1.313a14.147,14.147,0,0,0-.253,2.606l-.1,9.3a.738.738,0,0,1-.691.778.722.722,0,0,1-.69-.778V333.875c0-.235-.082-2.077-.563-2.077h-.079c-.481,0-.81,2.368-.872,3-.051.535-.184,8.817-.223,11.307a1.22,1.22,0,0,0-.012.147v.079c0,.062,0,.127,0,.19v.022a5.653,5.653,0,0,0,2.674,4.575l2.909,1.783,2.906-1.78a5.576,5.576,0,0,0,2.608-3.933l0-.011a5.287,5.287,0,0,0,.06-.631v-.023c0-.073,0-.15,0-.223v-.014C382.07,346.251,382.07,346.217,382.067,346.186Z" fill="#409FD8"/>
      <path id="Path_2946" data-name="Path 2946" d="M378.075,346.851h-3.461c-.127,15.758-.685,26.8-.52,33.339a2.345,2.345,0,0,0,2.25,2.374h0a2.346,2.346,0,0,0,2.251-2.374C378.76,373.65,378.2,362.609,378.075,346.851Z" fill="#409FD8"/>
    </g>
  </g>
</svg>
