<svg xmlns="http://www.w3.org/2000/svg" width="64.856" height="90" viewBox="0 0 64.856 90">
  <g id="Group_128" data-name="Group 128" transform="translate(-598.072 -174)">
    <g id="Group_127" data-name="Group 127" transform="translate(-109 -206)">
      <path id="Path_165" data-name="Path 165" d="M749.986,428.191c-.084,0-.191.013-.3.013-4.8.01-9.593-.022-14.38-.363a87.183,87.183,0,0,1-11.468-1.534.649.649,0,0,1-.546-.485c-.4-1.064-.833-2.115-1.288-3.157q-1.016-2.326-2.085-4.629a2.755,2.755,0,0,0-.65-.861,9.349,9.349,0,0,1-3.365-7.285,20.111,20.111,0,0,0-1.011-5.7c-.591-2.027-1.248-4.037-1.776-6.08a4.6,4.6,0,0,1,3.02-5.73c2.423-.857,4.9-1.558,7.354-2.333,1.33-.419,2.655-.852,3.984-1.275a1.371,1.371,0,0,0,1.03-1.308q.177-2.1.382-4.208a2.608,2.608,0,0,1,2.047-2.436,21.181,21.181,0,0,1,11.632-.012,2.684,2.684,0,0,1,2.1,2.578c.108,1.214.233,2.426.319,3.642s.286,1.5,1.468,1.87c3.551,1.117,7.107,2.219,10.652,3.357a4.63,4.63,0,0,1,3.387,3.648,6.13,6.13,0,0,1-.269,3c-.678,2.269-1.356,4.539-2,6.819a15.6,15.6,0,0,0-.592,4.213,9.366,9.366,0,0,1-3.252,7.134,3.751,3.751,0,0,0-.851,1.156c-.953,2.065-1.888,4.14-2.774,6.235A16.092,16.092,0,0,0,750,426.94,5.632,5.632,0,0,0,749.986,428.191Z" fill="#404041"/>
      <path id="Path_166" data-name="Path 166" d="M755.111,437.336c.45,1.324.915,2.594,1.313,3.885a48.291,48.291,0,0,1,1.952,9.371c.14,1.392.167,2.795.261,4.192.091,1.365.2,2.729.3,4.093a4.879,4.879,0,0,1-.331,2.509,4.219,4.219,0,0,1-3.809,2.554c-4.976.3-9.954.567-14.931.845-.909.05-1.1.273-1.087,1.172.019,1.338.005,2.676.005,4.043h-4.021c-.009-.155-.024-.3-.024-.442q.006-1.85.018-3.7c.007-.785-.2-1.025-.985-1.067-3.3-.178-6.6-.338-9.9-.525-1.866-.106-3.736-.191-5.592-.393a4.1,4.1,0,0,1-3.687-4.246c.076-2.1.289-4.188.446-6.282.048-.635.119-1.268.168-1.9q.1-1.361.186-2.723a.333.333,0,0,1,.335-.366,134.809,134.809,0,0,0,14.925-3.189c5.169-1.268,10.336-2.552,15.361-4.315,2.937-1.029,5.811-2.233,8.714-3.359C754.827,437.453,754.926,437.411,755.111,437.336Z" fill="#404041"/>
      <path id="Path_167" data-name="Path 167" d="M707.072,445.733l.274-4.341a1.343,1.343,0,0,1,.256-.04,43.813,43.813,0,0,0,11.5-1.067c6.371-1.357,12.681-2.968,18.961-4.7a.418.418,0,0,0,.232-.157c-.133-.011-.265-.025-.4-.032a101.081,101.081,0,0,1-13.924-1.534,29.549,29.549,0,0,1-7.423-2.175,11.817,11.817,0,0,1-3.651-2.535,6.088,6.088,0,0,1-1.642-6.127,4.3,4.3,0,0,1,.225-.61c1.049-2.312,3.006-3.657,5.154-4.877l2.152,3.831a11.472,11.472,0,0,0-1.026.644,15.171,15.171,0,0,0-1.8,1.509,1.57,1.57,0,0,0,.018,2.446,7.318,7.318,0,0,0,1.474,1.2,16.757,16.757,0,0,0,5.391,1.972,86.449,86.449,0,0,0,12.065,1.662c5.126.378,10.259.4,15.394.394a1.321,1.321,0,0,0,.515-.076,31.576,31.576,0,0,0,5.558-2.85,17.631,17.631,0,0,0,2.472-2.091,5.456,5.456,0,0,0,.987-1.654,1.2,1.2,0,0,0-.4-1.469,10.576,10.576,0,0,0-1.783-1.1,17.849,17.849,0,0,0-1.857-.676l1.18-4.231c.6.2,1.171.364,1.728.563a11.083,11.083,0,0,1,3.176,1.694,5.978,5.978,0,0,1,1.834,7.461,10.868,10.868,0,0,1-2.952,3.731,4.28,4.28,0,0,0-.531.509,40.992,40.992,0,0,0,10.378-1.663l1.314,4.208c-.463.135-.9.272-1.337.39a49.516,49.516,0,0,1-11.325,1.57c-2.437.075-4.876.068-7.315.1a1.762,1.762,0,0,0-.633.1,113.866,113.866,0,0,1-15.669,5.1c-5.249,1.328-10.511,2.614-15.791,3.813a47.145,47.145,0,0,1-11.087,1.184C708.219,445.8,707.669,445.76,707.072,445.733Z" fill="#404041"/>
    </g>
  </g>
</svg>
