<svg xmlns="http://www.w3.org/2000/svg" width="90" height="89.988" viewBox="0 0 90 89.988">
  <g id="Group_125" data-name="Group 125" transform="translate(-587 -125.006)">
    <g id="Group_124" data-name="Group 124" transform="translate(-303 -255)">
      <path id="Path_164" data-name="Path 164" d="M951,445.255c-1.914,0-3.98-.167-6.009.034-4.279.423-8.139,5.812-5.042,10.541a7.454,7.454,0,0,0,.913,1.335c2.664,2.577,2.685,7.8-.777,10.82a7.831,7.831,0,0,1-5.38,2.009A45,45,0,0,1,924.4,381.258c15.9-3.773,34.609.984,46.16,14.255a37.126,37.126,0,0,1,9.427,23.618,24.857,24.857,0,0,1-21.894,25.826C955.793,445.234,953.455,445.161,951,445.255Zm18.4-27.693a7.116,7.116,0,1,0-7.067,7.1A7.266,7.266,0,0,0,969.4,417.562Zm-14.9-19.786a7.1,7.1,0,1,0-7.126,7.058A7.268,7.268,0,0,0,954.492,397.776Zm-46.758,12.693a7.1,7.1,0,1,0,7.094,7.093A7.276,7.276,0,0,0,907.734,410.469Zm7.765-12.733a7.1,7.1,0,1,0,7.067-7.1A7.3,7.3,0,0,0,915.5,397.736Z" fill="#404041"/>
    </g>
  </g>
</svg>
