<svg xmlns="http://www.w3.org/2000/svg" width="44.91" height="32.256" viewBox="0 0 44.91 32.256">
  <path id="path6269-5" d="M479.347,258a13.123,13.123,0,0,1,6.6,1.576,13.907,13.907,0,0,0-7.754,2.41,37.807,37.807,0,0,0-6.033,5.81c-.9-1.564-1.926-3.033-5.264-2.71C469.43,259.78,474.763,257.987,479.347,258Zm7.278,2.282a11.844,11.844,0,0,1,1.728.112.048.048,0,0,0,.032.008,15.6,15.6,0,0,1,7.46,4.2c.016.017.032.034.048.053a22.07,22.07,0,0,1,3.781,6.7l.056.142.143.068a1.03,1.03,0,0,0,.809-.008,2.27,2.27,0,0,0,.571-.39,4.923,4.923,0,0,1,.84-.608.616.616,0,0,1,.079.232,2.685,2.685,0,0,1-.1.924,3.639,3.639,0,0,1-1.268,1.9l-.381.278.373.285c.268.2.537.4.729.578a.9.9,0,0,1,.31.443c.016.111-.008.241-.246.48a5.624,5.624,0,0,1-1.451.9l-.087.037-.056.083a21.764,21.764,0,0,1-15.229,9.451h-.008a11.731,11.731,0,0,1-7.77-2.155c-3.41-2.578-6.068-4.869-7.769-7.258a3.818,3.818,0,0,1,.253-4.2v-.008h.008a24.946,24.946,0,0,1,3.029-4.008c.008,0,.008,0,.008-.008a39.572,39.572,0,0,1,6.136-5.945,13.269,13.269,0,0,1,7.976-2.29Zm-29.334,4.2c6.578.391,8.346,4.6,11.5,7.709a4.7,4.7,0,0,0-.278,4.849l.016.03.016.03c.05.071.107.141.158.211-1.438,4.842-4.206,7.754-8.427,8.534-.409-3.247-1.4-6.447,1.9-10.043-4.985-3.7-4.987-7.507-4.892-11.32Zm38.633,4.144a1.2,1.2,0,0,0-1.363,1.111,1.662,1.662,0,0,0,1.514,1.486,1.221,1.221,0,0,0,1.514-1.1,1.661,1.661,0,0,0-1.514-1.486,1.335,1.335,0,0,0-.151-.015Zm-19.471,15.891c.021.016.043.028.064.045a12.49,12.49,0,0,0,8.039,2.312c-3.177,4.342-7.739,3.721-12.495,2.4a11.68,11.68,0,0,1,4.392-4.759Z" transform="translate(-457.27 -258.003)" fill="#409FD8"/>
</svg>
