<svg xmlns="http://www.w3.org/2000/svg" width="90" height="90" viewBox="0 0 90 90">
  <g id="Group_122" data-name="Group 122" transform="translate(-111 -88)">
    <g id="Group_121" data-name="Group 121" transform="translate(-384 -292)">
      <path id="Path_163" data-name="Path 163" d="M539.986,470A45,45,0,1,1,585,425.159,44.995,44.995,0,0,1,539.986,470Zm-16.24-21.9a3.975,3.975,0,0,0,.331.382q5.059,4.617,10.116,9.236a.753.753,0,0,0,.881.175q9.555-3.316,19.113-6.619a1.116,1.116,0,0,0,.582-.532,67.62,67.62,0,0,0,5.062-15.955.732.732,0,0,0-.295-.8q-6.282-5.384-12.541-10.794a.8.8,0,0,0-.887-.167q-9.085,2.905-18.184,5.775a.926.926,0,0,0-.726.846c-.943,5.109-1.91,10.214-2.869,15.32C524.138,445.983,523.951,447,523.746,448.1Zm24.19-35.6c-.138,3.511-.236,6.092-.347,8.672a.8.8,0,0,0,.3.73q6.364,5.439,12.706,10.9a.708.708,0,0,0,.795.149,73.49,73.49,0,0,0,12.929-5.9.938.938,0,0,0,.555-.885c.2-5.1.414-10.189.609-15.283a.8.8,0,0,0-.253-.581q-6.966-5.532-13.961-11.029a.779.779,0,0,0-.615-.122c-4.261,1.378-8.513,2.779-12.772,4.162-.326.105-.376.261-.36.575C547.684,407.075,547.829,410.252,547.936,412.505Zm-31.521,35.919c1.559-.143,3.363-.324,5.17-.464.507-.04.639-.285.724-.739,1.066-5.746,2.128-11.493,3.255-17.228a3.571,3.571,0,0,0-.457-2.753,88.323,88.323,0,0,0-9.087-12.523.62.62,0,0,0-.667-.284q-5.366,1.059-10.741,2.075a.667.667,0,0,0-.6.488,79.907,79.907,0,0,0-3.436,15.124,1.064,1.064,0,0,0,.164.638c.647,1.049,1.318,2.083,1.982,3.122q3.7,5.79,7.406,11.575a.974.974,0,0,0,.6.423C512.535,448.075,514.344,448.231,516.415,448.424Zm43.641-50.715c-.53-1.945-1.041-3.822-1.552-5.7s-1.029-3.778-1.559-5.725h2.9a42.838,42.838,0,0,0-19.157-4.8,1.84,1.84,0,0,0-.536.1,42.1,42.1,0,0,0-11.919,5.744.74.74,0,0,0-.363.739q.222,4.043.4,8.088a.4.4,0,0,0,.4.449c.706.117,1.408.259,2.11.4a65.656,65.656,0,0,1,15.318,4.925,1.1,1.1,0,0,0,.9.062c2.639-.875,5.283-1.733,7.924-2.6C556.612,398.839,558.3,398.284,560.056,397.709ZM526.3,388.18c-.254,0-.451-.006-.647,0a49.032,49.032,0,0,0-11.41,1.879,1.83,1.83,0,0,0-.607.325,43.506,43.506,0,0,0-11.466,13.121,1.1,1.1,0,0,0-.109.7c.575,2.874,1.169,5.743,1.762,8.614.147.711.3,1.421.452,2.114a.868.868,0,0,0,.156.011c3.613-.7,7.226-1.4,10.836-2.11a.817.817,0,0,0,.476-.36,105.394,105.394,0,0,1,10.739-15.026,1.075,1.075,0,0,0,.231-.664c-.017-.982-.074-1.965-.123-2.946C526.5,391.972,526.4,390.11,526.3,388.18Zm3.419,79.14c.17.048.246.073.325.091a43.535,43.535,0,0,0,36.879-8.156.612.612,0,0,0,.248-.791c-.24-.744-.451-1.5-.628-2.261a.738.738,0,0,0-.611-.607c-3.345-.955-6.683-1.936-10.031-2.882a1.867,1.867,0,0,0-1.05.025q-9.9,3.384-19.78,6.816a1.284,1.284,0,0,0-.594.472c-.818,1.216-1.608,2.451-2.407,3.679C531.3,464.89,530.528,466.074,529.718,467.32Zm50.19-59.846c-.962,1.029-1.854,1.968-2.723,2.929a.9.9,0,0,0-.1.518q-.328,7.839-.641,15.678a1.879,1.879,0,0,0,.149.766,40.683,40.683,0,0,1,2.326,7.42c.176.861.335,1.726.512,2.643.592,0,1.176-.035,1.753.011.459.038.619-.135.738-.563a43.285,43.285,0,0,0-.715-25.96C580.823,409.785,580.364,408.681,579.908,407.474Zm-82.8,24.913a43.255,43.255,0,0,0,17.15,27.682,1.694,1.694,0,0,0-.191-.455,59.5,59.5,0,0,1-4.3-9.387,4.564,4.564,0,0,0-.4-.961q-5-7.9-10.023-15.776a.877.877,0,0,0-.339-.344C498.4,432.888,497.8,432.66,497.107,432.387Zm71.525,25.448A44.392,44.392,0,0,0,581.272,439c-.651,0-1.184.021-1.715-.007a.548.548,0,0,0-.607.367,53.551,53.551,0,0,1-5.49,9.034c-1.681,2.234-3.477,4.381-5.209,6.576a.864.864,0,0,0-.209.6C568.2,456.3,568.413,457.02,568.632,457.835Z" fill="#409FD8"/>
    </g>
  </g>
</svg>
