<svg xmlns="http://www.w3.org/2000/svg" width="90" height="80" viewBox="0 0 90 80">
  <g id="Group_116" data-name="Group 116" transform="translate(-101.5 37)">
    <g id="Group_115" data-name="Group 115" transform="translate(-196 -429)">
      <path id="Path_157" data-name="Path 157" d="M384.219,405.3c-5.149-10.031-14.745-14.94-25.009-12.816a28.685,28.685,0,0,0-16.71,10.364,28.685,28.685,0,0,0-16.71-10.364c-10.264-2.124-19.86,2.785-25.009,12.816-5.361,10.443-3.609,20.733,1.348,30.661,5.349,10.709,12.8,17.262,23.334,24.985C330.281,464.482,342.5,472,342.5,472s12.219-7.518,17.037-11.05c10.535-7.723,17.986-14.276,23.334-24.985C387.828,426.037,389.58,415.747,384.219,405.3ZM377.5,430.34h-20l-2.437-8.936-7.005,26.022a2.337,2.337,0,0,1-4.512-.012l0,.005-5.909-21.666-5.45,15.44,0,.008a2.337,2.337,0,0,1-4.441-.114l-3.225-10.747H307.5v-3.963h19.964l2.641,8.8,5.522-15.644v0a2.336,2.336,0,0,1,4.459.154l0,.006,5.7,20.9,7-26.012a2.338,2.338,0,0,1,4.512-.008v.005l3.217,11.8H377.5Z" fill="#404041"/>
      <path id="Path_158" data-name="Path 158" d="M335.628,419.532v0h0Z" fill="#404041"/>
      <path id="Path_159" data-name="Path 159" d="M335.628,419.535h0Z" fill="#404041"/>
    </g>
  </g>
</svg>
