<svg xmlns="http://www.w3.org/2000/svg" width="90" height="76.702" viewBox="0 0 90 76.702">
  <g id="Group_131" data-name="Group 131" transform="translate(-318.256 174.351)">
    <g id="Group_130" data-name="Group 130" transform="translate(0 -331)">
      <path id="Path_168" data-name="Path 168" d="M395.548,205.742c0,2.939-.011,5.739.006,8.54.008,1.341.052,2.683.116,4.022a1.974,1.974,0,0,1-.93,2.036,2.06,2.06,0,0,1-2.3-.338q-3.507-2.481-7.014-4.965c-4.051-2.875-8.074-5.791-12.177-8.59a5.022,5.022,0,0,0-2.669-.676c-8.476-.05-16.953-.019-25.429-.035a10.318,10.318,0,0,1-10.333-8.246,11.441,11.441,0,0,1-.229-2.359q-.023-13.95-.008-27.9a10.4,10.4,0,0,1,10.616-10.58q26.161,0,52.323,0a10.4,10.4,0,0,1,10.733,10.737q.009,13.813,0,27.625a10.373,10.373,0,0,1-10.729,10.728ZM371.3,188.686a7.764,7.764,0,0,0,7.882-7.785,7.868,7.868,0,1,0-7.882,7.785Zm20.052,0a7.8,7.8,0,0,0,7.9-7.879,7.868,7.868,0,1,0-15.735.019A7.864,7.864,0,0,0,391.356,188.687Zm-40.1,0a7.756,7.756,0,0,0,7.878-7.786,7.868,7.868,0,1,0-7.878,7.786Z" fill="#404041"/>
      <path id="Path_169" data-name="Path 169" d="M328.959,221.377a29.066,29.066,0,0,1-3.588-.268,8.681,8.681,0,0,1-7.086-8.579q-.051-11.664,0-23.328a8.778,8.778,0,0,1,8.831-8.754c1.212-.012,2.424,0,3.737,0v1.073c0,4.574-.01,9.148,0,13.722a14.121,14.121,0,0,0,14.277,14.269q12.488.011,24.975-.011a4.064,4.064,0,0,1,2.6.827c2.1,1.565,4.263,3.044,6.48,4.613a8.749,8.749,0,0,1-6.4,5.917,10.541,10.541,0,0,1-2.537.239q-10.155.028-20.31,0a4.842,4.842,0,0,0-2.972.956q-7.492,5.4-15.025,10.744c-1.228.875-2.366.71-2.92-.46a3.094,3.094,0,0,1-.223-1.326c.032-2.958.094-5.915.146-8.873C328.963,221.9,328.959,221.662,328.959,221.377Z" fill="#404041"/>
      <path id="Path_170" data-name="Path 170" d="M371.344,176.35a4.49,4.49,0,0,1,4.484,4.459,4.5,4.5,0,1,1-9.006.047A4.477,4.477,0,0,1,371.344,176.35Z" fill="#404041"/>
      <path id="Path_171" data-name="Path 171" d="M395.854,180.8a4.491,4.491,0,1,1-4.466-4.455A4.443,4.443,0,0,1,395.854,180.8Z" fill="#404041"/>
      <path id="Path_172" data-name="Path 172" d="M346.784,180.861a4.49,4.49,0,0,1,8.979-.056,4.49,4.49,0,1,1-8.979.056Z" fill="#404041"/>
    </g>
  </g>
</svg>
