<svg xmlns="http://www.w3.org/2000/svg" width="90" height="90" viewBox="0 0 90 90">
  <g id="Group_85" data-name="Group 85" transform="translate(-705.429 -1048.789)">
    <path id="Path_99" data-name="Path 99" d="M778.179,1087.789h0a2.25,2.25,0,0,0-2.25,2.25v36.789a7.461,7.461,0,0,1-7.461,7.461H717.39a7.462,7.462,0,0,1-7.461-7.462v-56.369A7.461,7.461,0,0,1,717.39,1063h36.661a2.337,2.337,0,0,0,2.366-2.018,2.25,2.25,0,0,0-2.238-2.482H715.931a10.5,10.5,0,0,0-10.5,10.5v59.288a10.5,10.5,0,0,0,10.5,10.5h54a10.5,10.5,0,0,0,10.5-10.5v-38.248A2.25,2.25,0,0,0,778.179,1087.789Z" fill="#ffffff"/>
    <path id="Path_100" data-name="Path 100" d="M738.429,1123.789h0v-18h-18v18h18Zm-13.5-13.5h9v9h-9Z" fill="#ffffff"/>
    <rect id="Rectangle_39" data-name="Rectangle 39" width="3" height="3" transform="translate(727.929 1113.289)" fill="#ffffff"/>
    <path id="Path_101" data-name="Path 101" d="M738.43,1078.789h-18v18h18Zm-4.5,13.5h-9v-9h9Z" fill="#ffffff"/>
    <rect id="Rectangle_40" data-name="Rectangle 40" width="3" height="3" transform="translate(727.929 1086.288)" fill="#ffffff"/>
    <path id="Path_102" data-name="Path 102" d="M765.429,1123.789h0v-18h-18v18h18Zm-13.5-13.5h9v9h-9Z" fill="#ffffff"/>
    <rect id="Rectangle_41" data-name="Rectangle 41" width="3" height="3" transform="translate(754.929 1113.289)" fill="#ffffff"/>
    <path id="Path_103" data-name="Path 103" d="M794.726,1064.669l-15.3-15.3a1.973,1.973,0,0,0-3.367,1.4v7.558c-.161-.005-.318-.012-.487-.012a23.782,23.782,0,0,0-23.781,23.786v.084a2.223,2.223,0,0,0,4.056,1.246h0a23.476,23.476,0,0,1,5.691-5.825h0a23.253,23.253,0,0,1,13.563-4.342c.326,0,.634.019.958.037v8.674a1.972,1.972,0,0,0,3.367,1.4l15.3-15.3A2.4,2.4,0,0,0,794.726,1064.669ZM780.5,1076v-4.648a2.4,2.4,0,0,0-2.28-2.4l-1.74-.088c-.309-.014-.789-.053-1.376-.054h0a27.7,27.7,0,0,0-16.151,5.172h0c-.478.342-.93.715-1.384,1.086a19.288,19.288,0,0,1,18.005-12.317c.1,0,.3.006.558.015l1.894.061a2.4,2.4,0,0,0,2.479-2.4v-3.7l9.634,9.634Z" fill="#ffffff"/>
  </g>
</svg>
