<svg xmlns="http://www.w3.org/2000/svg" width="63" height="42" viewBox="0 0 63 42">
  <g id="Group_167" data-name="Group 167" transform="translate(-240 -2654)">
    <g id="Group_166" data-name="Group 166">
      <path id="Path_154" data-name="Path 154" d="M240,2657.254v35.492a3.254,3.254,0,0,0,3.254,3.254h56.492a3.254,3.254,0,0,0,3.254-3.254v-35.492a3.254,3.254,0,0,0-3.254-3.254H243.254A3.254,3.254,0,0,0,240,2657.254Zm57.212-.1L271.5,2680.319l-25.712-23.169Zm-54.062,1.863,18.669,16.823-18.669,16.822Zm4.493,33.837,16.529-14.894,5.693,5.13a2.443,2.443,0,0,0,3.27,0l5.693-5.13,16.529,14.894Zm52.207-.192-18.669-16.822,18.669-16.823Z" fill="#409fd8"/>
    </g>
  </g>
</svg>
