<svg xmlns="http://www.w3.org/2000/svg" width="63" height="42" viewBox="0 0 63 42">
  <path id="Path_155" data-name="Path 155" d="M711.393,2678.656a17.34,17.34,0,0,0-29.165-12.686,17.344,17.344,0,1,0-30.954,14.944l-2.225,7.665,7.88-2.3a17.33,17.33,0,0,0,20.629-2.253,17.342,17.342,0,0,0,25.3,9.565l7.879,2.3-2.225-7.665A17.258,17.258,0,0,0,711.393,2678.656Zm-34.607,1.653a14.485,14.485,0,0,1-.985,1.1,14.162,14.162,0,0,1-18.36,1.484l-3.824,1.115,1.073-3.7a14.232,14.232,0,1,1,22.1,0Zm30.477,3.615a14.222,14.222,0,0,1-2.166,3.7l1.073,3.7-3.825-1.115a14.2,14.2,0,0,1-22.3-9.062,17.257,17.257,0,0,0,3.034-9.8c0-.558-.029-1.109-.08-1.653a14.224,14.224,0,0,1,24.262,14.233Z" transform="translate(-648.393 -2654)" fill="#409fd8"/>
</svg>
