<svg xmlns="http://www.w3.org/2000/svg" width="96.767" height="90" viewBox="0 0 96.767 90">
  <g id="Group_99" data-name="Group 99" transform="translate(-566.957 -1048.789)">
    <path id="Path_126" data-name="Path 126" d="M662.6,1072.108a2.238,2.238,0,0,0-3.056.819l-4.535,7.855a44.979,44.979,0,1,0-5.333,37.529,2.251,2.251,0,0,0-.861-3.236,2.341,2.341,0,0,0-2.965.912,40.547,40.547,0,1,1,4.919-33.774l-8.093-4.673a2.324,2.324,0,0,0-3.041.562,2.238,2.238,0,0,0,.693,3.25l12.42,7.17a2.561,2.561,0,0,0,3.5-.938l7.171-12.419A2.238,2.238,0,0,0,662.6,1072.108Z" fill="#ffffff"/>
    <path id="Path_127" data-name="Path 127" d="M626.038,1086.7v-4.393a14.083,14.083,0,0,0-28.165,0v4.393h-6.917v31.654h42V1086.7Zm-23.718-4.393a9.635,9.635,0,0,1,19.271,0v4.393H602.32Zm26.189,31.6H595.4v-22.76h33.106Z" fill="#ffffff"/>
    <path id="Path_128" data-name="Path 128" d="M618.705,1100.251a6.75,6.75,0,1,0-9,6.357v4.538h4.5v-4.538A6.746,6.746,0,0,0,618.705,1100.251Zm-5.159,1.591a2.25,2.25,0,1,1,.659-1.591A2.23,2.23,0,0,1,613.546,1101.842Z" fill="#ffffff"/>
  </g>
</svg>
