<svg xmlns="http://www.w3.org/2000/svg" width="75.003" height="89.998" viewBox="0 0 75.003 89.998">
  <g id="Group_108" data-name="Group 108" transform="translate(-154.827 -1435.45)">
    <path id="Path_143" data-name="Path 143" d="M219.331,1435.45h-54c-.327,0-.649.019-.968.049-.1.009-.209.024-.313.036-.213.027-.425.058-.634.1-.119.022-.238.045-.356.071-.2.044-.392.095-.586.15-.112.032-.225.059-.335.094-.265.085-.524.18-.779.285-.154.063-.3.135-.454.2-.116.055-.232.109-.346.167-.161.082-.318.168-.474.258-.092.053-.181.109-.271.165-.164.1-.328.2-.486.313h0a10.559,10.559,0,0,0-.914.721c-.047.041-.092.083-.137.125-.249.226-.485.462-.711.71a2.009,2.009,0,0,0-.14.155,10.435,10.435,0,0,0-.672.851c-.018.025-.037.048-.055.073a10.43,10.43,0,0,0-.636,1.038c-.008.014-.014.03-.021.044a10.367,10.367,0,0,0-.459,1c-.041.1-.076.207-.114.311-.1.263-.182.529-.256.8-.035.126-.068.253-.1.381-.064.272-.114.548-.156.827-.018.12-.041.239-.055.361a10.563,10.563,0,0,0-.076,1.213h0v69a10.5,10.5,0,0,0,10.5,10.5h54c.327,0,.649-.02.968-.049.1-.01.209-.024.313-.037.214-.026.425-.058.635-.1.119-.022.237-.044.355-.07.2-.044.392-.1.586-.151.112-.032.225-.059.336-.094q.4-.127.778-.285c.154-.063.3-.135.454-.2.116-.054.232-.108.346-.167q.241-.123.474-.258c.092-.053.181-.109.271-.165.164-.1.328-.2.486-.313h0a10.447,10.447,0,0,0,.913-.722c.047-.041.092-.083.138-.125q.372-.337.71-.71c.047-.052.1-.1.141-.155a10.4,10.4,0,0,0,.672-.851c.017-.025.037-.048.054-.072a10.557,10.557,0,0,0,.636-1.039c.008-.014.014-.029.022-.044a10.741,10.741,0,0,0,.459-1c.041-.1.076-.208.113-.312q.144-.393.257-.8c.034-.126.067-.253.1-.381.063-.271.113-.547.155-.826.019-.121.042-.24.056-.362a10.555,10.555,0,0,0,.075-1.213h0v-69A10.5,10.5,0,0,0,219.331,1435.45Zm-52.007,85.5h-.531a7.462,7.462,0,0,1-7.461-7.46V1484.2h0v-36.789a7.461,7.461,0,0,1,7.461-7.461h51.078a7.46,7.46,0,0,1,7.461,7.462V1476.7h0v36.789a7.461,7.461,0,0,1-7.461,7.461Z" fill="#fff"/>
    <g id="Group_107" data-name="Group 107">
      <g id="Group_104" data-name="Group 104">
        <path id="Path_144" data-name="Path 144" d="M217.255,1455.1H185.409a2.257,2.257,0,0,0,0,4.5h31.846a2.257,2.257,0,0,0,0-4.5Z" fill="#fff"/>
        <path id="Path_145" data-name="Path 145" d="M168.514,1464.24l3.712-3.712,3.712,3.712,3.182-3.182-3.712-3.712,3.712-3.712-3.182-3.182-3.712,3.712-3.712-3.712-3.182,3.182,3.712,3.712-3.712,3.712Z" fill="#fff"/>
      </g>
      <g id="Group_105" data-name="Group 105">
        <path id="Path_146" data-name="Path 146" d="M217.255,1501.31H185.409a2.257,2.257,0,0,0,0,4.5h31.846a2.257,2.257,0,0,0,0-4.5Z" fill="#fff"/>
        <path id="Path_147" data-name="Path 147" d="M168.514,1510.45l3.712-3.712,3.712,3.712,3.182-3.182-3.712-3.712,3.712-3.712-3.182-3.182-3.712,3.712-3.712-3.712-3.182,3.182,3.712,3.712-3.712,3.712Z" fill="#fff"/>
      </g>
      <g id="Group_106" data-name="Group 106">
        <path id="Path_148" data-name="Path 148" d="M217.255,1478.2H185.409a2.257,2.257,0,0,0,0,4.5h31.846a2.257,2.257,0,0,0,0-4.5Z" fill="#fff"/>
        <path id="Path_149" data-name="Path 149" d="M168.514,1487.35l3.712-3.712,3.712,3.712,3.182-3.182-3.712-3.712,3.712-3.712-3.182-3.182-3.712,3.712-3.712-3.712-3.182,3.182,3.712,3.712-3.712,3.712Z" fill="#fff"/>
      </g>
    </g>
  </g>
</svg>
