<svg xmlns="http://www.w3.org/2000/svg" width="70.866" height="85.039" viewBox="0 0 70.866 85.039">
  <g id="Group_955" data-name="Group 955" transform="translate(-1397.087 -780)">
    <path id="Path_1843" data-name="Path 1843" d="M1458.03,780h-51.02c-.309,0-.613.018-.915.046-.1.009-.2.023-.295.035-.2.025-.4.055-.6.092-.112.02-.224.041-.336.066-.187.042-.37.09-.553.142-.106.03-.213.056-.317.089q-.375.12-.736.269c-.146.06-.287.128-.429.194-.11.051-.22.1-.327.158-.152.077-.3.159-.448.244-.087.05-.171.1-.256.155-.155.1-.31.192-.459.3h0a9.94,9.94,0,0,0-.863.682c-.044.038-.086.078-.13.117-.234.214-.458.437-.671.672-.044.049-.089.1-.133.146a10.064,10.064,0,0,0-.635.8c-.016.023-.035.045-.051.069a9.89,9.89,0,0,0-.6.98c-.008.014-.013.029-.021.042a9.806,9.806,0,0,0-.433.944c-.039.1-.072.2-.108.294q-.135.372-.242.757c-.033.119-.064.239-.092.36-.06.257-.108.517-.148.781-.017.114-.038.226-.052.341a10.1,10.1,0,0,0-.071,1.147h0v65.194a9.922,9.922,0,0,0,9.923,9.922h51.02c.309,0,.613-.018.915-.046.1-.009.2-.023.3-.035q.3-.036.6-.091c.112-.021.224-.042.336-.067.187-.041.37-.09.553-.142.106-.03.213-.055.317-.089q.375-.12.736-.269c.146-.06.287-.128.429-.194.11-.051.22-.1.327-.157q.228-.117.448-.244c.087-.051.171-.1.256-.156.155-.1.31-.192.459-.3h0a10.129,10.129,0,0,0,.863-.682l.13-.118q.351-.32.671-.671c.044-.049.089-.1.133-.147a9.882,9.882,0,0,0,.635-.8c.016-.023.035-.045.051-.068a9.921,9.921,0,0,0,.6-.981c.008-.014.013-.028.021-.042a9.728,9.728,0,0,0,.433-.944c.039-.1.072-.2.108-.294q.135-.372.242-.756c.033-.12.064-.239.092-.361.06-.256.108-.517.148-.781.017-.114.038-.226.052-.341a10.067,10.067,0,0,0,.071-1.146h0V789.923A9.923,9.923,0,0,0,1458.03,780Zm-49.14,80.787h-.5a7.049,7.049,0,0,1-7.05-7.049V826.064h0V791.3a7.05,7.05,0,0,1,7.05-7.05h48.262a7.05,7.05,0,0,1,7.05,7.05v27.674h0v34.762a7.049,7.049,0,0,1-7.05,7.049Z" fill="#2690d1"/>
    <g id="Group_954" data-name="Group 954">
      <g id="Group_951" data-name="Group 951">
        <path id="Path_1844" data-name="Path 1844" d="M1456.069,798.562h-30.09a2.132,2.132,0,0,0,0,4.251h30.09a2.132,2.132,0,0,0,0-4.251Z" fill="#2690d1"/>
        <path id="Path_1845" data-name="Path 1845" d="M1410.015,807.2l3.508-3.508,3.508,3.508,3.007-3.007-3.508-3.508,3.508-3.508-3.007-3.007-3.508,3.508-3.508-3.508-3.007,3.007,3.508,3.508-3.508,3.508Z" fill="#2690d1"/>
      </g>
      <g id="Group_952" data-name="Group 952">
        <path id="Path_1846" data-name="Path 1846" d="M1456.069,842.226h-30.09a2.133,2.133,0,0,0,0,4.252h30.09a2.133,2.133,0,0,0,0-4.252Z" fill="#2690d1"/>
        <path id="Path_1847" data-name="Path 1847" d="M1410.015,850.866l3.508-3.508,3.508,3.508,3.007-3.007-3.508-3.508,3.508-3.508-3.007-3.007-3.508,3.508-3.508-3.508-3.007,3.007,3.508,3.508-3.508,3.508Z" fill="#2690d1"/>
      </g>
      <g id="Group_953" data-name="Group 953">
        <path id="Path_1848" data-name="Path 1848" d="M1456.069,820.394h-30.09a2.133,2.133,0,0,0,0,4.252h30.09a2.133,2.133,0,0,0,0-4.252Z" fill="#2690d1"/>
        <path id="Path_1849" data-name="Path 1849" d="M1410.015,829.034l3.508-3.508,3.508,3.508,3.007-3.007-3.508-3.508,3.508-3.508-3.007-3.007-3.508,3.508-3.508-3.508-3.007,3.007,3.508,3.508-3.508,3.508Z" fill="#2690d1"/>
      </g>
    </g>
  </g>
</svg>
