<svg xmlns="http://www.w3.org/2000/svg" width="90" height="90" viewBox="0 0 90 90">
  <g id="Group_948" data-name="Group 948" transform="translate(-1390 -1230)">
    <path id="Path_1829" data-name="Path 1829" d="M1462.75,1269h0a2.249,2.249,0,0,0-2.25,2.25v36.789a7.46,7.46,0,0,1-7.461,7.461h-51.078a7.46,7.46,0,0,1-7.461-7.461v-51.078a7.46,7.46,0,0,1,7.461-7.461h36.789a2.25,2.25,0,0,0,0-4.5H1400.5a10.5,10.5,0,0,0-10.5,10.5v54a10.5,10.5,0,0,0,10.5,10.5h54a10.5,10.5,0,0,0,10.5-10.5V1271.25A2.249,2.249,0,0,0,1462.75,1269Z" fill="#2690d1"/>
    <path id="Path_1830" data-name="Path 1830" d="M1461.943,1230a18.025,18.025,0,0,0-16.351,25.682l-.425-.168a2.223,2.223,0,0,0-2.883,1.251h0a2.223,2.223,0,0,0,1.251,2.884l5.913,2.335a1.909,1.909,0,0,0,2.477-1.075l2.335-5.913a2.222,2.222,0,1,0-4.134-1.633l-.327.828a13.6,13.6,0,1,1,13.993,7.354,2.085,2.085,0,0,0-1.849,2.046v.331a2.07,2.07,0,0,0,2.354,2.04,18.058,18.058,0,0,0-2.354-35.962Z" fill="#2690d1"/>
    <path id="Path_1831" data-name="Path 1831" d="M1460.6,1241a2.25,2.25,0,0,0-2.25,2.25v7.7A2.052,2.052,0,0,0,1460.4,1253h4.7a2.25,2.25,0,0,0,0-4.5h-2.25v-5.25A2.25,2.25,0,0,0,1460.6,1241Z" fill="#2690d1"/>
    <circle id="Ellipse_11439" data-name="Ellipse 11439" cx="2.25" cy="2.25" r="2.25" transform="translate(1403.5 1270.5)" fill="#2690d1"/>
    <path id="Path_1832" data-name="Path 1832" d="M1449.25,1299h-34.5a2.25,2.25,0,0,0,0,4.5h34.5a2.25,2.25,0,0,0,0-4.5Z" fill="#2690d1"/>
    <circle id="Ellipse_11440" data-name="Ellipse 11440" cx="2.25" cy="2.25" r="2.25" transform="translate(1403.5 1299)" fill="#2690d1"/>
    <path id="Path_1833" data-name="Path 1833" d="M1449.25,1284.75h-34.5a2.25,2.25,0,0,0,0,4.5h34.5a2.25,2.25,0,0,0,0-4.5Z" fill="#2690d1"/>
    <circle id="Ellipse_11441" data-name="Ellipse 11441" cx="2.25" cy="2.25" r="2.25" transform="translate(1403.5 1284.75)" fill="#2690d1"/>
    <path id="Path_1834" data-name="Path 1834" d="M1449.25,1270.5h-34.5a2.25,2.25,0,0,0,0,4.5h34.5a2.25,2.25,0,0,0,0-4.5Z" fill="#2690d1"/>
  </g>
</svg>
