<svg xmlns="http://www.w3.org/2000/svg" width="90" height="90" viewBox="0 0 90 90">
  <g id="Group_947" data-name="Group 947" transform="translate(-1390 -1080)">
    <g id="Group_946" data-name="Group 946">
      <path id="Path_1826" data-name="Path 1826" d="M1467.93,1151.681a39.728,39.728,0,0,1-2.67-8.063,70.821,70.821,0,0,1-1.5-15.117c0-3.248-.512-10.294-.336-12.285.088-.995-.065-1.785,0-2.321.032-.269-.018-.473,0-.609v-.523a28.052,28.052,0,0,0-21.168-27.191,7.506,7.506,0,0,0-14.561.223,28.049,28.049,0,0,0-20.358,26.968l.022.311h0l0,.025c.043.319-.182,7.68-.182,12.462a83.484,83.484,0,0,1-1.854,15.216,58.169,58.169,0,0,1-3.255,10.9c-.025.059-.049.118-.074.178a3.132,3.132,0,0,0,2.863,4.374h13.124a17.4,17.4,0,0,0,34.04,0h13.127a3.136,3.136,0,0,0,2.806-4.5Zm-23.763,10.077a12.955,12.955,0,0,1-21.6-5.525h24.872A12.942,12.942,0,0,1,1444.167,1161.758Zm-37.274-10.077a63.986,63.986,0,0,0,2.839-10.027,88.1,88.1,0,0,0,1.941-16.093c0-4.7.261-12.117.16-12.92a23.544,23.544,0,0,1,47.087-.011c-.133.967.341,9.782.34,15.871a75.11,75.11,0,0,0,1.612,16.1,46.863,46.863,0,0,0,2.165,7.084Z" fill="#2690d1"/>
      <path id="Path_1827" data-name="Path 1827" d="M1475.648,1105.682l-3.885,2.243a40.542,40.542,0,0,1,0,34.15l3.886,2.243a45.056,45.056,0,0,0,0-38.636Z" fill="#2690d1"/>
      <path id="Path_1828" data-name="Path 1828" d="M1394.352,1105.682a45.056,45.056,0,0,0,0,38.636l3.886-2.243a40.542,40.542,0,0,1,0-34.15Z" fill="#2690d1"/>
    </g>
  </g>
</svg>
