<svg xmlns="http://www.w3.org/2000/svg" width="90" height="90" viewBox="0 0 90 90">
  <g id="Group_950" data-name="Group 950" transform="translate(-1390 -630)">
    <g id="Group_949" data-name="Group 949">
      <path id="Path_1835" data-name="Path 1835" d="M1394.5,634.5H1411V630h-21v21h4.5Z" fill="#2690d1"/>
      <path id="Path_1836" data-name="Path 1836" d="M1459,630v4.5h16.5V651h4.5V630Z" fill="#2690d1"/>
      <path id="Path_1837" data-name="Path 1837" d="M1394.5,699H1390v21h21v-4.5h-16.5Z" fill="#2690d1"/>
      <path id="Path_1838" data-name="Path 1838" d="M1475.5,715.5H1459V720h21V699h-4.5Z" fill="#2690d1"/>
      <rect id="Rectangle_700" data-name="Rectangle 700" width="6" height="6" transform="translate(1414 690)" fill="#2690d1"/>
      <path id="Path_1839" data-name="Path 1839" d="M1402,708h30V678h-30Zm4.5-25.5h21v21h-21Z" fill="#2690d1"/>
      <path id="Path_1840" data-name="Path 1840" d="M1438,678h0v18h18V678h-18Zm13.5,13.5h-9v-9h9Z" fill="#2690d1"/>
      <rect id="Rectangle_701" data-name="Rectangle 701" width="3" height="3" transform="translate(1445.5 685.5)" fill="#2690d1"/>
      <rect id="Rectangle_702" data-name="Rectangle 702" width="6" height="6" transform="translate(1414 654)" fill="#2690d1"/>
      <path id="Path_1841" data-name="Path 1841" d="M1402,672h30V642h-30Zm4.5-25.5h21v21h-21Z" fill="#2690d1"/>
      <rect id="Rectangle_703" data-name="Rectangle 703" width="6" height="6" transform="translate(1450 654)" fill="#2690d1"/>
      <path id="Path_1842" data-name="Path 1842" d="M1468,642h-30v30h30Zm-4.5,25.5h-21v-21h21Z" fill="#2690d1"/>
    </g>
  </g>
</svg>
