<svg xmlns="http://www.w3.org/2000/svg" width="85.04" height="85.039" viewBox="0 0 85.04 85.039">
  <g id="Group_945" data-name="Group 945" transform="translate(-1390 -930)">
    <path id="Path_1821" data-name="Path 1821" d="M1458.74,966.85h0a2.126,2.126,0,0,0-2.126,2.126v34.762a7.049,7.049,0,0,1-7.05,7.049H1401.3a7.049,7.049,0,0,1-7.05-7.049V950.475a7.05,7.05,0,0,1,7.05-7.05h34.64a2.209,2.209,0,0,0,2.236-1.906,2.127,2.127,0,0,0-2.115-2.346h-36.14A9.923,9.923,0,0,0,1390,949.1v56.02a9.923,9.923,0,0,0,9.923,9.923h51.02a9.922,9.922,0,0,0,9.923-9.922V968.976A2.126,2.126,0,0,0,1458.74,966.85Z" fill="#2690d1"/>
    <path id="Path_1822" data-name="Path 1822" d="M1421.181,1000.866h0V983.858h-17.009v17.008h17.008Zm-12.756-12.756h8.5v8.5h-8.5Z" fill="#2690d1"/>
    <rect id="Rectangle_697" data-name="Rectangle 697" width="2.835" height="2.835" transform="translate(1411.26 990.945)" fill="#2690d1"/>
    <path id="Path_1823" data-name="Path 1823" d="M1421.182,958.346h-17.009v17.008h17.009Zm-4.253,12.756h-8.5v-8.5h8.5Z" fill="#2690d1"/>
    <rect id="Rectangle_698" data-name="Rectangle 698" width="2.835" height="2.835" transform="translate(1411.26 965.433)" fill="#2690d1"/>
    <path id="Path_1824" data-name="Path 1824" d="M1446.692,1000.866h0V983.858h-17.008v17.008h17.007Zm-12.755-12.756h8.5v8.5h-8.5Z" fill="#2690d1"/>
    <rect id="Rectangle_699" data-name="Rectangle 699" width="2.835" height="2.835" transform="translate(1436.771 990.945)" fill="#2690d1"/>
    <path id="Path_1825" data-name="Path 1825" d="M1474.375,945.006l-14.456-14.456a1.864,1.864,0,0,0-3.182,1.318v7.141c-.152,0-.3-.011-.46-.012a22.47,22.47,0,0,0-22.47,22.475v.08a2.1,2.1,0,0,0,3.832,1.177h0a22.177,22.177,0,0,1,5.377-5.5h0a21.979,21.979,0,0,1,12.816-4.1c.308,0,.6.019.905.036v8.2a1.864,1.864,0,0,0,3.182,1.318l14.456-14.457A2.269,2.269,0,0,0,1474.375,945.006Zm-13.438,10.708v-4.392a2.269,2.269,0,0,0-2.155-2.266l-1.643-.082c-.292-.014-.746-.05-1.3-.052h0a26.178,26.178,0,0,0-15.261,4.887h0c-.452.323-.879.676-1.308,1.027a18.227,18.227,0,0,1,17.012-11.639c.1,0,.287.007.528.015l1.79.058a2.269,2.269,0,0,0,2.342-2.267v-3.5l9.1,9.1Z" fill="#2690d1"/>
  </g>
</svg>
