<svg xmlns="http://www.w3.org/2000/svg" width="50" height="50" viewBox="0 0 50 50">
  <path id="Path_56" data-name="Path 56" d="M3395,3526.585a25,25,0,1,0,25,25A25.009,25.009,0,0,0,3395,3526.585Zm-17.933,25a18,18,0,0,1,17.933-18,17.707,17.707,0,0,1,10.133,3.133l-24.933,25A17.707,17.707,0,0,1,3377.067,3551.585ZM3395,3569.518a17.707,17.707,0,0,1-10.133-3.133l24.933-24.933a17.708,17.708,0,0,1,3.133,10.133A17.9,17.9,0,0,1,3395,3569.518Z" transform="translate(-3370 -3526.585)" fill="#ec1c24"/>
</svg>
