<svg xmlns="http://www.w3.org/2000/svg" xmlns:xlink="http://www.w3.org/1999/xlink" width="513" height="480" viewBox="0 0 513 480">
  <defs>
    <clipPath id="clip-custom_1">
      <rect width="513" height="480"/>
    </clipPath>
  </defs>
  <g id="custom_1" data-name="custom – 1" clip-path="url(#clip-custom_1)">
    <g id="Group_43" data-name="Group 43" transform="translate(-333 -512)">
      <g id="Group_38" data-name="Group 38" transform="translate(388.048 557.863)">
        <path id="Path_114" data-name="Path 114" d="M709.021,557.843l-2.129-3.689a21.718,21.718,0,0,0-29.678-7.951l-6.825,3.94v9.8l11.068-6.39a13.147,13.147,0,0,1,6.6-1.777,13.315,13.315,0,0,1,6.542,1.721,13.159,13.159,0,0,1,4.94,4.9l2.13,3.689a13.156,13.156,0,0,1,1.777,6.6,13.334,13.334,0,0,1-1.721,6.543,13.154,13.154,0,0,1-4.9,4.938h0l-26.438,15.264v9.776c.176-.094.354-.181.528-.282L701.07,587.52h0a21.717,21.717,0,0,0,7.951-29.676Z" transform="translate(-354.31 -543.289)" fill="#74caf1"/>
        <path id="Path_115" data-name="Path 115" d="M706.836,628.782l-.568-.984a21.718,21.718,0,0,0-29.678-7.951l-4.05,2.338-8.485,4.9L653,633.466a21.7,21.7,0,0,0-8.521,28.612v.082l.569.984a21.717,21.717,0,0,0,18.831,10.865c.058,0,.117-.005.175-.005v.333L649.9,678.425a21.7,21.7,0,0,0-14.841,26.9l.548,1.9a21.686,21.686,0,0,0,18.581,15.563,21.612,21.612,0,0,0-11.459,19.107q0,.633.037,1.268l.113,1.971a21.689,21.689,0,0,0,21.177,20.449c.166,0,.329.024.5.024q.629,0,1.267-.036l6.722-.389,5.465-.315h0a21.726,21.726,0,0,0,20.472-21.674q0-.628-.036-1.266l-.113-1.972a21.728,21.728,0,0,0-21.674-20.474q-.631,0-1.267.037l-2.846.164v-.516l15.113-4.366h0A21.709,21.709,0,0,0,702.5,687.9l-.548-1.9a21.708,21.708,0,0,0-26.9-14.841l-.96.278c.214-.114.43-.22.641-.343l23.59-13.619h0a21.7,21.7,0,0,0,8.519-28.612Zm-30.961,99.206c.262-.015.52-.022.778-.022a13.242,13.242,0,0,1,13.2,12.477l.113,1.971c.015.259.022.519.022.778a13.238,13.238,0,0,1-12.476,13.2h0l-4.975.288-7.211.416c-.26.015-.52.022-.779.022-.167,0-.33-.018-.5-.024a13.212,13.212,0,0,1-12.706-12.452l-.113-1.972q-.022-.393-.022-.779a13.24,13.24,0,0,1,12.476-13.2l.366-.02,8.485-.49Zm1.526-48.677a13.238,13.238,0,0,1,16.394,9.046l.548,1.9a13.238,13.238,0,0,1-9.044,16.394l-12.758,3.685-8.485,2.452-3.9,1.128a13.235,13.235,0,0,1-16.393-9.045l-.548-1.9a13.235,13.235,0,0,1,9.044-16.394l11.8-3.409,8.485-2.452Zm21.575-34.124a13.156,13.156,0,0,1-4.9,4.939h0l-21.533,12.432-2.056,1.188a13.159,13.159,0,0,1-6.429,1.771c-.058,0-.117.005-.175.005a13.327,13.327,0,0,1-6.543-1.721,13.149,13.149,0,0,1-4.937-4.9l0,0a13.156,13.156,0,0,1-1.777-6.6,13.331,13.331,0,0,1,1.721-6.543,13.154,13.154,0,0,1,4.9-4.938l6.811-3.933,8.485-4.9,8.293-4.789a13.156,13.156,0,0,1,6.6-1.777,13.328,13.328,0,0,1,6.542,1.721,13.149,13.149,0,0,1,4.937,4.9l0,0a13.164,13.164,0,0,1,1.777,6.6A13.342,13.342,0,0,1,698.976,645.188Z" transform="translate(-356.462 -538.911)" fill="#74caf1"/>
        <path id="Path_116" data-name="Path 116" d="M617.756,841.684c-.389.578-.8,1.174-1.253,1.794a108.863,108.863,0,0,1-9.592,11.215,165.237,165.237,0,0,1-13.3,12.285,60.9,60.9,0,0,1-10.867,7.146c-5.652,2.952-11.786,5.217-18.6,7.849a169.735,169.735,0,0,0-22.335,10.156,85.97,85.97,0,0,0-11.517,7.759,5.407,5.407,0,0,0-.48,8h0a5.411,5.411,0,0,0,7.166.524c2.805-2.143,6.7-5.008,10-7.019,9.66-5.886,18.841-8.649,27.631-12.093a132.877,132.877,0,0,0,13.033-5.769,71.554,71.554,0,0,0,12.728-8.382,164.99,164.99,0,0,0,20.2-19.739,85.326,85.326,0,0,0,6.693-8.89,39.485,39.485,0,0,0,2.684-4.815l-.013-.02Z" transform="translate(-362.759 -525.548)" fill="#74caf1"/>
        <path id="Path_117" data-name="Path 117" d="M427.986,816.315a117.749,117.749,0,0,0-3.332-26.359c-.305-1.308-.764-2.868-1.347-4.722-1.017-3.233-2.412-7.325-3.939-11.862-2.288-6.8-4.871-14.59-6.861-21.745-1-3.575-1.841-6.99-2.428-10.008a41.575,41.575,0,0,1-.9-7.507,12.5,12.5,0,0,1,.072-1.42A69.288,69.288,0,0,1,412,721.215c2.223-7.215,5.569-16.284,9.371-26.26s8.064-20.882,12.133-31.858c5.461-14.723,8.156-24.783,9.6-34.021.724-4.613,1.133-8.992,1.439-13.592s.51-9.429.817-15.008a15.159,15.159,0,0,1,1.307-5.308,16.189,16.189,0,0,1,4.964-6.311,12.423,12.423,0,0,1,3.178-1.752,9.366,9.366,0,0,1,3.211-.591c.1,0,.195,0,.292.005a13.58,13.58,0,0,1,7.234,2.232,15.452,15.452,0,0,1,3.62,3.416,22.62,22.62,0,0,1,3.174,5.729c.315.821.53,1.512.66,1.977.029.1.051.185.072.264V583.922a22.678,22.678,0,0,0-2.833-2.239,22.117,22.117,0,0,0-11.628-3.645c-.2-.006-.4-.011-.592-.01a18.25,18.25,0,0,0-8,1.907,23.354,23.354,0,0,0-9.09,8.121,24.151,24.151,0,0,0-4.039,11.954c-.311,5.642-.515,10.455-.812,14.911a125.481,125.481,0,0,1-2.6,19.482,192.41,192.41,0,0,1-7.927,25.744c-5.381,14.515-11.141,29-15.762,41.505-2.311,6.254-4.337,12.011-5.895,17.064a76.655,76.655,0,0,0-3.077,13.012,21.136,21.136,0,0,0-.126,2.384,43.029,43.029,0,0,0,.641,6.794,130.892,130.892,0,0,0,3.3,14.062c2.121,7.479,4.756,15.356,7.021,22.079,1.133,3.359,2.173,6.43,3,8.993s1.456,4.638,1.731,5.834a109.828,109.828,0,0,1,3.11,24.114l-46.047,41.488a4.242,4.242,0,0,0-.313,5.991h0a4.244,4.244,0,0,0,5.992.312l43.717-39.388L532.833,944.908l-20.049,18.064a4.244,4.244,0,0,0-.313,5.992h0a4.243,4.243,0,0,0,5.992.311l24.19-21.8a2.947,2.947,0,0,0,.2-4.176L427.975,817.422C427.98,817.063,427.986,816.706,427.986,816.315Z" transform="translate(-372.048 -541.224)" fill="#74caf1"/>
        <path id="Path_118" data-name="Path 118" d="M375.758,850.426h0Z" transform="translate(-371.827 -525.028)" fill="#74caf1"/>
        <circle id="Ellipse_4434" data-name="Ellipse 4434" cx="9.016" cy="9.016" r="9.016" transform="translate(36.938 321.301)" fill="#74caf1"/>
      </g>
      <g id="Group_40" data-name="Group 40" transform="translate(489.076 512)">
        <g id="Group_39" data-name="Group 39">
          <path id="Path_119" data-name="Path 119" d="M682.457,629.137V534.758A34.758,34.758,0,0,0,647.7,500H502.165a34.758,34.758,0,0,0-34.759,34.758V827.241A34.758,34.758,0,0,0,502.165,862H647.7a34.758,34.758,0,0,0,34.757-34.758V772.133l-6.722.389q-.637.037-1.267.036c-.166,0-.33-.02-.5-.024v15.455H475.891V542.115H673.972v91.92Zm-8.485,167.337v30.768A26.272,26.272,0,0,1,647.7,853.513H502.165a26.274,26.274,0,0,1-26.273-26.271V796.474ZM475.92,533.63a26.265,26.265,0,0,1,26.245-25.145H647.7a26.263,26.263,0,0,1,26.244,25.145Z" transform="translate(-467.406 -500)" fill="#464749"/>
          <circle id="Ellipse_4435" data-name="Ellipse 4435" cx="10.607" cy="10.607" r="10.607" transform="translate(99.608 312.451)" fill="#464749"/>
        </g>
      </g>
      <g id="Group_42" data-name="Group 42" transform="translate(511.845 597.6)">
        <g id="Group_41" data-name="Group 41" transform="translate(0 0)">
          <path id="Path_120" data-name="Path 120" d="M497.373,706.205H488.9v36.647h36.647v-8.476H497.373Z" transform="translate(-488.898 -573.34)" fill="#008fd2"/>
          <path id="Path_121" data-name="Path 121" d="M497.373,589.271h28.172V580.8H488.9v36.647h8.476Z" transform="translate(-488.898 -580.796)" fill="#008fd2"/>
          <path id="Path_122" data-name="Path 122" d="M614.306,580.8v8.476h28.173v28.172h8.476V580.8Z" transform="translate(-481.442 -580.796)" fill="#008fd2"/>
          <path id="Path_123" data-name="Path 123" d="M512.655,645.222h36.02V609.2h-36.02Zm8.475-27.546H540.2v19.07H521.13Z" transform="translate(-487.485 -579.107)" fill="#008fd2"/>
          <path id="Path_124" data-name="Path 124" d="M591.141,645.222h36.021V609.2H591.141Zm8.476-27.546h19.07v19.07h-19.07Z" transform="translate(-482.819 -579.107)" fill="#008fd2"/>
          <path id="Path_125" data-name="Path 125" d="M512.655,714.824h36.02V678.8h-36.02Zm8.475-27.546H540.2v19.07H521.13Z" transform="translate(-487.485 -574.969)" fill="#008fd2"/>
          <path id="Path_126" data-name="Path 126" d="M580.157,678.333v11.077h-20.19v25.443h8.476V697.885h20.19V678.333Z" transform="translate(-484.672 -574.997)" fill="#008fd2"/>
          <path id="Path_127" data-name="Path 127" d="M612.638,654.987H585.67v8.476h18.493v11.714h23.325V666.7H612.638Z" transform="translate(-483.144 -576.385)" fill="#008fd2"/>
          <path id="Path_128" data-name="Path 128" d="M541.717,667.557h25.5v-29.68h13.833V608.789h-8.475V629.4H558.738v29.68H541.717Z" transform="translate(-485.757 -579.132)" fill="#008fd2"/>
          <path id="Path_129" data-name="Path 129" d="M618.015,705.677H602.448v8.476H626.49V690.11h-8.475Z" transform="translate(-482.147 -574.297)" fill="#008fd2"/>
          <rect id="Rectangle_20" data-name="Rectangle 20" width="11.723" height="8.476" transform="translate(25.169 79.95)" fill="#008fd2"/>
        </g>
      </g>
    </g>
  </g>
</svg>
