<svg xmlns="http://www.w3.org/2000/svg" xmlns:xlink="http://www.w3.org/1999/xlink" width="513" height="475" viewBox="0 0 513 475">
  <defs>
    <clipPath id="clip-custom_1">
      <rect width="513" height="475"/>
    </clipPath>
  </defs>
  <g id="custom_1" data-name="custom – 1" clip-path="url(#clip-custom_1)">
    <g id="Group_45" data-name="Group 45" transform="translate(-272 -542)">
      <g id="Group_14" data-name="Group 14" transform="translate(-2400)">
        <g id="Group_11" data-name="Group 11">
          <g id="Group_10" data-name="Group 10">
            <path id="Path_28" data-name="Path 28" d="M3038.153,551.939a34.959,34.959,0,0,0-24.781-10.265H2866.63a35.047,35.047,0,0,0-35.047,35.046V871.629a35.045,35.045,0,0,0,35.047,35.045h146.742a35.043,35.043,0,0,0,35.045-35.045V576.72A34.952,34.952,0,0,0,3038.153,551.939Zm-190.256,6.05a26.4,26.4,0,0,1,18.733-7.759h146.742a26.483,26.483,0,0,1,26.461,25.353H2840.167A26.384,26.384,0,0,1,2847.9,557.989Zm191.965,313.64a26.491,26.491,0,0,1-26.49,26.49H2866.63a26.491,26.491,0,0,1-26.492-26.49V840.607h199.724Zm0-39.578H2840.138V584.139h199.724Z" fill="#464749"/>
            <circle id="Ellipse_1478" data-name="Ellipse 1478" cx="10.695" cy="10.695" r="10.695" transform="translate(2932.017 856.716)" fill="#464749"/>
          </g>
        </g>
        <g id="Group_13" data-name="Group 13">
          <g id="Group_12" data-name="Group 12">
            <path id="Path_29" data-name="Path 29" d="M2868,769.584h-8v34.591h34.591v-8H2868Z" fill="#008fd2"/>
            <path id="Path_30" data-name="Path 30" d="M2868,652.174h26.591v-8H2860v34.591h8Z" fill="#008fd2"/>
            <path id="Path_31" data-name="Path 31" d="M2985.408,644.174v8H3012v26.591h8V644.174Z" fill="#008fd2"/>
            <path id="Path_32" data-name="Path 32" d="M2883.757,706.579h34v-34h-34Zm8-26h18v18h-18Z" fill="#008fd2"/>
            <path id="Path_33" data-name="Path 33" d="M2962.243,706.579h34v-34h-34Zm8-26h18v18h-18Z" fill="#008fd2"/>
            <path id="Path_34" data-name="Path 34" d="M2883.757,776.182h34v-34h-34Zm8-26h18v18h-18Z" fill="#008fd2"/>
            <path id="Path_35" data-name="Path 35" d="M2950.126,741.711v10.455h-19.057v24.015h8V760.166h19.057V741.711Z" fill="#008fd2"/>
            <path id="Path_36" data-name="Path 36" d="M2982.228,718.365h-25.455v8h17.455v11.057h22.016v-8h-14.016Z" fill="#008fd2"/>
            <path id="Path_37" data-name="Path 37" d="M2912.819,727.638h24.065V699.623h13.057V672.167h-8v19.456h-13.057v28.015h-16.065Z" fill="#008fd2"/>
            <path id="Path_38" data-name="Path 38" d="M2988.243,768.182H2973.55v8h22.693V753.488h-8Z" fill="#008fd2"/>
            <rect id="Rectangle_5" data-name="Rectangle 5" width="11.065" height="8" transform="translate(2883.757 719.638)" fill="#008fd2"/>
          </g>
        </g>
      </g>
      <g id="Group_15" data-name="Group 15" transform="translate(-2400)">
        <path id="Path_39" data-name="Path 39" d="M2818.757,704.85a7.855,7.855,0,0,0-11.109,0l-8.852,8.85-2.612-1.387a66.189,66.189,0,0,0-11.611-4.822l-2.827-.867v-12.5a7.854,7.854,0,0,0-7.855-7.856h-17.783a7.856,7.856,0,0,0-7.856,7.856v12.5l-2.826.867a66.147,66.147,0,0,0-11.612,4.822L2731.2,713.7l-8.849-8.85a7.856,7.856,0,0,0-11.11,0l-12.575,12.574a7.855,7.855,0,0,0,0,11.11l8.849,8.85L2706.131,740a66.306,66.306,0,0,0-4.822,11.613l-.867,2.826h-12.5a7.854,7.854,0,0,0-7.856,7.855v17.783a7.856,7.856,0,0,0,7.856,7.856h12.5l.867,2.826a66.262,66.262,0,0,0,4.822,11.612l1.386,2.612-8.85,8.851a7.853,7.853,0,0,0,0,11.109l12.574,12.575a7.855,7.855,0,0,0,11.109,0l8.85-8.85,2.613,1.387a66.227,66.227,0,0,0,11.612,4.822l2.826.867v12.5a7.856,7.856,0,0,0,7.856,7.856h17.783a7.855,7.855,0,0,0,7.855-7.856v-12.5l2.827-.867a66.234,66.234,0,0,0,11.612-4.822l2.613-1.387,8.85,8.85a7.855,7.855,0,0,0,11.109,0l12.575-12.575c.089-.089.167-.185.251-.277V814.108c-.084-.093-.162-.188-.251-.278l-8.85-8.851,1.386-2.612a66.188,66.188,0,0,0,4.822-11.612l.867-2.826h2.026V754.435h-2.026l-.867-2.826A66.188,66.188,0,0,0,2823.868,740l-1.388-2.612,8.852-8.851c.089-.09.167-.186.251-.278V717.7c-.084-.092-.162-.188-.251-.278ZM2795.121,801.3A42.6,42.6,0,1,1,2765,728.582v0a42.6,42.6,0,0,1,30.121,72.722Z" fill="none"/>
        <path id="Path_40" data-name="Path 40" d="M2765,736.582a34.6,34.6,0,1,0,24.466,10.134A34.482,34.482,0,0,0,2765,736.582Z" fill="none"/>
        <path id="Path_41" data-name="Path 41" d="M2795.121,741.059A42.486,42.486,0,0,0,2765,728.582h0a42.6,42.6,0,1,0,30.122,12.477Zm-5.656,54.588a34.6,34.6,0,1,1,10.134-24.465A34.48,34.48,0,0,1,2789.465,795.647Z" fill="#74caf1"/>
        <path id="Path_42" data-name="Path 42" d="M2828.69,790.755a66.188,66.188,0,0,1-4.822,11.612l-1.386,2.612,8.85,8.851c.089.09.167.185.251.278V787.929h-2.026Z" fill="#74caf1"/>
        <path id="Path_43" data-name="Path 43" d="M2822.48,737.385l1.388,2.612a66.188,66.188,0,0,1,4.822,11.612l.867,2.826h2.026V728.256c-.084.092-.162.188-.251.278Z" fill="#74caf1"/>
        <path id="Path_44" data-name="Path 44" d="M2831.332,824.939l-12.575,12.575a7.855,7.855,0,0,1-11.109,0l-8.85-8.85-2.613,1.387a66.234,66.234,0,0,1-11.612,4.822l-2.827.867v12.5a7.855,7.855,0,0,1-7.855,7.856h-17.783a7.856,7.856,0,0,1-7.856-7.856v-12.5l-2.826-.867a66.227,66.227,0,0,1-11.612-4.822l-2.613-1.387-8.85,8.85a7.855,7.855,0,0,1-11.109,0l-12.574-12.575a7.853,7.853,0,0,1,0-11.109l8.85-8.851-1.386-2.612a66.262,66.262,0,0,1-4.822-11.612l-.867-2.826h-12.5a7.856,7.856,0,0,1-7.856-7.856V762.29a7.854,7.854,0,0,1,7.856-7.855h12.5l.867-2.826A66.306,66.306,0,0,1,2706.131,740l1.386-2.612-8.849-8.85a7.855,7.855,0,0,1,0-11.11l12.575-12.574a7.856,7.856,0,0,1,11.11,0l8.849,8.85,2.613-1.387a66.147,66.147,0,0,1,11.612-4.822l2.826-.867v-12.5a7.856,7.856,0,0,1,7.856-7.856h17.783a7.854,7.854,0,0,1,7.855,7.856v12.5l2.827.867a66.189,66.189,0,0,1,11.611,4.822l2.612,1.387,8.852-8.85a7.855,7.855,0,0,1,11.109,0l12.575,12.574c.089.09.167.186.251.278v-11.34l-7.169-7.169a15.856,15.856,0,0,0-22.423,0l-4.719,4.718a74.135,74.135,0,0,0-7.526-3.124v-6.666a15.856,15.856,0,0,0-15.855-15.856h-17.783a15.856,15.856,0,0,0-15.856,15.856v6.665a74.348,74.348,0,0,0-7.525,3.125l-4.718-4.718a15.857,15.857,0,0,0-22.424,0l-12.575,12.575a15.856,15.856,0,0,0,0,22.422l4.719,4.719a74.321,74.321,0,0,0-3.124,7.526h-6.666a15.856,15.856,0,0,0-15.856,15.855v17.783a15.856,15.856,0,0,0,15.856,15.856h6.666a74.2,74.2,0,0,0,3.124,7.525l-4.719,4.719a15.858,15.858,0,0,0,0,22.423l12.575,12.575a15.857,15.857,0,0,0,22.424,0l4.718-4.718a74.356,74.356,0,0,0,7.525,3.124v6.665a15.857,15.857,0,0,0,15.856,15.856h17.783a15.856,15.856,0,0,0,15.855-15.856v-6.665a74.155,74.155,0,0,0,7.526-3.125l4.719,4.719a15.856,15.856,0,0,0,22.423,0l7.169-7.169v-11.34C2831.5,824.754,2831.421,824.85,2831.332,824.939Z" fill="#74caf1"/>
      </g>
      <g id="Group_16" data-name="Group 16" transform="translate(-2400)">
        <path id="Path_45" data-name="Path 45" d="M3123.166,602.776v0a28.319,28.319,0,1,0,20.023,8.294A28.25,28.25,0,0,0,3123.165,602.776Zm14.366,42.683a20.316,20.316,0,1,1,5.951-14.365A20.239,20.239,0,0,1,3137.532,645.459Z" fill="#74caf1"/>
        <path id="Path_46" data-name="Path 46" d="M3179.822,617.382a11.448,11.448,0,0,0-8.109-3.36h-3.168q-.565-1.5-1.224-2.943l2.243-2.243a11.47,11.47,0,0,0,0-16.22l-7.922-7.921a11.466,11.466,0,0,0-16.219,0l-2.243,2.242q-1.446-.659-2.944-1.223v-3.168a11.468,11.468,0,0,0-11.469-11.469h-11.2a11.468,11.468,0,0,0-11.469,11.469v3.167q-1.5.566-2.944,1.224l-2.243-2.242a11.468,11.468,0,0,0-16.22,0l-7.921,7.921a11.47,11.47,0,0,0,0,16.219l2.244,2.243q-.658,1.448-1.223,2.944h-3.168a11.47,11.47,0,0,0-11.469,11.469v11.2a11.47,11.47,0,0,0,11.469,11.47h3.168q.564,1.5,1.223,2.944l-2.243,2.242a11.468,11.468,0,0,0,0,16.219l7.922,7.922a11.468,11.468,0,0,0,16.219,0l2.243-2.243q1.446.658,2.944,1.224v3.167a11.469,11.469,0,0,0,11.469,11.469h11.2a11.469,11.469,0,0,0,11.469-11.469v-3.168q1.5-.564,2.944-1.223l2.243,2.242a11.468,11.468,0,0,0,16.219,0l7.922-7.922a11.47,11.47,0,0,0,0-16.22l-2.242-2.242q.657-1.447,1.223-2.944h3.168a11.47,11.47,0,0,0,11.468-11.47v-11.2A11.448,11.448,0,0,0,3179.822,617.382Zm-4.641,19.312a3.469,3.469,0,0,1-3.468,3.47h-8.971l-.867,2.826a40.3,40.3,0,0,1-2.93,7.056l-1.386,2.612,6.348,6.349a3.468,3.468,0,0,1,0,4.906l-7.922,7.922a3.469,3.469,0,0,1-4.906,0l-6.349-6.35-2.613,1.387a40.167,40.167,0,0,1-7.056,2.93l-2.826.868v8.97a3.469,3.469,0,0,1-3.469,3.469h-11.2a3.469,3.469,0,0,1-3.469-3.469v-8.97l-2.826-.867a40.286,40.286,0,0,1-7.056-2.931l-2.612-1.387-6.35,6.35a3.468,3.468,0,0,1-4.905,0l-7.922-7.922a3.469,3.469,0,0,1,0-4.906l6.35-6.349-1.387-2.613a40.242,40.242,0,0,1-2.931-7.056l-.868-2.825h-8.969a3.469,3.469,0,0,1-3.469-3.47v-11.2a3.469,3.469,0,0,1,3.469-3.469h8.969l.868-2.825a40.243,40.243,0,0,1,2.931-7.056l1.387-2.613-6.351-6.349a3.47,3.47,0,0,1,0-4.906l7.922-7.922a3.467,3.467,0,0,1,4.905,0l6.35,6.349,2.612-1.387a40.208,40.208,0,0,1,7.056-2.93l2.826-.868v-8.97a3.469,3.469,0,0,1,3.469-3.469h11.2a3.469,3.469,0,0,1,3.469,3.469v8.97l2.826.868a40.167,40.167,0,0,1,7.056,2.93l2.612,1.387,6.35-6.35a3.468,3.468,0,0,1,4.906,0l7.921,7.921a3.467,3.467,0,0,1,0,4.906l-6.348,6.348,1.386,2.613a40.355,40.355,0,0,1,2.93,7.057l.868,2.825h8.97a3.469,3.469,0,0,1,3.468,3.469Z" fill="#74caf1"/>
      </g>
      <g id="Group_17" data-name="Group 17" transform="translate(-2400)">
        <path id="Path_47" data-name="Path 47" d="M3094,716.664v0a16.714,16.714,0,1,0,11.819,4.9A16.678,16.678,0,0,0,3094,716.664Zm8.48,25.194a11.99,11.99,0,1,1,3.513-8.479A11.948,11.948,0,0,1,3102.48,741.858Z" fill="#74caf1"/>
        <path id="Path_48" data-name="Path 48" d="M3127.442,725.285a6.759,6.759,0,0,0-4.786-1.983h-1.87q-.334-.883-.722-1.737l1.324-1.324a6.77,6.77,0,0,0,0-9.574l-4.675-4.676a6.771,6.771,0,0,0-9.575,0l-1.323,1.324q-.853-.388-1.738-.722v-1.87a6.77,6.77,0,0,0-6.77-6.77h-6.612a6.77,6.77,0,0,0-6.77,6.77v1.869q-.884.335-1.738.723l-1.324-1.324a6.769,6.769,0,0,0-9.574,0l-4.676,4.676a6.77,6.77,0,0,0,0,9.573l1.325,1.325q-.389.853-.722,1.737h-1.87a6.771,6.771,0,0,0-6.77,6.77v6.613a6.771,6.771,0,0,0,6.77,6.77h1.87q.333.883.722,1.737l-1.324,1.324a6.77,6.77,0,0,0,0,9.574l4.676,4.676a6.769,6.769,0,0,0,9.574,0l1.324-1.324q.853.388,1.738.722v1.87a6.77,6.77,0,0,0,6.77,6.77h6.612a6.77,6.77,0,0,0,6.77-6.77v-1.87q.884-.333,1.738-.722l1.324,1.324a6.768,6.768,0,0,0,9.573,0l4.677-4.676a6.771,6.771,0,0,0,0-9.574l-1.324-1.324q.389-.854.722-1.737h1.87a6.771,6.771,0,0,0,6.769-6.77v-6.613A6.758,6.758,0,0,0,3127.442,725.285Zm-2.739,11.4a2.047,2.047,0,0,1-2.047,2.047h-5.3l-.511,1.669a23.813,23.813,0,0,1-1.73,4.165l-.818,1.541,3.747,3.748a2.049,2.049,0,0,1,0,2.9l-4.677,4.676a2.046,2.046,0,0,1-2.9,0l-3.748-3.748-1.542.818a23.681,23.681,0,0,1-4.165,1.73l-1.668.512v5.295a2.049,2.049,0,0,1-2.048,2.048h-6.612a2.049,2.049,0,0,1-2.048-2.048v-5.295l-1.668-.512a23.752,23.752,0,0,1-4.165-1.729l-1.542-.819-3.748,3.748a2.046,2.046,0,0,1-2.9,0l-4.676-4.676a2.048,2.048,0,0,1,0-2.9l3.748-3.748-.819-1.542a23.793,23.793,0,0,1-1.73-4.165l-.512-1.668h-5.294a2.047,2.047,0,0,1-2.048-2.047v-6.613a2.048,2.048,0,0,1,2.048-2.048h5.294l.512-1.667a23.793,23.793,0,0,1,1.73-4.165l.819-1.543-3.749-3.747a2.049,2.049,0,0,1,0-2.9l4.676-4.676a2.046,2.046,0,0,1,2.9,0l3.748,3.748,1.542-.819a23.752,23.752,0,0,1,4.165-1.729l1.668-.512v-5.295a2.049,2.049,0,0,1,2.048-2.048h6.612a2.049,2.049,0,0,1,2.048,2.048v5.295l1.668.512a23.752,23.752,0,0,1,4.165,1.729l1.542.819,3.748-3.748a2.047,2.047,0,0,1,2.9,0l4.675,4.676a2.048,2.048,0,0,1,0,2.9l-3.747,3.747.818,1.542a23.8,23.8,0,0,1,1.73,4.166l.512,1.667h5.295a2.048,2.048,0,0,1,2.047,2.048Z" fill="#74caf1"/>
      </g>
    </g>
  </g>
</svg>
