<svg xmlns="http://www.w3.org/2000/svg" width="90" height="80" viewBox="0 0 90 80">
  <g id="Group_98" data-name="Group 98" transform="translate(-154.895 -1053.789)">
    <path id="Path_123" data-name="Path 123" d="M240.247,1073.789H217.236c.013.649.023,1.293.023,1.891,0,.819.034,1.7.09,2.609h19.278l-36.732,33.1-36.732-33.1h19.472a30.918,30.918,0,0,0,.33-4.079c0-.134,0-.28,0-.421H159.543a4.647,4.647,0,0,0-4.648,4.647v50.7a4.648,4.648,0,0,0,4.648,4.648h80.7a4.648,4.648,0,0,0,4.648-4.648v-50.7A4.647,4.647,0,0,0,240.247,1073.789ZM159.4,1129.014v-48.063l26.67,24.031Zm6.418.275,23.613-21.278,8.134,7.329a3.489,3.489,0,0,0,4.671,0l8.133-7.329,23.613,21.278Zm74.582-.275-26.67-24.032,26.67-24.032Z"/>
    <path id="Path_124" data-name="Path 124" d="M217.215,1089.521l-1.227-3.082a21.172,21.172,0,0,1-.977-3.2,31.856,31.856,0,0,1-.662-4.949c-.056-.9-.09-1.79-.09-2.609,0-.6-.01-1.242-.023-1.891-.018-.853-.043-1.719-.069-2.525-.046-1.411-.091-2.663-.09-3.171l0-.117.011-.082v-.161a14.022,14.022,0,0,0-10.065-13.376h0a14.021,14.021,0,0,0-13.871,3.538h0a13.982,13.982,0,0,0-4.106,9.843v.147l.011.08v.222c0,.514-.023,1.535-.046,2.652-.02.974-.039,2.022-.044,2.949,0,.141,0,.287,0,.421a30.918,30.918,0,0,1-.33,4.079c-.153,1.119-.353,2.31-.6,3.53a29.782,29.782,0,0,1-1.319,4.66l-1.144,3.042Zm-26.75-15.311c0-.132,0-.28,0-.421.005-.875.024-1.9.043-2.857.023-1.119.047-2.125.047-2.744,0-.122,0-.231,0-.335,0-.049,0-.093,0-.142a9.518,9.518,0,0,1,6.557-8.952c.2-.065.4-.121.61-.173a9.1,9.1,0,0,1,4.5-.029c.18.042.365.067.541.118a9.516,9.516,0,0,1,6.83,9.029l-.005.1c0,.1,0,.188,0,.289,0,.692.047,1.9.092,3.315.025.768.049,1.585.066,2.381.014.661.024,1.308.024,1.891,0,.817.032,1.7.082,2.609a36.675,36.675,0,0,0,.777,5.929v0c.06.267.142.533.211.8H188.9c.211-.783.4-1.561.549-2.324.3-1.52.548-3,.723-4.408A33.721,33.721,0,0,0,190.465,1074.21Z"/>
    <path id="Path_125" data-name="Path 125" d="M197.715,1095.123a6.208,6.208,0,0,0,8.147-4.072H193.929a6.177,6.177,0,0,0,3.786,4.072Z"/>
  </g>
</svg>
