<svg xmlns="http://www.w3.org/2000/svg" width="90" height="70.364" viewBox="0 0 90 70.364">
  <g id="Group_119" data-name="Group 119" transform="translate(-100 166.182)">
    <g id="Group_118" data-name="Group 118" transform="translate(0 -556)">
      <g id="Group_117" data-name="Group 117">
        <path id="Path_160" data-name="Path 160" d="M187.136,389.818H102.864A2.864,2.864,0,0,0,100,392.682V439.77h90V392.682A2.864,2.864,0,0,0,187.136,389.818ZM185.909,436.5H104.091V393.543h81.818Z" fill="#404041"/>
        <path id="Path_161" data-name="Path 161" d="M100,448.318a2.864,2.864,0,0,0,2.864,2.864h84.272A2.864,2.864,0,0,0,190,448.318V441H100Zm45-4.048a1.841,1.841,0,1,1-1.841,1.841A1.841,1.841,0,0,1,145,444.27Z" fill="#404041"/>
        <path id="Path_162" data-name="Path 162" d="M158.295,458.136h-2.556L154.205,452h-18.41l-1.534,6.136h-2.556a1.023,1.023,0,0,0,0,2.046h26.59a1.023,1.023,0,0,0,0-2.046Z" fill="#404041"/>
      </g>
    </g>
  </g>
</svg>
