<svg xmlns="http://www.w3.org/2000/svg" width="43.957" height="45.903" viewBox="0 0 43.957 45.903">
  <path id="path6398-7" d="M472.3,354.221c-.752.085-1.246,1.365-.266,3.423-13.3,5.613-15.432,10.091-13.83,14.752,3.086-2.583,6.537-2.77,10.064-2.5a13.578,13.578,0,0,1,6.72-3.657l4.032,14.143h-9.689l-6.47-6.47a1.481,1.481,0,0,0-2.094,2.094l14.706,14.737a1.482,1.482,0,0,0,1.062.422H482.1l2.547,8.939,1.11.016-2.548-8.955h11.112l4.656,8.08a1.488,1.488,0,0,0,2.579-1.469l-5.1-8.83a1.484,1.484,0,0,0-1.281-.75H482.365l-1.375-4.845h2.094l1.7,2.938a1.484,1.484,0,0,0,2.661-1.315,1.582,1.582,0,0,0-.1-.169l-2.11-3.673a1.485,1.485,0,0,0-1.282-.75h-3.813l-4.11-14.44a13.588,13.588,0,0,1,7.642-.437c2.854-2.09,5.893-3.756,9.877-3.189-1.1-4.805-5.274-7.479-19.535-5.235-.2-2.074-1.055-2.935-1.719-2.86Zm-.172,4.126a14.584,14.584,0,0,0-6.626,9.83,9.813,9.813,0,0,0-5.985,1.562C459.583,365.721,462.915,362.762,472.129,358.347Zm.157,25h7.579l1.391,4.845H477.13l-4.844-4.845Zm2.359,7.923a1.484,1.484,0,0,0-1.2.766l-3.313,5.735a1.484,1.484,0,1,0,2.563,1.469l3.329-5.719a1.484,1.484,0,0,0-1.079-2.235,1.355,1.355,0,0,0-.156-.016q-.07,0-.141,0Z" transform="translate(-457.746 -354.217)" fill="#409FD8"/>
</svg>
