<svg xmlns="http://www.w3.org/2000/svg" width="60.547" height="39.041" viewBox="0 0 60.547 39.041">
  <g id="Group_1109" data-name="Group 1109" transform="translate(-201.271 -67.294)">
    <path id="Path_4355" data-name="Path 4355" d="M261.482,92.259q-1.524-.024-3.047-.044a19.039,19.039,0,0,0-.226-3.262c-.016-.08-.033-.2-.046-.244a.824.824,0,0,0-.8-.436l-.621-.045a.7.7,0,0,0-.432.115c-.044-.558-.089-.992-.125-1.288-.008-.075-.066-.572-.073-.618a.853.853,0,0,0-.8-.691c-.39-.018-.991-.05-.991-.048a.825.825,0,0,1-1.541-.018l-.991-.011a.823.823,0,0,0-.834.811s-.23,2.217-.3,5.969c-1.916-.021-3.8-.038-5.671-.052.319-2.184.948-9.036-2.795-13.664a11.143,11.143,0,0,0-6.1-3.808c-.024.046-.046.093-.071.138a6.632,6.632,0,0,1-.551.836,5.009,5.009,0,0,1-3.733,2.07l-.069,0h-.034l-.219,0a5.015,5.015,0,0,1-3.716-2.079,6.683,6.683,0,0,1-.517-.781,11.764,11.764,0,0,0-5.312,3.365c-4.244,4.683-4.1,11.9-3.972,13.926-1.816.013-3.641.03-5.5.05-.067-3.751-.3-5.969-.3-5.969a.823.823,0,0,0-.835-.811l-.991.011a.824.824,0,0,1-1.541.018l-.991.049a.854.854,0,0,0-.8.691c-.007.045-.065.542-.073.617-.035.3-.081.73-.125,1.289a.688.688,0,0,0-.431-.116l-.621.045a.828.828,0,0,0-.8.437c-.013.041-.029.162-.045.244a18.963,18.963,0,0,0-.227,3.262l-3.046.043a.241.241,0,0,0-.218.147,3.193,3.193,0,0,0-.088,1.059,3.019,3.019,0,0,0,.128,1.07.241.241,0,0,0,.215.126q1.521-.024,3.043-.044a20.682,20.682,0,0,0,.293,3.14c.032.159.06.312.074.35a.819.819,0,0,0,.807.419l.618.028a.687.687,0,0,0,.427-.126c.025.246.05.469.074.664.046.373.164,1.207.176,1.258a.831.831,0,0,0,.812.649c.416.021.984.025.984.024a.816.816,0,0,1,1.529-.017l.984-.011a.82.82,0,0,0,.811-.828s.183-2.223.174-5.976c2.109-.022,4.176-.041,6.237-.055a1.7,1.7,0,0,0,1.984-.014l1.756-.009c-.109.332-.21.666-.3,1a35.532,35.532,0,0,0-.863,6.754c-.119,1.489.213,4.466,1.569,4.466s1.761-.937,1.922-1.83a31.985,31.985,0,0,1,.933-5.6,17.261,17.261,0,0,1,2.4-4.815q1.511,0,3.061,0c1.387,0,2.742,0,4.08,0a16.5,16.5,0,0,1,2.473,4.814c.765,2.461.543,3.923.766,5.713.113.9.5,1.714,1.752,1.714s1.71-2.339,1.783-4.048a20.208,20.208,0,0,0-.741-6.868c-.115-.434-.252-.87-.4-1.305l1.36.007a1.7,1.7,0,0,0,1.992.013c2.132.015,4.271.034,6.453.057-.009,3.752.173,5.975.174,5.975a.819.819,0,0,0,.811.828l.983.011a.817.817,0,0,1,1.53.018s.568,0,.984-.025a.83.83,0,0,0,.812-.649c.01-.051.13-.885.175-1.257.024-.2.049-.418.075-.664a.681.681,0,0,0,.426.126l.619-.029a.814.814,0,0,0,.806-.418c.014-.038.043-.191.075-.35a20.931,20.931,0,0,0,.292-3.141l3.043.044a.24.24,0,0,0,.215-.125,4.18,4.18,0,0,0,.04-2.129A.24.24,0,0,0,261.482,92.259Zm-35.536-6.406c-.261,1.38-1.746,3.787-2.89,6.514l-1.743.009a11.9,11.9,0,0,1,3.1-8.989,6.415,6.415,0,0,1,1.2-1.026A7.086,7.086,0,0,1,225.946,85.853Zm5.178,6.494h-1.51a3.674,3.674,0,0,1,1.978-1.013,3.818,3.818,0,0,1,2.01,1.014Zm10.413.028-1.39-.008c-1.171-2.71-2.657-5.177-2.91-6.514a7.72,7.72,0,0,1,.386-3.882,5.8,5.8,0,0,1,1.908,1.532A10.278,10.278,0,0,1,241.537,92.375Z" fill="#409FD8"/>
    <path id="Path_4356" data-name="Path 4356" d="M231.469,77.039l.175,0,.05,0c2.251-.094,4.051-2.5,4.051-5.136a4.344,4.344,0,0,0-4.1-4.607v0l-.052,0-.053,0v0a4.343,4.343,0,0,0-4.1,4.607C227.439,74.529,229.227,76.933,231.469,77.039Z" fill="#409FD8"/>
  </g>
</svg>
