<svg xmlns="http://www.w3.org/2000/svg" width="90" height="86.136" viewBox="0 0 90 86.136">
  <g id="Group_135" data-name="Group 135" transform="translate(-495 179.068)">
    <g id="Group_134" data-name="Group 134" transform="translate(0 -331)">
      <path id="Path_176" data-name="Path 176" d="M540.022,151.932a27.977,27.977,0,0,1,27.71,28.817,32.883,32.883,0,0,1-4.174,14.2c-4.442,8.563-10.593,15.771-17.654,22.253-1.332,1.223-2.7,2.4-4.093,3.562a2.636,2.636,0,0,1-3.583.053c-8.674-7.242-16.3-15.385-21.6-25.481a36.5,36.5,0,0,1-4.108-11.494,27.792,27.792,0,0,1,21.612-31.117C536.066,152.326,538.057,152.191,540.022,151.932Zm-.094,44.565a16.346,16.346,0,1,0-16.29-16.424A16.393,16.393,0,0,0,539.928,196.5Z" fill="#404041"/>
      <path id="Path_177" data-name="Path 177" d="M584.528,233.366c-4.355-7.755-8.684-15.525-13.105-23.243A7.71,7.71,0,0,0,569,207.739a9.387,9.387,0,0,0-4.663-1.294,1.326,1.326,0,0,0-1.323.631A100.242,100.242,0,0,1,545.5,225.448a8.5,8.5,0,0,1-10.986.032,97.952,97.952,0,0,1-17.358-18.149,1.819,1.819,0,0,0-1.911-.867c-3.173.362-5.675,1.547-7.312,4.578-4.017,7.432-8.239,14.753-12.378,22.119-1.025,1.824-.662,3.308,1.286,4.117a10.448,10.448,0,0,0,3.871.757l78.584.029a6.8,6.8,0,0,0,1.77-.116,10.092,10.092,0,0,0,2.629-.993A2.388,2.388,0,0,0,584.528,233.366Z" fill="#404041"/>
    </g>
  </g>
</svg>
