<svg xmlns="http://www.w3.org/2000/svg" width="89.87" height="90" viewBox="0 0 89.87 90">
  <g id="Group_133" data-name="Group 133" transform="translate(-663.809 188)">
    <g id="Group_132" data-name="Group 132" transform="translate(-8 -338)">
      <path id="Path_173" data-name="Path 173" d="M760.44,184.46a43.125,43.125,0,0,0-6.28-14.348c-.869-1.274-1.77-2.532-2.741-3.729a43.53,43.53,0,0,0-9.621-8.75,45.025,45.025,0,0,0-31.4-7.186,43.983,43.983,0,0,0-13.485,4.148,44.984,44.984,0,0,0-23.936,30.019,42.853,42.853,0,0,0-1.11,7.745c-.076,1.494-.072,3-.031,4.491A42.035,42.035,0,0,0,673.154,206,45.093,45.093,0,0,0,678,217.8a.849.849,0,0,1,.083.583c-.508,1.96-1.041,3.915-1.561,5.873-.616,2.321-1.22,4.646-1.839,6.967-.378,1.42-.791,2.832-1.158,4.255a2.167,2.167,0,0,0,2.7,2.682c1.015-.26,2.024-.545,3.036-.818q6.887-1.854,13.773-3.717a1.21,1.21,0,0,1,1.024.137,44.483,44.483,0,0,0,15.989,5.641,45.621,45.621,0,0,0,6.7.5l.008.1c2.1-.18,4.213-.282,6.3-.557a38.987,38.987,0,0,0,9.752-2.54c1.51-.62,3.025-1.242,4.481-1.978A43.762,43.762,0,0,0,748.246,227,44.985,44.985,0,0,0,760.44,184.46Zm-43.41,46.392a35.9,35.9,0,1,1,35.6-36.059A35.838,35.838,0,0,1,717.03,230.852Z" fill="#409FD8"/>
      <path id="Path_174" data-name="Path 174" d="M716.425,212.728c1.261-4.452,2.552-8.9,3.833-13.343q1.668-5.787,3.339-11.573c.215-.744.428-1.489.64-2.225a20.717,20.717,0,0,0-2.458.017c-1.483.179-2.953.463-4.429.7q-4.032.646-8.063,1.293c-.083.014-.209.061-.23.122-.156.459-.291.926-.439,1.413.657,0,1.258-.034,1.855.007a2.306,2.306,0,0,1,2.185,2.566,20.677,20.677,0,0,1-.672,3.237c-1.548,5.313-3.105,10.624-4.636,15.941A31.347,31.347,0,0,0,706,216.219a4.728,4.728,0,0,0,2.051,4.764,6.127,6.127,0,0,0,4.346.828,9.91,9.91,0,0,0,4.946-2.194,20.941,20.941,0,0,0,4.3-4.705c.68-.984,1.307-2.005,1.974-3.032l-1.367-.774c-.107.162-.189.3-.286.432-.874,1.17-1.7,2.377-2.643,3.492a7.578,7.578,0,0,1-1.863,1.594,1.091,1.091,0,0,1-1.6-1.166A22.743,22.743,0,0,1,716.425,212.728Z" fill="#409FD8"/>
      <path id="Path_175" data-name="Path 175" d="M721.943,168.031a5.6,5.6,0,1,0,5.561,5.654A5.516,5.516,0,0,0,721.943,168.031Z" fill="#409FD8"/>
    </g>
  </g>
</svg>
