<svg xmlns="http://www.w3.org/2000/svg" width="47.254" height="47.254" viewBox="0 0 47.254 47.254">
  <g id="Group_28" data-name="Group 28" transform="translate(-236.492 -400.572)">
    <circle id="Ellipse_6" data-name="Ellipse 6" cx="23.627" cy="23.627" r="23.627" transform="translate(236.492 400.572)" fill="#249fda"/>
    <g id="Group_27" data-name="Group 27">
      <path id="Path_37" data-name="Path 37" d="M273.469,434.093h-26.7a.885.885,0,0,1-.885-.885V415.19a.885.885,0,0,1,.885-.885h26.7a.884.884,0,0,1,.884.885v18.018A.884.884,0,0,1,273.469,434.093Zm-25.815-1.77h24.93V416.075h-24.93Z" fill="#fff"/>
      <path id="Path_38" data-name="Path 38" d="M260.119,426.973a3.905,3.905,0,0,1-2.609-1l-11.33-10.126a.884.884,0,0,1,.589-1.544h26.7a.885.885,0,0,1,.589,1.544l-11.33,10.126A3.905,3.905,0,0,1,260.119,426.973Zm-11.031-10.9,9.6,8.581a2.142,2.142,0,0,0,2.858,0h0l9.6-8.581Z" fill="#fff"/>
      <path id="Path_39" data-name="Path 39" d="M273.469,433.97h-26.7a.884.884,0,0,1-.59-1.544l9.944-8.887a.885.885,0,1,1,1.18,1.319l-8.216,7.343H271.15l-8.215-7.343a.885.885,0,1,1,1.18-1.319l9.943,8.887a.884.884,0,0,1-.589,1.544Z" fill="#fff"/>
    </g>
  </g>
</svg>
