<svg xmlns="http://www.w3.org/2000/svg" width="429.823" height="40.733" viewBox="0 0 429.823 40.733">
  <g id="Group_104" data-name="Group 104" transform="translate(-1390.202 -2178.239)">
    <path id="Path_84" data-name="Path 84" d="M1422.37,2190.12a6.961,6.961,0,0,0-1-3.667,12.175,12.175,0,0,0-9.685-7.435l-.727-.082a2.792,2.792,0,0,0-.838-.294q-8.291-.044-16.579-.045c-.5,0-.994.04-1.25.58a.337.337,0,0,0-.318.086,2.413,2.413,0,0,0-1.746,2.531q-.053,13.088.005,26.176a3.158,3.158,0,0,0,3.176,3.2c6.133-.036,12.286.481,18.4-.363,5.865-.811,9.807-5.515,10.559-11.119q.064-.723.127-1.444a14.687,14.687,0,0,0,0-6.683Q1422.43,2190.84,1422.37,2190.12Zm-6.029,7.5a7.371,7.371,0,0,1-6.694,6.872c-.368.041-.746.057-.893.494h-.718c-.853.636-4.67.817-7.2.541,2.527.276,6.344.094,7.2-.541a50.168,50.168,0,0,0-9.316.007H1398c-.833.464-1.375.321-1.679-.337.3.658.846.8,1.679.337-.58-.8-1.481-1.287-1.456-2.573.1-5.034.043-10.07.04-15.106a2.08,2.08,0,0,1,2.4-2.334c2.825.012,5.651-.046,8.474.016,4.815.1,8.425,2.413,8.869,7.112a29.481,29.481,0,0,1,.013,5.512Z" fill="#fff"/>
    <path id="Path_85" data-name="Path 85" d="M1579.88,2186.24c-5.178-.737-10.451-1.262-15.61.586-2.222.795-5.03,4.186-5.005,6.608.034,3.311-.1,6.619.114,9.937.323,5,3.3,8.029,8.325,8.124,1.351.026,2.7,0,4.055,0v.01h4.055c2.117-.009,2.707-.538,2.885-2.653a15.575,15.575,0,0,0,0-2.027c-.061-1.274-.534-2.007-2.031-1.951-2.7.1-5.405.044-8.108.011a2.483,2.483,0,0,1-2.693-2.434,60.088,60.088,0,0,1-.006-7c.068-1.261.629-2.424,2.2-2.435,3.194-.025,6.389,0,9.583-.008a1.438,1.438,0,0,1,1.365.73c.9,1.437.09,2.895-1.814,2.961-2.639.091-5.283.032-7.924.033-.878,0-1.944-.01-2.324.8a6.5,6.5,0,0,0-.115,4.493c.329,1.172,1.688,1.311,2.8,1.331,2.518.045,5.038-.036,7.555.022,4.842.111,9.855-3.228,9.349-9.514a8.01,8.01,0,0,0-6.656-7.624Z" fill="#fff"/>
    <path id="Path_86" data-name="Path 86" d="M1504.78,2186.79a46.2,46.2,0,0,0-12.3-.328c-1.984.143-4.375.141-5.63,2.375l-.1.1c-2.788,1.409-3.134,4.095-3.183,6.7-.128,6.759-.056,13.523-.039,20.284.006,2.452.742,3.068,3.484,3.05,2.378-.016,2.978-.633,2.981-3.124.008-6.455-.01-12.909.014-19.363.01-2.786.907-3.667,3.632-3.68q3.964-.021,7.93,0c2.193.01,3.136.842,3.251,3.056a51.242,51.242,0,0,1,.007,5.53c-.155,2.76-1.171,3.653-3.972,3.679-2.274.022-4.549,0-6.823.019-.6,0-1.379-.145-1.7.45-.78,1.425-.477,3.017-.23,4.491.179,1.066,1.4,1.139,2.28,1.161,2.764.068,5.537.133,8.3-.01,3.9-.2,7.4-2.435,8.045-6.906a39.781,39.781,0,0,0,.141-10.094C1510.47,2190.59,1508.81,2187.59,1504.78,2186.79Z" fill="#fff"/>
    <path id="Path_87" data-name="Path 87" d="M1819.68,2194.01a8.221,8.221,0,0,0-5.959-7.309c-2.619-.85-5.21-.533-7.82-.667-1.12-.058-2.22-.071-2.994.976a.84.84,0,0,1-1.142.215c-4.53-1.974-9.317-1.034-14-1.119a2.5,2.5,0,0,0-2.78,1.813q-.07.288-.143.576a1.438,1.438,0,0,0-1,1.568c.01,6.205-.035,12.41.025,18.614.02,2.087,1.247,2.905,3.819,2.831,2.488-.071,3.167-.688,3.175-2.969.016-4.545.041-9.092-.005-13.637-.013-1.346.484-1.9,1.836-1.84,1.472.067,2.949.042,4.423.012a2.3,2.3,0,0,1,2.627,2.2,19.338,19.338,0,0,1,.278,3.1c-.019,3.5.012,7-.01,10.5a2.215,2.215,0,0,0,1.17,2.29c2.955,1.517,5.524.045,5.537-3.224.016-4.3-.008-8.6,0-12.9,0-.646-.19-1.376.56-1.814a3.732,3.732,0,0,1,5.671,3.208c.019,4.177.048,8.355-.005,12.532a2.117,2.117,0,0,0,1.959,2.447c3.305.279,5.058.31,5.047-3.991A121.019,121.019,0,0,0,1819.68,2194.01Z" fill="#fff"/>
    <path id="Path_88" data-name="Path 88" d="M1479.8,2194.79a9.235,9.235,0,0,0-8.808-8.966,71.989,71.989,0,0,0-11.04.01c-3,.23-5.818,1.582-7.172,4.394-2.452,5.091-1.962,10.489-.706,15.8a6.721,6.721,0,0,0,4.689,4.989,31.048,31.048,0,0,0,16.459.386,8.609,8.609,0,0,0,6.578-8.327c.009-1.35,0-2.7,0-4.051C1479.81,2197.61,1479.82,2196.2,1479.8,2194.79Zm-7.271,7.042a2.643,2.643,0,0,1-2.759,2.956c-2.823.076-5.651.081-8.473,0a2.694,2.694,0,0,1-2.759-2.976q-.038-2.855,0-5.71c.029-2.29.714-2.984,2.952-3.02,1.35-.022,2.7,0,4.053,0s2.7-.019,4.052.006c2.172.039,2.9.73,2.934,2.854.041,1.958.031,3.928,0,5.888Z" fill="#fff"/>
    <path id="Path_89" data-name="Path 89" d="M1734.34,2193.35q6.174-.018,12.348,0c1.628,0,2.567-.6,2.427-2.406-.085-1.1-.024-2.21-.026-3.316,0-1.185-.575-1.71-1.775-1.883-3.733-.54-7.478-.252-11.215-.249a18.667,18.667,0,0,0-7.27,1.2c-3.016,1.229-4.328,3.452-5,6.189-.836,3.424-.441,6.974-.237,10.45a8.679,8.679,0,0,0,2.608,5.9,10.829,10.829,0,0,0,7.13,2.871c2.082.119,4.176.024,6.264.025h4.424c5.142,0,5.142,0,5.084-5.09-.024-2.057-.681-2.778-2.73-2.81-2.7-.042-5.406.028-8.108-.027a24.529,24.529,0,0,1-5.5-.264,1.925,1.925,0,0,1-1.756-2.151c.032-1.72-.005-3.44.006-5.16C1731.04,2194.13,1731.8,2193.36,1734.34,2193.35Z" fill="#fff"/>
    <path id="Path_90" data-name="Path 90" d="M1707.42,2187a31.561,31.561,0,0,0-16.5-.013,6.714,6.714,0,0,0-4.8,4.877,26.073,26.073,0,0,0-.1,13.424c.639,2.631,3.132,5.372,5.717,5.819a55,55,0,0,0,10.646.367c1.564-.034,2.624-.728,2.076-2.583q0-.7.006-1.406c.213-2.177-.089-2.551-2.175-2.569-2.4-.021-4.79,0-7.185-.014-2.271-.016-3.279-.9-3.383-3.151-.092-2.023-.088-4.056.011-6.078.075-1.533.755-2.841,2.495-2.887,3.252-.087,6.509-.063,9.762.014,1.3.03,2.326.772,2.195,2.168-.117,1.244-1.053,1.807-2.374,1.779-2.516-.052-5.035-.015-7.553-.006-3.3.011-3.464.193-3.112,3.449.032.3.163.6.181.9.084,1.466.9,2.02,2.3,2,2.948-.037,5.9.056,8.843-.042,6.744-.223,10.164-6.935,6.826-12.877A6.374,6.374,0,0,0,1707.42,2187Z" fill="#fff"/>
    <path id="Path_91" data-name="Path 91" d="M1447.26,2185.74c-3.07.034-6.141,0-9.212.015a14.327,14.327,0,0,0-5.508.88,9.459,9.459,0,0,0-6.036,8.661c.071,2.208.013,4.421.013,6.632,0,2.272-.008,4.544,0,6.816.011,2.5.971,3.378,3.659,3.394,3.349.018,3.865-.4,3.883-3.315.026-4.115,0-8.229.016-12.344.007-2.144.952-3.092,3.117-3.117,2.272-.025,4.545.014,6.817-.013,5.735-.068,5.272,1.057,5.216-5.76C1449.22,2186.29,1448.56,2185.73,1447.26,2185.74Z" fill="#fff"/>
    <path id="Path_92" data-name="Path 92" d="M1779.43,2190.63a10.617,10.617,0,0,0-9.009-5.16q-2.855-.051-5.71,0c-2.724.044-5.412-.256-8.01,1.3-3.016,1.8-4.928,4.162-5.131,7.637-.179,3.059-.052,6.137-.026,9.207.021,2.509,3.141,6.946,6.093,7.892,2.915.934,5.755.868,8.663.945,2.923.027,5.869.291,8.612-1.12a9.2,9.2,0,0,0,4.863-4.956,24.035,24.035,0,0,0,.863-10.844C1780.45,2193.92,1780.37,2192.05,1779.43,2190.63Zm-5.969,11.553a2.533,2.533,0,0,1-2.656,2.677c-3.129.078-6.261.058-9.39.013a2.511,2.511,0,0,1-2.786-2.534,44,44,0,0,1,.015-6.973c.156-1.987,1.265-2.634,3.047-2.625,1.473.008,2.946,0,4.419,0s2.947-.023,4.419.007a2.706,2.706,0,0,1,2.937,2.806c.074,2.206.074,4.426-.006,6.626Z" fill="#fff"/>
    <path id="Path_93" data-name="Path 93" d="M1680.2,2186.04c-1.78-.028-3.562.016-5.341-.026-1.374-.033-2.17-.634-2.053-2.175.088-1.159.021-2.331.011-3.5-.013-1.616-1.279-1.9-2.416-1.955-1.583-.084-3.365-.551-4.534,1.1-.181.255-.084.718-.087,1.085-.009,1.167-.03,2.334,0,3.5.037,1.41-.635,2.014-2.02,1.967-1.1-.037-2.213.05-3.314-.017-1.249-.075-1.788.594-2,1.683-.869,4.4-.091,5.362,4.321,5.366h.368c2.183.009,2.563.325,2.626,2.526s.013,4.42.013,6.63h.006c0,2.088-.011,4.175,0,6.263.016,2.392.7,3.01,3.292,3.019,3,.01,3.734-.554,3.742-2.948.016-4.482.05-8.965-.012-13.446-.021-1.484.447-2.136,2-2.062,1.9.09,3.806.023,5.709.007a2.085,2.085,0,0,0,2.3-2.279c.025-.736.028-1.474.006-2.21C1682.76,2186.74,1682.08,2186.07,1680.2,2186.04Z" fill="#fff"/>
    <path id="Path_94" data-name="Path 94" d="M1554.14,2180.37a3.179,3.179,0,0,0-5.433-1l-6.552,11.014-5.7,9.8c-.778,1.083-1.3,1.091-2.1.223-.322-.351-.618-.726-.926-1.09l-10.625-18.581c-.971-1.493-1.936-2.738-3.883-2.416-1.876.31-2.544,1.35-2.549,3.84q-.024,13.153-.008,26.306c0,1.043-.15,2.45,1.131,2.577,1.491.148,3.225.986,4.562-.559a.3.3,0,0,0,.081-.271c.83-.481.551-1.3.556-1.991.027-4.107.005-8.215.034-12.323.005-.633-.23-1.348.322-1.886.394.034.533.3.681.574,1.383,2.515,2.687,5.078,4.184,7.523l4.044,6.875a3.3,3.3,0,0,0,2.873,2.527,3.489,3.489,0,0,0,3.475-1.948q3.756-6.513,7.593-12.979c.279-.473.3-1.4,1.152-1.158s.638,1.091.641,1.738c.018,3.626.007,7.253.017,10.879.008,2.659.55,3.175,3.286,3.181,3.136.006,3.469-.269,3.473-3.063q.015-12.723.006-25.445a6.354,6.354,0,0,0-.335-2.346Z" fill="#fff"/>
    <path id="Path_95" data-name="Path 95" d="M1655.56,2194.54s.251-4.458-2.724-6.525a14.342,14.342,0,0,0-4.415-1.3,55.169,55.169,0,0,0-11.183-.279c-2.221.108-5.078.922-6.356,1.989a7.936,7.936,0,0,0-1.711,2.987,24.5,24.5,0,0,0-.341,13.749,7.163,7.163,0,0,0,6.186,5.716,54.2,54.2,0,0,0,12.833.245c5.053-.316,7.711-3.55,7.76-8.672C1655.64,2199.81,1655.73,2197.16,1655.56,2194.54Zm-6.084,8.169a2.8,2.8,0,0,1-3.156,2.429c-1.405-.088-2.819-.018-4.229-.018v-.007c-1.533,0-3.067.046-4.6-.012a2.634,2.634,0,0,1-2.885-2.862c-.065-2.205-.078-4.415,0-6.619.076-2.237.923-3.056,3.216-3.107,2.819-.062,5.64,0,8.459-.024a3.03,3.03,0,0,1,3.354,2.739,20.3,20.3,0,0,1-.155,7.482Z" fill="#fff"/>
    <path id="Path_96" data-name="Path 96" d="M1623.45,2181.62c0-1.058.189-1.987-1.093-2.769a3.792,3.792,0,0,0-4.595.413l-.051.039a2.533,2.533,0,0,0-.674,1.842c-.032,5.568-.017,11.137-.028,16.706,0,.59.179,1.317-.527,1.626-.743.325-1.058-.424-1.5-.789l-4.66-4.945c-3.151-3.31-6.493-6.43-9.539-9.848a21.155,21.155,0,0,0-4.889-4.6l-.049-.042c-1.517-1.359-2.552-1.352-3.9.026l-.032.026c-1.462.475-1.381,1.776-1.387,2.882-.042,8.841-.023,17.682-.027,26.524a2.008,2.008,0,0,0,.658,1.823,5.223,5.223,0,0,0,4.59.473c1.541-.389,1.185-1.793,1.219-2.921.165-5.453-.325-10.918.293-16.364.055-.48-.076-1.067.448-1.319.695-.334.934.39,1.314.724l8.283,8.519,10.5,10.905c2.293,1.885,4.771.942,5.3-1.931a19.481,19.481,0,0,0,.363-3.641C1623.44,2197.2,1623.46,2189.41,1623.45,2181.62Z" fill="#fff"/>
    <path id="Path_97" data-name="Path 97" d="M1717.43,2204.61c-1.822-.03-3.835,1.438-3.606,3.5.2,1.85,1.847,3.659,3.661,3.627a3.969,3.969,0,0,0,3.545-3.782,3.441,3.441,0,0,0-3.6-3.345Z" fill="#fff"/>
  </g>
</svg>
