<svg xmlns="http://www.w3.org/2000/svg" width="90" height="90" viewBox="0 0 90 90">
  <g id="Group_36" data-name="Group 36" transform="translate(-285.097 -109.238)">
    <path id="Path_65" data-name="Path 65" d="M289.6,113.737h16.5v-4.5h-21v21h4.5Z" fill="#249fda"/>
    <path id="Path_66" data-name="Path 66" d="M354.1,109.237v4.5h16.5v16.5h4.5v-21Z" fill="#249fda"/>
    <path id="Path_67" data-name="Path 67" d="M289.6,178.238h-4.5v21h21v-4.5H289.6Z" fill="#249fda"/>
    <path id="Path_68" data-name="Path 68" d="M370.6,194.737H354.1v4.5h21v-21h-4.5Z" fill="#249fda"/>
    <rect id="Rectangle_5" data-name="Rectangle 5" width="6" height="6" transform="translate(309.097 169.238)" fill="#249fda"/>
    <path id="Path_69" data-name="Path 69" d="M297.1,187.237h30v-30h-30Zm4.5-25.5h21v21h-21Z" fill="#249fda"/>
    <path id="Path_70" data-name="Path 70" d="M333.1,157.238h0v18h18v-18h-18Zm13.5,13.5h-9v-9h9Z" fill="#249fda"/>
    <rect id="Rectangle_6" data-name="Rectangle 6" width="3" height="3" transform="translate(340.598 164.738)" fill="#249fda"/>
    <rect id="Rectangle_7" data-name="Rectangle 7" width="6" height="6" transform="translate(309.097 133.238)" fill="#249fda"/>
    <path id="Path_71" data-name="Path 71" d="M297.1,151.237h30v-30h-30Zm4.5-25.5h21v21h-21Z" fill="#249fda"/>
    <rect id="Rectangle_8" data-name="Rectangle 8" width="6" height="6" transform="translate(345.097 133.238)" fill="#249fda"/>
    <path id="Path_72" data-name="Path 72" d="M363.1,121.237h-30v30h30Zm-4.5,25.5h-21v-21h21Z" fill="#249fda"/>
  </g>
</svg>
