<svg xmlns="http://www.w3.org/2000/svg" width="90" height="90" viewBox="0 0 90 90">
  <g id="Group_27" data-name="Group 27" transform="translate(-395.846 -467.255)">
    <path id="Path_47" data-name="Path 47" d="M440.846,492.72a19.536,19.536,0,1,0,19.535,19.536A19.536,19.536,0,0,0,440.846,492.72Zm10.67,30.206a15.09,15.09,0,1,1,4.42-10.67A15.034,15.034,0,0,1,451.516,522.926Z" fill="#fff"/>
    <path id="Path_48" data-name="Path 48" d="M479.846,501.755h-4.832a35.548,35.548,0,0,0-2.587-6.231l3.421-3.421a6,6,0,0,0,0-8.485l-6.364-6.364a6,6,0,0,0-8.486,0l-3.42,3.42a35.587,35.587,0,0,0-6.232-2.587v-4.832a6,6,0,0,0-6-6h-9a6,6,0,0,0-6,6v4.832a35.522,35.522,0,0,0-6.232,2.587l-3.421-3.42a6,6,0,0,0-8.485,0l-6.364,6.364a6,6,0,0,0,0,8.485l3.421,3.421a35.473,35.473,0,0,0-2.588,6.231h-4.831a6,6,0,0,0-6,6v9a6,6,0,0,0,6,6h4.831a35.449,35.449,0,0,0,2.588,6.232l-3.421,3.421a6,6,0,0,0,0,8.485l6.364,6.364a6,6,0,0,0,8.485,0l3.421-3.42a35.52,35.52,0,0,0,6.232,2.587v4.831a6,6,0,0,0,6,6h9a6,6,0,0,0,6-6v-4.831a35.585,35.585,0,0,0,6.232-2.587l3.42,3.42a6,6,0,0,0,8.486,0l6.363-6.364a6,6,0,0,0,0-8.485l-3.421-3.421a35.525,35.525,0,0,0,2.587-6.232h4.832a6,6,0,0,0,6-6v-9A6,6,0,0,0,479.846,501.755Zm1.5,13.5a3,3,0,0,1-3,3h-4.677a2.637,2.637,0,0,0-2.556,1.96q-.338,1.293-.783,2.54a31.249,31.249,0,0,1-1.21,2.925q-.574,1.206-1.244,2.353a2.633,2.633,0,0,0,.423,3.19l1.7,1.7,1.609,1.609a3,3,0,0,1,0,4.243l-4.243,4.243a3,3,0,0,1-4.242,0l-1.609-1.609-1.7-1.7a2.635,2.635,0,0,0-3.19-.422q-1.146.669-2.353,1.243a30.98,30.98,0,0,1-2.924,1.211q-1.248.444-2.541.783a2.636,2.636,0,0,0-1.959,2.555v4.677a3,3,0,0,1-3,3h-6a3,3,0,0,1-3-3v-4.676a2.635,2.635,0,0,0-1.959-2.555q-1.293-.339-2.541-.784a31,31,0,0,1-2.925-1.211q-1.206-.573-2.353-1.243a2.633,2.633,0,0,0-3.19.423l-1.7,1.7-1.609,1.609a3,3,0,0,1-4.243,0l-4.242-4.243a3,3,0,0,1,0-4.243l1.609-1.609,1.7-1.7a2.635,2.635,0,0,0,.422-3.19q-.669-1.146-1.243-2.353a30.9,30.9,0,0,1-1.211-2.925q-.444-1.246-.783-2.541a2.636,2.636,0,0,0-2.555-1.959h-4.677a3,3,0,0,1-3-3v-6a3,3,0,0,1,3-3h4.677a2.635,2.635,0,0,0,2.555-1.959q.339-1.293.783-2.541a30.992,30.992,0,0,1,1.211-2.924q.573-1.206,1.243-2.353a2.635,2.635,0,0,0-.422-3.19l-1.7-1.7-1.609-1.609a3,3,0,0,1,0-4.243l4.242-4.243a3,3,0,0,1,4.243,0l1.609,1.609,1.7,1.7a2.633,2.633,0,0,0,3.19.423q1.146-.669,2.353-1.244a31.27,31.27,0,0,1,2.925-1.21q1.246-.444,2.541-.784a2.635,2.635,0,0,0,1.959-2.555v-4.677a3,3,0,0,1,3-3h6a3,3,0,0,1,3,3v4.678a2.636,2.636,0,0,0,1.959,2.555q1.293.338,2.541.783a30.988,30.988,0,0,1,2.924,1.211q1.206.573,2.353,1.243a2.633,2.633,0,0,0,3.19-.423l1.7-1.7,1.609-1.609a3,3,0,0,1,4.242,0l4.243,4.243a3,3,0,0,1,0,4.243L470,491.591l-1.7,1.7a2.633,2.633,0,0,0-.423,3.19q.669,1.146,1.244,2.353a31.238,31.238,0,0,1,1.21,2.924q.444,1.248.783,2.541a2.636,2.636,0,0,0,2.556,1.959h4.677a3,3,0,0,1,3,3Z" fill="#fff"/>
  </g>
</svg>
