<svg xmlns="http://www.w3.org/2000/svg" width="95.405" height="97.229" viewBox="0 0 95.405 97.229">
  <g id="Group_105" data-name="Group 105" transform="translate(-1270 -2149.994)">
    <path id="Path_98" data-name="Path 98" d="M1310.64,2178.72h-12.85v12.85h12.85Zm-4.17,8.679h-4.509v-4.509h4.509Z" fill="#fff"/>
    <path id="Path_99" data-name="Path 99" d="M1324.81,2191.57h12.85v-12.85h-12.85Zm4.17-8.68h4.509v4.509h-4.509Z" fill="#fff"/>
    <path id="Path_100" data-name="Path 100" d="M1322.29,2209.35h6.228v-6.228h-6.228Zm2.021-4.207h2.186v2.186h-2.186Z" fill="#fff"/>
    <path id="Path_101" data-name="Path 101" d="M1276.55,2233.57c-.394,1.691-1.973,2.762-2.311,5.256-.2,1.512.043,5.791,3.185,7.284,3.623,1.722,7.411,1.24,12.878-.056s7.9-2.691,10.947-3.086a10.6,10.6,0,0,1,1.187-.083,47.7,47.7,0,1,0-25.726-20.8A41.532,41.532,0,0,1,1276.55,2233.57Zm72.234-8.2v3.128h-14.372v-3.128h11.511v-11.159h2.861Zm-14.287-57.054h14.287v14.372h-3.128v-11.512H1334.5Zm-14.583,5.5h22.656v22.657h-22.656Zm0,26.931h10.98v10.98h-10.98Zm-4.364,22.656h-22.656v-22.656h22.656Zm0-26.93h-22.656v-22.657h22.656Zm-29.475-24.949V2168.4h14.371v3.127h-11.511v11.16h-2.86Zm0,42.683h3.128v11.511h11.159v2.861h-14.287Z" fill="#fff"/>
    <path id="Path_102" data-name="Path 102" d="M1310.64,2205.65h-12.85v12.85h12.85Zm-4.17,8.679h-4.509v-4.509h4.509Z" fill="#fff"/>
  </g>
</svg>
