<svg xmlns="http://www.w3.org/2000/svg" width="89.999" height="90" viewBox="0 0 89.999 90">
  <g id="Group_40" data-name="Group 40" transform="translate(-748.803 -109.237)">
    <path id="Path_77" data-name="Path 77" d="M793.8,109.237a45,45,0,1,0,45,45A45,45,0,0,0,793.8,109.237ZM822.466,182.9a40.538,40.538,0,1,1,11.872-28.663A40.4,40.4,0,0,1,822.466,182.9Z" fill="#fff"/>
    <path id="Path_78" data-name="Path 78" d="M793.8,130.988a2.251,2.251,0,1,0-2.25-2.25A2.25,2.25,0,0,0,793.8,130.988Z" fill="#fff"/>
    <path id="Path_79" data-name="Path 79" d="M796.052,138.488v-4.5h-9v4.5h4.5v39H784.8v4.5h18v-4.5h-6.75Z" fill="#fff"/>
  </g>
</svg>
