<svg xmlns="http://www.w3.org/2000/svg" width="90" height="90" viewBox="0 0 90 90">
  <g id="Group_30" data-name="Group 30" transform="translate(-509.556 -467.255)">
    <g id="Group_28" data-name="Group 28">
      <path id="Path_49" data-name="Path 49" d="M556.532,505.591a20.74,20.74,0,0,0,4.476-3.338,20.311,20.311,0,0,0,0-29.007,20.953,20.953,0,0,0-29.337,0,20.308,20.308,0,0,0,0,29.007,20.741,20.741,0,0,0,4.476,3.338,36.78,36.78,0,0,0-24.679,47.045l.016.047a6.837,6.837,0,0,0,6.511,4.572h56.689a6.838,6.838,0,0,0,6.511-4.572l.016-.047a36.776,36.776,0,0,0-24.679-47.045ZM534.874,499a15.743,15.743,0,0,1,0-22.505,16.39,16.39,0,0,1,22.931,0,15.745,15.745,0,0,1,0,22.505,16.39,16.39,0,0,1-22.931,0Zm37.611,53.634H520.194a5.265,5.265,0,0,1-5.129-3.946,32.22,32.22,0,1,1,62.549,0A5.264,5.264,0,0,1,572.485,552.636Z" fill="#fff"/>
    </g>
    <g id="Group_29" data-name="Group 29">
      <circle id="Ellipse_5" data-name="Ellipse 5" cx="2.25" cy="2.25" r="2.25" transform="translate(585.249 508.775)" fill="#fff"/>
      <path id="Path_50" data-name="Path 50" d="M595.852,476.176a12.615,12.615,0,0,0-8.708-3.477,12.452,12.452,0,0,0-8.763,3.58,12.2,12.2,0,0,0-3.331,5.93,2.234,2.234,0,0,0,2.166,2.751h0a2.216,2.216,0,0,0,2.159-1.726,7.757,7.757,0,0,1,2.126-3.789,8.006,8.006,0,0,1,5.643-2.3,8.163,8.163,0,0,1,5.638,2.247,7.34,7.34,0,0,1,2.329,5.327l0,.187v0a9.735,9.735,0,0,1-.407,2.7,7.282,7.282,0,0,1-1.845,2.967c-.64.671-1.434,1.354-2.3,2.169a16.273,16.273,0,0,0-3.812,5.033,17.033,17.033,0,0,0-1.348,4.463,2.228,2.228,0,0,0,2.2,2.591h0a2.214,2.214,0,0,0,2.185-1.84,12.571,12.571,0,0,1,1.026-3.4,10.763,10.763,0,0,1,2.067-2.893c.606-.627,1.282-1.224,1.994-1.881A15.485,15.485,0,0,0,598,491.1a12.639,12.639,0,0,0,1.549-6.079v0c0-.1,0-.2,0-.3A11.79,11.79,0,0,0,595.852,476.176Z" fill="#fff"/>
    </g>
  </g>
</svg>
