<svg xmlns="http://www.w3.org/2000/svg" width="90" height="60" viewBox="0 0 90 60">
  <g id="Group_26" data-name="Group 26" transform="translate(-168.426 -482.255)">
    <path id="Path_46" data-name="Path 46" d="M168.426,486.9v50.7a4.647,4.647,0,0,0,4.648,4.647h80.7a4.647,4.647,0,0,0,4.648-4.647V486.9a4.648,4.648,0,0,0-4.648-4.648h-80.7A4.648,4.648,0,0,0,168.426,486.9Zm81.732-.147-36.732,33.1-36.732-33.1Zm-77.232,2.661,26.67,24.032-26.67,24.032Zm6.418,48.338,23.613-21.277,8.133,7.329a3.489,3.489,0,0,0,4.671,0l8.134-7.329,23.613,21.277Zm74.582-.274-26.67-24.032,26.67-24.032Z" fill="#505050"/>
  </g>
</svg>
