<?xml version="1.0" encoding="utf-8"?>
<!-- Generator: Adobe Illustrator 19.2.0, SVG Export Plug-In . SVG Version: 6.00 Build 0)  -->
<svg version="1.1" id="Layer_1" xmlns="http://www.w3.org/2000/svg" xmlns:xlink="http://www.w3.org/1999/xlink" x="0px" y="0px"
	 viewBox="0 0 260.8 85" style="enable-background:new 0 0 260.8 85;" xml:space="preserve">
<style type="text/css">
	.st0{fill:#F7A61E;}
	.st1{fill:#FFFFFF;}
	.st2{font-family:'NeoSans';}
	.st3{font-size:11px;}
	.st4{display:none;}
	.st5{display:inline;}
</style>
<g>
	<path class="st0" d="M76.1,46c-1.2,0-2.3,0.8-2.8,1.8h-6.1c0-0.3,0-0.7-0.1-0.9l-2.4-9.1c1.5-1.8,2.4-4.1,2.4-6.5
		c0-2.2-0.7-4.3-2-5.9l3.7,0l3.5,3.5l1.6-1.6l-4.1-4.1l-5.5,0l0-5.5l-4.1-4.1l-1.6,1.6l3.4,3.4l0,4c-1.7-1-3.7-1.6-5.9-1.6
		c-2.3,0-4.5,0.7-6.3,1.9l-9.4-2.5c-0.2-0.1-0.4-0.1-0.7-0.1V14c1.1-0.4,1.9-1.5,1.9-2.8c0-1.6-1.3-3-3-3c-1.6,0-3,1.3-3,3
		c0,1.2,0.7,2.3,1.8,2.7v7.2l-6.2,6.2l-4.2-4.2c0.1-0.3,0.2-0.7,0.2-1.1c0-1.6-1.3-3-3-3c-1.6,0-3,1.3-3,3s1.3,3,3,3
		c0.4,0,0.8-0.1,1.2-0.2l4.2,4.2l-6.2,6.2c-0.1,0.1-0.1,0.2-0.2,0.2h-7.2c-0.5-1.1-1.5-1.8-2.7-1.8c-1.6,0-3,1.3-3,3s1.3,3,3,3
		c1.3,0,2.4-0.8,2.8-1.9h6.6c0,0.1,0,0.2,0.1,0.3l5.2,19.4c0.1,0.4,0.4,0.9,0.8,1.3c0.4,0.4,0.8,0.7,1.3,0.8l19.4,5.2
		c0.1,0,0.2,0,0.3,0.1v6.7c-1.1,0.4-1.9,1.5-1.9,2.8c0,1.6,1.3,3,3,3s3-1.3,3-3c0-1.2-0.8-2.3-1.8-2.8v-7.3c0.1-0.1,0.2-0.1,0.3-0.2
		l6.2-6.2l4.2,4.2c-0.2,0.4-0.2,0.8-0.2,1.2c0,1.6,1.3,3,3,3c1.6,0,3-1.3,3-3s-1.3-3-3-3c-0.4,0-0.8,0.1-1.1,0.2l-4.2-4.2l6-6h7.2
		c0.4,1.1,1.5,1.9,2.8,1.9c1.6,0,3-1.3,3-3S77.7,46,76.1,46z M24.5,23.9c-1,0-1.9-0.8-1.9-1.9s0.8-1.9,1.9-1.9c1,0,1.9,0.8,1.9,1.9
		S25.5,23.9,24.5,23.9z M13.4,38.5c-1,0-1.9-0.8-1.9-1.9c0-1,0.8-1.9,1.9-1.9s1.9,0.8,1.9,1.9C15.3,37.6,14.5,38.5,13.4,38.5z
		 M37,11.3c0-1,0.8-1.9,1.9-1.9c1,0,1.9,0.8,1.9,1.9c0,1-0.8,1.9-1.9,1.9C37.8,13.1,37,12.3,37,11.3z M52.8,74.1
		c0,1-0.8,1.9-1.9,1.9c-1,0-1.9-0.8-1.9-1.9s0.8-1.9,1.9-1.9C51.9,72.3,52.8,73.1,52.8,74.1z M57.8,47.8c-0.1,0.1-0.2,0.2-0.4,0.2
		c-2.5,0.1-5.2,0.3-7.5,1.5c0,0-1.9,0.9-3.4,2.6c-0.2,0.3-0.5,0.6-0.7,0.8c-0.5,0.6-1,1.2-1.5,1.8l0,0c0,0-0.2,0.2-0.4,0.2
		c0,0-0.3,0-0.4-0.3c0,0,0-0.1-0.1-0.2c-0.6-1.3-1.4-2.3-2.1-3.4c-0.6-0.8-1.4-1.7-2.2-2.6c-0.9-0.9-1.8-1.6-2.6-2.2
		c-1-0.8-2.1-1.5-3.4-2.1c-0.1-0.1-0.2-0.1-0.2-0.1c-0.3-0.1-0.3-0.4-0.3-0.4c0-0.2,0.2-0.4,0.2-0.4h0c0.6-0.5,1.2-1,1.8-1.5
		c0.3-0.2,0.6-0.5,0.8-0.7c1.7-1.4,2.6-3.3,2.6-3.4c1.2-2.3,1.4-5,1.5-7.5c0-0.2,0.1-0.3,0.2-0.4c0.2-0.1,0.5,0,0.5,0.1
		c0.7,0.4,1.4,0.9,2.1,1.3c0.3,0.2,0.6,0.4,0.9,0.6c1.9,1.2,3.9,1.5,4,1.5c2.6,0.4,5.2-0.3,7.6-1c0,0,0.2-0.1,0.4,0h0c0,0,0,0,0,0
		c0,0,0,0,0,0c0,0,0,0,0,0c0,0,0,0,0,0c0,0,0,0,0,0c0,0,0,0,0,0c0,0,0,0,0,0c0,0,0,0,0,0l0,0c0.1,0.2,0,0.4,0,0.4
		c-0.7,2.4-1.4,5-1,7.6c0,0,0.3,2.1,1.5,4c0.2,0.3,0.4,0.6,0.6,0.9c0.4,0.7,0.8,1.4,1.3,2.1C57.7,47.3,57.9,47.6,57.8,47.8z
		 M65.5,61.2c1,0,1.9,0.8,1.9,1.9s-0.8,1.9-1.9,1.9c-1,0-1.9-0.8-1.9-1.9S64.4,61.2,65.5,61.2z M76.1,50.8c-1,0-1.9-0.8-1.9-1.9
		c0-1,0.8-1.9,1.9-1.9c1,0,1.9,0.8,1.9,1.9C77.9,50,77.1,50.8,76.1,50.8z"/>
	<g>
		<g>
			<path class="st0" d="M109.8,45.9c-0.7,0.3-1.1,0.4-1.2,0.4H95c-0.5,0-0.9-0.2-1.1-0.7c-0.2-0.4-0.3-0.9-0.2-1.4
				c0.1-0.5,0.2-1,0.5-1.4c0.3-0.5,0.7-0.8,1.2-0.8h9c0.7,0,1.1-0.7,1.2-2.1c0.1-1.4-0.1-2.2-0.8-2.2h-7c-0.3,0-0.6-0.1-1.2-0.4
				c-2.2-1.1-3.3-2.7-3.3-4.8c0-0.2,0-0.6,0.1-1.3c0.1-1.7,0.7-3.1,1.7-4.4c1.1-1.4,2.5-2.1,4.1-2.1h13c1.2,0,1.8,0.7,1.6,2.1
				c-0.1,0.5-0.2,1-0.5,1.4c-0.3,0.5-0.7,0.8-1.2,0.8H98.8c-0.6,0-1,0.7-1.1,2.1c-0.1,1.5,0.1,2.2,0.7,2.2h11.3
				c0.3,0,0.6,0.1,1.2,0.4c2.2,1.1,3.3,2.7,3.3,4.8C114.1,42.4,112.7,44.8,109.8,45.9z"/>
			<path class="st0" d="M136.7,44.2c-0.1,0.9-0.4,1.5-0.9,1.8c-0.4,0.3-1.1,0.4-2,0.4c-0.3,0-0.7,0-1.2,0c-0.5,0-1,0-1.2,0
				c-2.8,0-4.8-0.2-5.9-0.5c-2.4-0.7-4-2.2-4.8-4.5c-0.4-1.2-0.6-2.2-0.5-2.9l0.8-9.2l-3.1-0.3c-0.8-0.2-1.1-0.8-1-2
				c0.1-1.1,0.6-1.8,1.4-2l2.9-0.1c0.1-0.8,0.3-3.1,0.7-6.8c0.1-1.2,0.9-1.8,2.3-1.8c0.5,0,1,0.1,1.4,0.3c0.5,0.3,0.7,0.7,0.7,1.1
				l-0.6,7.1h7.1c0.5,0,0.8,0.3,1,0.8c0.2,0.4,0.3,0.9,0.3,1.4c-0.1,0.5-0.2,1-0.5,1.4c-0.3,0.5-0.7,0.8-1.2,0.8h-7
				c0,0.3-0.1,0.7-0.2,1.2c-0.1,0.5-0.2,0.9-0.2,1.2c0,1.1,0.7,1.8,2.2,1.9c0.7,0.1,1.2,0.2,1.5,0.4c0.3,0.2,0.4,0.7,0.4,1.4
				c0,0.3,0,0.9-0.1,1.7c-0.1,0.7-0.1,1.3,0,1.7c0.1,1.3,0.7,2.3,1.7,2.8c0.5,0.3,1.5,0.4,3.1,0.5c1.5,0.1,2.4,0.3,2.8,0.5
				C136.6,42.7,136.8,43.3,136.7,44.2z"/>
			<path class="st0" d="M159.7,39.9c-0.1,1.6-0.2,2.8-0.3,3.5c-0.3,1.9-0.9,2.9-1.8,2.9h-15c-0.3,0-0.6-0.1-1.2-0.4
				c-2.2-1.1-3.3-2.7-3.3-4.8c0-0.5,0-0.9,0-1.2c0.3-3.1,1.7-5.1,4.3-6.1c0.7-0.3,1.1-0.4,1.2-0.4h7.8c0.1-0.4,0.2-0.9,0.3-1.7
				c0.1-0.6,0.1-0.9,0.1-1.1c0-1-0.3-1.4-0.8-1.4h-6.1c-1,0-1.5-0.7-1.4-2.1c0.1-1.5,1.1-2.2,2.9-2.2c0.2,0,0.6,0,1,0
				c0.5,0,0.8,0,1,0c2,0,3.2,0,3.6,0.1c1.1,0.2,2,0.8,2.8,1.7c0.8,0.9,1.2,1.9,1.3,3c0,0.2,0,0.5-0.1,0.9c-0.1,0.5-0.2,0.8-0.2,0.9
				c0,0.8,0.3,1.3,0.8,1.6c0.2,0.1,0.8,0.3,1.6,0.4c0.7,0.1,1.2,0.3,1.4,0.5c0.2,0.2,0.3,0.8,0.3,1.8
				C159.9,36.2,159.8,37.5,159.7,39.9z M150.8,42l0.3-4.3h-7.4c-0.8,0-1.3,0.7-1.4,2.2c-0.1,1.4,0.1,2.1,0.8,2.1H150.8z"/>
			<path class="st0" d="M180.2,27c-0.1,0.5-0.2,0.9-0.5,1.4c-0.3,0.5-0.7,0.8-1.2,0.8h-6.1c-0.1,0-0.3,0.1-0.6,0.3
				c-0.3,0.2-0.4,0.4-0.4,0.5l-1.3,14.8c-0.1,0.8-0.8,1.3-2.1,1.4c-0.2,0-1,0-2.4,0c-1.9,0-2.9,0-3.1-0.1c-0.6-0.2-1-1-1-2.3
				c0-0.2,0.1-1.5,0.3-4c0.2-1.9,0.3-2.9,0.3-3.1c0.2-1.5,0.3-2.3,0.4-2.5c0.2-0.3,0.8-0.6,1.9-0.8c0.8-0.1,1.4-0.3,1.8-0.6
				c0.3-0.3,0.6-0.8,0.6-1.5c0.1-1,0.1-1.6,0.3-1.8c1.1-2.3,2.3-3.7,3.6-4.3c0.7-0.3,2.4-0.5,4.9-0.5c0.2,0,0.6,0,1,0s0.8,0,1,0
				C179.5,24.8,180.3,25.5,180.2,27z"/>
			<path class="st0" d="M201.5,35.5c-0.3,2.9-0.9,5.2-2,6.9c-1.3,2-3.3,3.2-6,3.6c-1.2,0.2-3.5,0.3-7,0.3c-3.3,0-5.1,0-5.4,0
				c-1.4-0.1-2-0.6-2-1.5l2.4-27c0-0.5,0.3-0.9,0.8-1.2c0.4-0.2,0.9-0.3,1.4-0.3c0.5,0,0.9,0.1,1.3,0.3c0.5,0.3,0.7,0.7,0.7,1.1
				l-0.6,7.1h9.1c0.8,0,1.7,0.2,2.7,0.7c3.1,1.4,4.6,3.8,4.6,7.2C201.7,33.3,201.6,34.3,201.5,35.5z M197.2,35.5
				c0-0.5,0.1-1.6,0.2-3.1c0.1-0.6-0.3-1.4-1.1-2.2c-0.8-0.8-1.5-1.2-2.1-1.2h-9.4l-0.2,2.8c0,0.2,0.1,0.5,0.4,1
				c0.1,0.2,0.5,0.3,1.3,0.4c0.9,0.2,1.4,0.3,1.5,0.3c0.6,0.3,0.8,0.7,0.8,1.3l-0.6,7.1h5.1c0.7,0,1.4-0.4,2.2-1.1
				c0.8-0.8,1.3-1.5,1.5-2.2C197,38.2,197.1,37.2,197.2,35.5z"/>
			<path class="st0" d="M224.8,41.5c0,0.4-0.4,1.1-1,2c-0.6,0.9-1.1,1.4-1.5,1.6c-0.4,0.3-1.1,0.7-2.1,1c-0.7,0.1-2.3,0.2-5,0.2
				c-3.7,0-6.4-0.4-8-1.2c-2.3-1.2-3.5-3.4-3.5-6.9c0-0.7,0-1.2,0-1.6c0.1-1.6,0.4-2.5,0.7-2.8c0.2-0.2,1-0.4,2.4-0.6
				c1-0.2,1.6-0.7,1.6-1.4l0.5-5.6c0.1-0.5,0.3-0.8,0.8-1.1c0.5-0.3,1-0.4,1.5-0.4c0.5,0,1,0.1,1.3,0.3c0.5,0.3,0.7,0.7,0.7,1.1
				l-1,12.4c-0.1,0.7,0.3,1.4,1.1,2.1c0.8,0.8,1.5,1.1,2.2,1.2c0.6,0,1.3,0,2,0c1.3,0,1.9,0,1.6,0c0.9-0.1,1.4-0.4,1.5-1l1.3-14.8
				c0.1-0.5,0.3-0.9,0.9-1.2c0.4-0.2,0.9-0.3,1.4-0.3c0.5,0,1,0.1,1.4,0.3c0.5,0.3,0.7,0.7,0.7,1.1L224.8,41.5z"/>
			<path class="st0" d="M248.4,47c-0.1,0.6-0.4,3-1.1,4.3c-1.2,2.3-3,3.8-5.5,4.4c-1.2,0.3-3.1,0.5-6,0.5c-0.3,0-0.7,0-1.3,0.1
				c-0.6,0-1,0.1-1.3,0.1c-0.9,0-1.6-0.1-2-0.4c-0.5-0.3-0.7-0.9-0.6-1.8c0.1-0.8,0.3-1.4,0.8-1.7c0.4-0.3,1.1-0.5,2-0.5h2.6
				c0.7,0,1.5-0.4,2.4-1.2c0.9-0.8,1.4-3,1.5-3.6l0.1-0.9h-4.8c-1.1,0-2.2-0.3-3.4-1c-2.6-1.4-3.9-3.7-3.9-7c0-0.6,0.1-1.5,0.2-2.7
				c0.4-4.5,1.7-7.5,3.8-9c1.7-1.2,4.9-1.7,9.4-1.7c2.6,0,4.3,0.1,4.9,0.2c0.9,0.2,1.8,0.8,2.6,1.8c0.9,1,1.3,1.9,1.2,2.8L248.4,47z
				 M245.6,30.9c0.1-0.8-0.2-1.4-0.8-1.7c-0.4-0.2-1.1-0.3-2-0.3h-1.6c-0.8,0.1-1,0.1-0.6,0.1c-2.3,0-3.9,0.1-4.5,0.2
				c-1.8,0.4-3,1.4-3.4,3.1c-0.1,0.2-0.2,1.2-0.3,3.1c0,0.2-0.1,0.6-0.1,1.1l-0.2,2c-0.1,0.6,0.3,1.4,1.1,2.2
				c0.8,0.8,1.5,1.2,2.1,1.2h5l0.6-7.1c0.1-0.8,0.6-1.3,1.7-1.4c1.4-0.2,2.1-0.4,2.3-0.5C245.3,32.6,245.5,31.9,245.6,30.9z"/>
		</g>
		<text id="SOFTWARE_DEVELOPMENT" transform="matrix(1 0 0 1 93.2773 60.1489)" class="st1 st2 st3">SOFTWARE DEVELOPMENT</text>
		<g class="st4">
			<path class="st5" d="M96.1,60.2c-0.8,0-1.3-0.1-1.8-0.2C94,60,94,60,94,59.9v-0.4c0-0.1,0.1-0.2,0.2-0.2c0,0,0,0,0,0
				c0.5,0,1.3,0.1,1.8,0.1c1.3,0,1.7-0.5,1.7-1.3c0-0.6-0.3-0.9-1.3-1.5l-1.1-0.6c-1-0.6-1.5-1.2-1.5-2.1c0-1.3,1-1.9,2.6-1.9
				c0.6,0,1.5,0.1,1.9,0.1c0.1,0,0.2,0.1,0.2,0.2v0.5c0,0.1-0.1,0.2-0.2,0.2c0,0,0,0,0,0c-0.5,0-1.3-0.1-1.9-0.1
				c-1.1,0-1.6,0.2-1.6,1c0,0.5,0.4,0.8,1.2,1.3l1,0.6c1.3,0.8,1.7,1.4,1.7,2.2C98.8,59.1,98.2,60.2,96.1,60.2z"/>
			<path class="st5" d="M103,60.2c-1.7,0-3-1-3-3.5v-1.4c0-2.4,1.3-3.5,3-3.5s3,1,3,3.5v1.4C105.9,59.2,104.7,60.2,103,60.2z
				 M104.9,55.4c0-1.8-0.7-2.6-2-2.6c-1.2,0-2,0.7-2,2.6v1.4c0,1.8,0.8,2.6,2,2.6c1.2,0,2-0.7,2-2.6V55.4z"/>
			<path class="st5" d="M111.8,56.3h-3.4v3.6c0,0.1-0.1,0.2-0.2,0.2h-0.6c-0.1,0-0.2-0.1-0.2-0.2v-6c0-1.5,0.8-2,2.3-2
				c0.6,0,1.7,0,2.1,0.1c0.1,0,0.1,0.1,0.1,0.2v0.5c0,0.1,0,0.1-0.1,0.1h-2.1c-1.2,0-1.4,0.3-1.4,1.1v1.5h3.4c0.1,0,0.2,0.1,0.2,0.2
				v0.4C112.1,56.2,112,56.3,111.8,56.3z"/>
			<path class="st5" d="M118.6,52.8h-2.1v7.1c0,0.1-0.1,0.2-0.2,0.2h-0.6c-0.1,0-0.2-0.1-0.2-0.2v-7.1h-2.1c-0.1,0-0.2-0.1-0.2-0.2
				v-0.5c0-0.1,0.1-0.2,0.2-0.2h5.3c0.1,0,0.2,0.1,0.2,0.2v0.5C118.8,52.8,118.7,52.8,118.6,52.8z"/>
			<path class="st5" d="M127.9,52.2l-1.2,7.4c-0.1,0.5-0.3,0.6-0.7,0.6h-0.5c-0.3,0-0.5-0.2-0.6-0.5l-1.1-4.1c0-0.1,0-0.1-0.1-0.1
				c0,0,0,0,0,0s0,0,0,0c0,0,0,0-0.1,0.1l-1.1,4.1c-0.1,0.3-0.3,0.5-0.6,0.5h-0.5c-0.4,0-0.6-0.1-0.7-0.6l-1.2-7.4c0,0,0,0,0,0
				c0-0.1,0.1-0.2,0.2-0.2h0.6c0.1,0,0.2,0.1,0.2,0.2l1.1,7c0,0.1,0,0.2,0.1,0.2s0.1-0.1,0.1-0.2l1.1-4.1c0.1-0.3,0.2-0.4,0.5-0.4
				h0.7c0.3,0,0.4,0.1,0.5,0.4l1.1,4.1c0,0.1,0,0.2,0.1,0.2c0,0,0-0.1,0.1-0.2l1.1-7c0-0.1,0.1-0.2,0.2-0.2h0.6
				C127.8,52,127.9,52.1,127.9,52.2C127.9,52.2,127.9,52.2,127.9,52.2z"/>
			<path class="st5" d="M134.7,60.1H134c-0.1,0-0.2-0.1-0.2-0.2l-0.7-2.5h-2.8l-0.7,2.5c0,0.1-0.1,0.2-0.2,0.2h-0.6
				c-0.1,0-0.2-0.1-0.2-0.2c0,0,0-0.1,0-0.1l2-7.2c0.2-0.7,0.7-0.8,1.1-0.8c0.4,0,0.9,0.2,1.1,0.8l2,7.2c0,0,0,0.1,0,0.1
				C134.9,60.1,134.8,60.1,134.7,60.1z M131.9,53c0-0.1-0.1-0.2-0.2-0.2c-0.1,0-0.2,0.1-0.2,0.2l-1,3.6h2.4L131.9,53z"/>
			<path class="st5" d="M141.5,60.1h-0.7c-0.1,0-0.2,0-0.3-0.1l-2-3.3c0,0-0.1,0-0.1,0c-0.1,0-0.1,0-0.2,0c-0.4,0-0.6,0-1.2,0v3.2
				c0,0.1-0.1,0.2-0.2,0.2h-0.6c-0.1,0-0.2-0.1-0.2-0.2v-7.7c0-0.2,0.1-0.2,0.3-0.2c0.5-0.1,1.3-0.1,1.9-0.1c1.7,0,3.1,0.6,3.1,2.4
				v0.1c0,1.2-0.7,2-1.7,2.2l2,3.3c0,0,0,0.1,0,0.1C141.6,60.1,141.6,60.1,141.5,60.1z M140.3,54.3c0-1.1-0.7-1.5-2.1-1.5
				c-0.3,0-0.9,0-1.2,0v3c0.5,0,1,0,1.2,0C139.6,55.9,140.3,55.5,140.3,54.3L140.3,54.3z"/>
			<path class="st5" d="M147.4,60.2c-0.4,0-1.5,0.1-2.1,0.1c-1.5,0-2.3-0.6-2.3-2v-4.2c0-1.5,0.8-2,2.3-2c0.6,0,1.7,0,2.1,0.1
				c0.1,0,0.1,0.1,0.1,0.2v0.5c0,0.1,0,0.1-0.1,0.1h-2.1c-1.2,0-1.4,0.3-1.4,1.1v1.5h3.4c0.1,0,0.2,0.1,0.2,0.2v0.4
				c0,0.1-0.1,0.2-0.2,0.2h-3.4v1.8c0,0.8,0.2,1.1,1.4,1.1h2.1c0.1,0,0.1,0.1,0.1,0.1V60C147.5,60.1,147.5,60.2,147.4,60.2z"/>
			<path class="st5" d="M153.6,60.2c-0.8,0-1.3-0.1-1.8-0.2c-0.2,0-0.2-0.1-0.2-0.2v-0.4c0-0.1,0.1-0.2,0.2-0.2c0,0,0,0,0,0
				c0.5,0,1.3,0.1,1.8,0.1c1.3,0,1.7-0.5,1.7-1.3c0-0.6-0.3-0.9-1.3-1.5l-1.1-0.6c-1-0.6-1.5-1.2-1.5-2.1c0-1.3,1-1.9,2.6-1.9
				c0.6,0,1.5,0.1,1.9,0.1c0.1,0,0.2,0.1,0.2,0.2v0.5c0,0.1-0.1,0.2-0.2,0.2c0,0,0,0,0,0c-0.5,0-1.3-0.1-1.9-0.1
				c-1.1,0-1.6,0.2-1.6,1c0,0.5,0.4,0.8,1.2,1.3l1,0.6c1.3,0.8,1.7,1.4,1.7,2.2C156.3,59.1,155.8,60.2,153.6,60.2z"/>
			<path class="st5" d="M160.5,60.2c-1.7,0-3-1-3-3.5v-1.4c0-2.4,1.3-3.5,3-3.5c1.7,0,3,1,3,3.5v1.4
				C163.5,59.2,162.3,60.2,160.5,60.2z M162.5,55.4c0-1.8-0.7-2.6-2-2.6c-1.2,0-2,0.7-2,2.6v1.4c0,1.8,0.8,2.6,2,2.6
				c1.2,0,2-0.7,2-2.6V55.4z"/>
			<path class="st5" d="M169.5,60.1c-0.3,0-1.1,0.1-2.1,0.1c-1.2,0-2.3-0.2-2.3-2v-6c0-0.1,0.1-0.2,0.2-0.2h0.6
				c0.1,0,0.2,0.1,0.2,0.2v6c0,0.8,0.2,1.1,1.4,1.1h2.1c0.1,0,0.1,0.1,0.1,0.1V60C169.6,60,169.6,60.1,169.5,60.1z"/>
			<path class="st5" d="M173.5,60.2c-1.8,0-2.8-0.9-2.8-3v-5c0-0.1,0.1-0.2,0.2-0.2h0.6c0.1,0,0.2,0.1,0.2,0.2v5
				c0,1.4,0.4,2.2,1.8,2.2c1.4,0,1.8-0.8,1.8-2.2v-5c0-0.1,0.1-0.2,0.2-0.2h0.6c0.1,0,0.2,0.1,0.2,0.2v5
				C176.3,59.3,175.2,60.2,173.5,60.2z"/>
			<path class="st5" d="M183,52.8h-2.1v7.1c0,0.1-0.1,0.2-0.2,0.2H180c-0.1,0-0.2-0.1-0.2-0.2v-7.1h-2.1c-0.1,0-0.2-0.1-0.2-0.2
				v-0.5c0-0.1,0.1-0.2,0.2-0.2h5.3c0.1,0,0.2,0.1,0.2,0.2v0.5C183.2,52.8,183.1,52.8,183,52.8z"/>
			<path class="st5" d="M185.4,60.1h-0.6c-0.1,0-0.2-0.1-0.2-0.2v-7.7c0-0.1,0.1-0.2,0.2-0.2h0.6c0.1,0,0.2,0.1,0.2,0.2v7.7
				C185.6,60,185.5,60.1,185.4,60.1z"/>
			<path d="M190.2,60.2c-1.7,0-3-1-3-3.5v-1.4c0-2.4,1.3-3.5,3-3.5c1.7,0,3,1,3,3.5v1.4C193.1,59.2,191.9,60.2,190.2,60.2z
				 M192.1,55.4c0-1.8-0.7-2.6-2-2.6c-1.2,0-2,0.7-2,2.6v1.4c0,1.8,0.8,2.6,2,2.6c1.2,0,2-0.7,2-2.6V55.4z"/>
			<path d="M200.1,60.1h-0.7c-0.2,0-0.3-0.1-0.4-0.2l-3.4-6.5c0,0,0,0,0,0c0,0,0,0,0,0v6.4c0,0.1-0.1,0.2-0.2,0.2h-0.6
				c-0.1,0-0.2,0-0.2-0.1v-7.7c0-0.2,0.1-0.3,0.3-0.3h0.6c0.3,0,0.4,0.1,0.5,0.2l3.4,6.4l0,0c0,0,0,0,0,0v-6.4
				c0-0.1,0.1-0.2,0.2-0.2h0.6c0.1,0,0.2,0.1,0.2,0.2v7.6C200.4,60,200.3,60.1,200.1,60.1z"/>
			<path class="st5" d="M204.1,60.2c-0.8,0-1.3-0.1-1.8-0.2c-0.2,0-0.2-0.1-0.2-0.2v-0.4c0-0.1,0.1-0.2,0.2-0.2c0,0,0,0,0,0
				c0.5,0,1.3,0.1,1.8,0.1c1.3,0,1.7-0.5,1.7-1.3c0-0.6-0.3-0.9-1.3-1.5l-1.1-0.6c-1-0.6-1.5-1.2-1.5-2.1c0-1.3,1-1.9,2.6-1.9
				c0.6,0,1.5,0.1,1.9,0.1c0.1,0,0.2,0.1,0.2,0.2v0.5c0,0.1-0.1,0.2-0.2,0.2c0,0,0,0,0,0c-0.5,0-1.3-0.1-1.9-0.1
				c-1.1,0-1.6,0.2-1.6,1c0,0.5,0.4,0.8,1.2,1.3l1,0.6c1.3,0.8,1.7,1.4,1.7,2.2C206.8,59.1,206.2,60.2,204.1,60.2z"/>
		</g>
	</g>
</g>
</svg>
