<svg xmlns="http://www.w3.org/2000/svg" width="49.915" height="50" viewBox="0 0 49.915 50">
  <g id="Group_302" data-name="Group 302" transform="translate(-900.301 -5917.5)">
    <g id="Group_301" data-name="Group 301">
      <path id="Path_330" data-name="Path 330" d="M950.216,5925.306a7.817,7.817,0,0,0-13.349-5.516L905.4,5951.383a9.354,9.354,0,0,0-2.26,3.661l-.029.09L900.3,5967.5l12.4-2.776.093-.031a9.382,9.382,0,0,0,3.666-2.261l31.47-31.6a7.764,7.764,0,0,0,2.286-5.53Zm-43.039,36.654-1.314-1.315.949-4.177,4.552,4.555Zm37.989-33.88-30.551,30.674-5.533-5.536,20.928-21.012,3.187,3.187,2.76-2.76-3.193-3.192,2.969-2.981,3.2,3.2,2.76-2.76-3.2-3.2,1.144-1.148a3.913,3.913,0,1,1,5.535,5.533Zm-24.332,35.474h29.382v3.9H916.944Zm0,0" fill="#58595b"/>
    </g>
  </g>
</svg>
