<svg xmlns="http://www.w3.org/2000/svg" width="47.254" height="47.254" viewBox="0 0 47.254 47.254">
  <g id="Group_7" data-name="Group 7" transform="translate(-236.488 -114.907)">
    <circle id="Ellipse_2" data-name="Ellipse 2" cx="23.627" cy="23.627" r="23.627" transform="translate(236.488 114.907)" fill="#249fda"/>
    <path id="Path_8" data-name="Path 8" d="M247.549,128.928a2.956,2.956,0,0,1,2.953-2.961h3.963a2.945,2.945,0,0,1,2.933,2.611,14.373,14.373,0,0,0,.536,2.587,2.948,2.948,0,0,1-.729,2.956l-1.606,1.606a18.523,18.523,0,0,0,7.323,7.323l1.606-1.606a2.947,2.947,0,0,1,2.956-.729,14.381,14.381,0,0,0,2.586.536,2.944,2.944,0,0,1,2.611,2.933v3.963a2.955,2.955,0,0,1-3.231,2.94A24.223,24.223,0,0,1,247.562,129.2c-.009-.09-.013-.18-.013-.27Zm8.553,3.111a1,1,0,0,0-.046-.3,16.326,16.326,0,0,1-.609-2.941.983.983,0,0,0-.982-.867H250.5a.976.976,0,0,0-.729.321.991.991,0,0,0-.256.766,22.25,22.25,0,0,0,20.114,20.114.991.991,0,0,0,.766-.256.978.978,0,0,0,.321-.729v-3.963a.983.983,0,0,0-.867-.982,16.325,16.325,0,0,1-2.941-.609.99.99,0,0,0-.994.239l-2.615,2.615-.632-.314a20.466,20.466,0,0,1-9.152-9.154l-.315-.632,2.615-2.615a.977.977,0,0,0,.285-.693Zm0,0" fill="#ffffff"/>
  </g>
</svg>
