<svg xmlns="http://www.w3.org/2000/svg" width="47.254" height="47.254" viewBox="0 0 47.254 47.254">
  <g id="Group_22" data-name="Group 22" transform="translate(-236.492 -331.309)">
    <circle id="Ellipse_5" data-name="Ellipse 5" cx="23.627" cy="23.627" r="23.627" transform="translate(236.492 331.309)" fill="#249fda"/>
    <g id="Group_21" data-name="Group 21">
      <path id="Path_21" data-name="Path 21" d="M269.741,345.313a13.518,13.518,0,0,0-9.622-3.985h0a13.607,13.607,0,1,0,9.622,3.985Zm.889,15.434h-3.983a17.9,17.9,0,0,0,.93-5.014h4.528a11.923,11.923,0,0,1-1.475,5.014Zm-10.511,6.084a11.284,11.284,0,0,1-4.118-4.49h8.235a11.281,11.281,0,0,1-4.117,4.49Zm-4.838-6.084a16.19,16.19,0,0,1-1.024-5.014h11.724a16.219,16.219,0,0,1-1.024,5.014Zm-7.148-5.014h4.527a17.941,17.941,0,0,0,.93,5.014h-3.982a11.923,11.923,0,0,1-1.475-5.014Zm1.475-6.608h3.982a17.934,17.934,0,0,0-.93,5.013h-4.527a11.918,11.918,0,0,1,1.475-5.013Zm10.511-6.085a11.288,11.288,0,0,1,4.117,4.49H256a11.29,11.29,0,0,1,4.118-4.49Zm4.838,6.085a16.212,16.212,0,0,1,1.024,5.013H254.257a16.212,16.212,0,0,1,1.024-5.013Zm7.148,5.013h-4.528a17.9,17.9,0,0,0-.93-5.013h3.983a11.919,11.919,0,0,1,1.475,5.013Zm-6.1-6.608a14.142,14.142,0,0,0-2.977-4.25,12.046,12.046,0,0,1,6.54,4.25Zm-8.8-4.25a14.139,14.139,0,0,0-2.976,4.25h-3.563a12.039,12.039,0,0,1,6.539-4.25Zm-2.976,19.061a14.127,14.127,0,0,0,2.976,4.25,12.039,12.039,0,0,1-6.539-4.25Zm8.8,4.25a14.13,14.13,0,0,0,2.977-4.25h3.563a12.046,12.046,0,0,1-6.54,4.25Zm0,0" fill="#fff"/>
    </g>
  </g>
</svg>
